<?xml version="1.0" encoding="utf-8"?>
<!-- Generator: Adobe Illustrator 25.4.1, SVG Export Plug-In . SVG Version: 6.00 Build 0)  -->
<svg version="1.1" id="Layer_1" xmlns="http://www.w3.org/2000/svg" xmlns:xlink="http://www.w3.org/1999/xlink" x="0px" y="0px"
	 viewBox="0 0 135 51" style="enable-background:new 0 0 135 51;" xml:space="preserve">
<style type="text/css">
	.st0{fill-rule:evenodd;clip-rule:evenodd;fill:#FFFFFF;}
	.st1{filter:url(#Adobe_OpacityMaskFilter);}
	.st2{mask:url(#mask-2_00000014611551934443279360000000839606963467697852_);fill-rule:evenodd;clip-rule:evenodd;fill:#FFFFFF;}
	.st3{filter:url(#Adobe_OpacityMaskFilter_00000172422790396165080840000001269930970705554567_);}
	.st4{mask:url(#mask-4_00000008849973387641531360000017585017535990808231_);fill-rule:evenodd;clip-rule:evenodd;fill:#FFFFFF;}
	.st5{filter:url(#Adobe_OpacityMaskFilter_00000010274308982677344020000003099187613714508931_);}
	.st6{mask:url(#mask-6_00000021825875335866893880000010360693961729229246_);fill-rule:evenodd;clip-rule:evenodd;fill:#FFFFFF;}
</style>
<g id="Page-1">
	<g id="Home" transform="translate(-1314.000000, -1669.000000)">
		<g id="amazon" transform="translate(1314.527242, 1669.774096)">
			<path id="Fill-1" class="st0" d="M60.8,21.7c1.4-3.1,5.9-3.5,7.5,0.1c0.2-0.1,0.3-0.4,0.4-0.6c1-1.5,2.4-2.1,4.1-1.9
				c1.6,0.2,2.8,0.9,3.3,2.5c0.2,0.6,0.3,1.3,0.3,2c0,3.5,0,7,0,10.5c0,0.7-0.2,0.9-0.9,0.9c-0.7,0-1.4,0-2.2,0
				c-0.6,0-0.9-0.2-0.9-0.9c0-2.8,0-5.6,0-8.4c0-0.5,0-0.9,0-1.4c-0.1-1-0.5-1.5-1.4-1.6c-0.9-0.1-1.7,0.3-2.1,1.2
				c-0.2,0.7-0.3,1.4-0.3,2.1c0,2.7,0,5.4,0,8.1c0,0.7-0.3,0.9-0.9,0.9c-0.6,0-1.3,0-1.9,0c-1,0-1-0.1-1-1c0-2.8,0-5.5,0-8.3
				c0-0.6,0-1.2-0.2-1.7c-0.2-0.8-0.7-1.3-1.5-1.3c-0.8-0.1-1.5,0.3-1.8,1.1C61,24.7,61,25.3,61,26c0,2.7,0,5.4,0,8.2
				c0,1,0,1.1-1.1,1.1c-0.7,0-1.3,0-2,0c-0.5,0-0.8-0.2-0.8-0.8c0-4.7,0-9.4,0-14.1c0-0.5,0.2-0.8,0.7-0.8c0.8,0,1.5,0,2.3,0
				c0.5,0,0.7,0.3,0.7,0.8C60.8,20.8,60.8,21.2,60.8,21.7"/>
			<path id="Fill-3" class="st0" d="M87.2,28.7c0-1.2,0-1.2-1.2-1.1c-0.4,0.1-0.8,0.1-1.1,0.2c-1.5,0.5-2.2,1.8-1.8,3.3
				c0.3,1,1.2,1.5,2.2,1.2c0.7-0.2,1.1-0.6,1.4-1.2C87.1,30.5,87.2,29.6,87.2,28.7 M91.2,26.7c0,0.9,0,1.9,0,2.8c0,1,0.2,2,0.9,2.7
				c0.4,0.5,0.4,0.9-0.1,1.3c-0.6,0.4-1.1,0.9-1.6,1.4c-0.4,0.4-0.8,0.4-1.2,0c-0.3-0.3-0.6-0.6-0.8-0.9c-0.3-0.6-0.6-0.7-1.1-0.1
				c-1.3,1.3-2.9,1.7-4.7,1.5c-2.4-0.3-3.8-2.1-3.7-4.7c0.2-2.3,1.5-4,3.8-4.7c1.2-0.3,2.4-0.5,3.6-0.6c1.2-0.1,1.1,0.2,1-1.2
				c0-1.2-0.5-1.8-1.4-2c-1.2-0.3-2.4,0.3-2.8,1.5c-0.2,0.6-0.5,0.7-1.1,0.7c-0.6-0.1-1.3-0.1-1.9-0.2c-0.7-0.1-0.9-0.3-0.7-1
				c0.4-1.7,1.5-2.8,3.1-3.4c1.9-0.7,3.9-0.8,5.9-0.1c1.7,0.6,2.7,1.8,2.8,3.7C91.2,24.4,91.1,25.6,91.2,26.7
				C91.2,26.7,91.2,26.7,91.2,26.7"/>
			<path id="Fill-5" class="st0" d="M49.7,29.1c0-0.5,0-0.8,0-1.1c0-0.2,0-0.4-0.2-0.4c-1.3,0-2.5,0.1-3.4,1.2
				c-0.7,0.8-0.7,1.9-0.3,2.9c0.3,0.6,0.8,0.9,1.5,0.9c1.1,0,1.7-0.7,2.1-1.6C49.7,30.3,49.7,29.6,49.7,29.1 M53.7,26.8
				c0,0.8,0,1.5,0,2.3c-0.1,1.2,0.2,2.3,1,3.3c0.3,0.4,0.3,0.7-0.1,1.1c-0.6,0.5-1.2,1.1-1.9,1.6c-0.4,0.3-0.7,0.3-1.1,0
				c-0.3-0.3-0.6-0.6-0.9-1c-0.4-0.6-0.6-0.7-1.2-0.2c-1.3,1.3-3,1.7-4.7,1.5c-2.6-0.3-4.1-2.6-3.5-5.4c0.4-2.1,1.7-3.4,3.7-4
				c1.3-0.4,2.7-0.5,4-0.7c0.5,0,0.6-0.2,0.6-0.7c0-0.2,0-0.3,0-0.5c0-1.3-0.5-1.9-1.6-2.1c-1.2-0.2-2.3,0.4-2.6,1.5
				c-0.2,0.6-0.5,0.8-1.1,0.7c-0.7-0.1-1.3-0.1-2-0.2c-0.5-0.1-0.8-0.3-0.6-0.9c0.5-1.9,1.7-3.1,3.4-3.7c1.7-0.6,3.4-0.6,5.1-0.2
				c2.1,0.6,3.2,1.9,3.3,4.2C53.8,24.7,53.7,25.7,53.7,26.8C53.7,26.8,53.7,26.8,53.7,26.8"/>
			<g id="Group-9" transform="translate(121.897795, 19.252545)">
				<g id="Clip-8">
				</g>
				<defs>
					<filter id="Adobe_OpacityMaskFilter" filterUnits="userSpaceOnUse" x="0" y="0" width="11.7" height="16">
						<feColorMatrix  type="matrix" values="1 0 0 0 0  0 1 0 0 0  0 0 1 0 0  0 0 0 1 0"/>
					</filter>
				</defs>
				
					<mask maskUnits="userSpaceOnUse" x="0" y="0" width="11.7" height="16" id="mask-2_00000014611551934443279360000000839606963467697852_">
					<g class="st1">
						<polygon id="path-1_00000125563870430142664570000000469546029109663117_" class="st0" points="0,0 11.7,0 11.7,16 0,16 
													"/>
					</g>
				</mask>
				<path id="Fill-7" class="st2" d="M3.9,2.7C4,2.5,4.1,2.3,4.2,2c0.9-1.6,2.4-2.3,4.2-2c1.8,0.3,2.8,1.4,3.1,3.2
					c0.2,1,0.2,2,0.2,2.9c0,2.9,0,5.9,0,8.8c0,0.9-0.1,1-0.9,1c-0.6,0-1.3,0-1.9,0c-0.9,0-1-0.1-1-1c0-2.7,0-5.4,0-8.1
					c0-0.6,0-1.3-0.2-1.9C7.4,4.2,7.1,3.8,6.4,3.6C5.7,3.5,5.1,3.8,4.7,4.3C4.2,4.9,4.1,5.5,4,6.2C3.8,9.1,4,11.9,3.9,14.7
					c0,1.3,0,1.3-1.2,1.3c-0.6,0-1.3,0-1.9,0C0.2,16,0,15.7,0,15.2c0-4.7,0-9.4,0-14.1c0-0.5,0.2-0.8,0.8-0.8c0.7,0,1.4,0,2.2,0
					c0.6,0,0.8,0.3,0.8,0.8c0,0.5,0,1,0,1.5C3.8,2.7,3.8,2.7,3.9,2.7"/>
			</g>
			<path id="Fill-10" class="st0" d="M111.1,27.2c0,0.6,0,1.1,0,1.7c0.1,1,0.2,1.9,0.7,2.8c0.7,1.1,2.1,1.2,3,0.1
				c0.3-0.4,0.4-0.7,0.5-1.2c0.4-1.8,0.3-3.5,0.2-5.3c0-0.6-0.2-1.2-0.4-1.8c-0.3-0.9-0.9-1.3-1.9-1.3c-0.9,0-1.4,0.5-1.7,1.3
				C111,24.7,111,26,111.1,27.2 M106.8,27.5c0-1.7,0.2-3.2,0.9-4.6c1.1-2.3,2.8-3.6,5.4-3.6c2.6-0.1,4.5,1.1,5.6,3.4
				c1.5,3.1,1.5,6.3,0,9.4c-1.2,2.3-3.1,3.6-5.8,3.5c-2.6-0.1-4.3-1.5-5.3-3.9C107,30.3,106.8,28.9,106.8,27.5"/>
			<path id="Fill-12" class="st0" d="M100.1,22.7c-1.6,0-3,0-4.5,0c-0.9,0-0.9-0.1-0.9-1c0-0.5,0-1.1,0-1.6c0-0.4,0.2-0.6,0.6-0.6
				c3.1,0,6.1,0,9.2,0c0.5,0,0.6,0.3,0.7,0.7c0.1,1.3-0.2,2.3-1,3.3c-1.5,1.9-2.8,4-4.2,5.9c-0.1,0.2-0.2,0.3-0.3,0.5
				c1.2,0.1,2.3,0.1,3.3,0.4c2.4,0.7,2.9,1.3,2.5,3.8c-0.1,0.5-0.4,0.6-0.8,0.4c-3.2-1.5-6.4-1.5-9.6,0c-0.5,0.3-0.8,0.1-0.8-0.5
				c0-0.8,0-1.6,0-2.4c0-0.5,0.3-1,0.6-1.4c1.7-2.4,3.3-4.7,5-7.1C99.8,23.2,99.9,23,100.1,22.7"/>
			<path id="Fill-14" class="st0" d="M27.3,33.6c-0.4-0.1-0.8-0.3-1.3-0.4c-1.9-0.6-3.9-1.3-5.8-1.9c-0.4-0.1-0.6-0.3-0.6-0.7
				c0-3.4,0-6.7,0-10.1c0-0.4,0.1-0.6,0.6-0.4c2.2,0.7,4.5,1.3,6.8,2c0.3,0.1,0.5,0.2,0.5,0.5c0,3.6,0,7.3,0,10.9
				C27.3,33.4,27.3,33.5,27.3,33.6"/>
			<path id="Fill-16" class="st0" d="M7.8,27.9c0,1.7,0,3.4,0,5.1c0,0.5-0.1,0.6-0.6,0.4c-2.2-0.8-4.4-1.5-6.6-2.2
				C0.1,31.1,0,30.9,0,30.5c0-3.3,0-6.7,0-10C0,20,0.1,19.8,0.6,20c2.2,0.7,4.4,1.3,6.6,2c0.5,0.1,0.6,0.4,0.6,0.8
				C7.8,24.4,7.8,26.2,7.8,27.9L7.8,27.9z"/>
			<path id="Fill-18" class="st0" d="M19.6,44.2c0-1.7,0-3.4,0-5.1c0-0.5,0.2-0.7,0.6-0.8c2.2-0.6,4.3-1.3,6.5-1.9
				c0.5-0.2,0.7-0.1,0.7,0.5c0,3.3,0,6.6,0,9.9c0,0.4-0.1,0.6-0.5,0.8c-2.2,0.7-4.4,1.4-6.6,2.2c-0.6,0.2-0.7,0-0.7-0.5
				C19.6,47.6,19.6,45.9,19.6,44.2"/>
			<path id="Fill-20" class="st0" d="M37.1,11.5c0,1.7,0,3.4,0,5c0,0.5,0,0.7-0.6,0.5c-2.2-0.8-4.4-1.5-6.6-2.2
				c-0.4-0.1-0.5-0.3-0.5-0.7c0-3.3,0-6.7,0-10c0-0.6,0.2-0.6,0.7-0.5c2.2,0.7,4.4,1.3,6.6,1.9c0.5,0.1,0.6,0.4,0.6,0.8
				C37.1,8,37.1,9.8,37.1,11.5L37.1,11.5z"/>
			<path id="Fill-22" class="st0" d="M58.8,11.4c0-1.7,0-3.4,0-5c0-0.5,0.1-0.7,0.6-0.8c2.2-0.6,4.4-1.3,6.6-1.9
				c0.5-0.2,0.7-0.1,0.7,0.5c0,3.3,0,6.6,0,9.9c0,0.4-0.1,0.6-0.5,0.8c-2.2,0.7-4.4,1.4-6.6,2.2c-0.6,0.2-0.7,0.1-0.7-0.5
				C58.8,14.8,58.8,13.1,58.8,11.4"/>
			<path id="Fill-24" class="st0" d="M29.4,27.8c0-1.7,0-3.4,0-5.1c0-0.4,0.1-0.6,0.5-0.7c2.2-0.6,4.5-1.3,6.7-2
				c0.5-0.2,0.6,0,0.6,0.5c0,3.3,0,6.7,0,10c0,0.5-0.2,0.6-0.6,0.8c-2.2,0.7-4.4,1.5-6.6,2.2c-0.5,0.2-0.6,0-0.6-0.5
				C29.4,31.2,29.4,29.5,29.4,27.8"/>
			<path id="Fill-26" class="st0" d="M56.7,11.5c0,1.7,0,3.4,0,5c0,0.5-0.1,0.7-0.6,0.5c-2.2-0.8-4.5-1.5-6.7-2.2
				c-0.4-0.1-0.5-0.3-0.5-0.7c0-3.4,0-6.7,0-10.1c0-0.5,0.2-0.6,0.6-0.4c2.2,0.7,4.5,1.3,6.7,2c0.4,0.1,0.5,0.3,0.5,0.7
				C56.7,8,56.7,9.7,56.7,11.5L56.7,11.5z"/>
			<path id="Fill-28" class="st0" d="M39.2,11.4c0-1.7,0-3.4,0-5.1c0-0.4,0.2-0.6,0.5-0.7c2.2-0.6,4.4-1.3,6.6-1.9
				C46.7,3.5,47,3.4,47,4.1c0,3.3,0,6.6,0,10c0,0.4-0.2,0.6-0.6,0.8c-2.2,0.7-4.4,1.4-6.6,2.2c-0.6,0.2-0.7,0-0.7-0.5
				C39.2,14.8,39.2,13.1,39.2,11.4"/>
			<path id="Fill-30" class="st0" d="M17.5,44.2c0,1.7,0,3.4,0,5.1c0,0.5-0.1,0.7-0.6,0.5c-2.2-0.8-4.4-1.5-6.6-2.2
				c-0.4-0.1-0.5-0.3-0.5-0.7c0-3.4,0-6.7,0-10.1c0-0.5,0.2-0.6,0.6-0.4c2.2,0.7,4.4,1.3,6.6,1.9c0.5,0.1,0.6,0.3,0.6,0.8
				C17.6,40.8,17.6,42.5,17.5,44.2C17.6,44.2,17.6,44.2,17.5,44.2"/>
			<path id="Fill-32" class="st0" d="M9.8,27.8c0-1.7,0-3.4,0-5.1c0-0.4,0.1-0.6,0.5-0.8c2.2-0.6,4.4-1.3,6.6-2
				c0.4-0.1,0.6-0.1,0.6,0.4c0,3.4,0,6.8,0,10.2c0,0.4-0.2,0.5-0.5,0.7c-2.2,0.7-4.4,1.5-6.6,2.2c-0.5,0.2-0.6,0.1-0.6-0.4
				C9.8,31.3,9.8,29.5,9.8,27.8"/>
			<path id="Fill-34" class="st0" d="M46.6,43.7c-0.4,0.7-0.4,1.4-0.6,2.1c-0.3,1.1-0.6,2.2-0.9,3.3c-0.1,0.6-0.3,0.9-1,0.9
				c-0.6,0-0.9-0.3-1-0.8c-0.7-2.7-1.5-5.3-2.2-8c-0.1-0.3-0.4-0.8,0.2-1c0.7-0.3,1.4,0,1.6,0.7c0.3,1.1,0.6,2.2,0.9,3.3
				c0.2,0.7,0.4,1.5,0.7,2.2c0.3-1.2,0.7-2.4,1-3.7c0.2-0.6,0.3-1.3,0.5-1.9c0.1-0.5,0.4-0.6,0.9-0.6c0.5,0,0.8,0.2,0.9,0.6
				c0.5,1.9,1,3.7,1.6,5.6c0.3-0.1,0.3-0.4,0.3-0.7c0.5-1.6,0.9-3.2,1.4-4.9c0.1-0.5,0.4-0.7,0.9-0.7c0.7,0,0.8,0.2,0.6,0.9
				c-0.7,2.7-1.5,5.5-2.2,8.2c-0.1,0.5-0.4,0.8-1,0.8c-0.6,0-0.8-0.3-1-0.8C47.6,47.4,47.1,45.6,46.6,43.7"/>
			<path id="Fill-36" class="st0" d="M64,44.7c0,0.8,0,1.4,0.2,2c0.3,1,1.1,1.6,2,1.6c0.8,0,1.5-0.5,1.8-1.5
				c0.4-1.4,0.4-2.7-0.1-4.1c-0.3-0.7-0.7-1.3-1.6-1.4c-0.8,0-1.4,0.5-1.8,1.1C63.9,43.2,63.9,44,64,44.7 M63.6,48.5
				c-0.3,0.5-0.2,1.3-1,1c-0.7-0.2-0.4-0.8-0.4-1.3c0-3.5,0-6.9,0-10.4c0-0.9,0.7-1.3,1.5-0.9c0.3,0.1,0.3,0.4,0.3,0.7
				c0,1.1,0,2.1,0,3.4c0.7-0.8,1.4-1.1,2.2-1.2c0.8,0,1.6,0.2,2.3,0.7c1,0.8,1.4,2,1.5,3.3c0.1,1.3,0,2.6-0.6,3.8
				c-1.1,2.3-3.7,2.7-5.6,1C63.8,48.7,63.7,48.6,63.6,48.5"/>
			<path id="Fill-38" class="st0" d="M120.8,43.9c0.6,0,1.2,0,1.8,0c0.2,0,0.4,0,0.4-0.3c0.1-1.2-1.2-2.5-2.5-2.2
				c-0.9,0.2-1.8,1.3-1.8,2.2c0,0.3,0.2,0.3,0.4,0.3C119.7,43.9,120.3,43.9,120.8,43.9 M121.7,45.2c-0.9,0-1.7,0-2.6,0
				c-0.4,0-0.5,0.1-0.5,0.5c0.1,0.8,0.2,1.5,0.9,2.1c1.1,1,2.6,0.7,3.3-0.5c0.4-0.6,1-0.8,1.6-0.4c0.4,0.2,0.2,0.5,0.1,0.8
				c-1.2,2.6-5.1,3-6.9,0.7c-1.4-1.9-1.3-5.3,0.3-7.1c1.9-2.2,5.4-1.6,6.5,1.1c0.3,0.7,0.4,1.4,0.4,2.2c0,0.5-0.2,0.7-0.6,0.7
				C123.5,45.2,122.6,45.2,121.7,45.2"/>
			<path id="Fill-40" class="st0" d="M56.9,43.9c0.6,0,1.2,0,1.7,0c0.4,0,0.4-0.1,0.4-0.5c-0.1-1.2-1-2.1-2.1-2.1
				c-1,0-2.1,1.1-2.2,2.2c0,0.3,0.1,0.4,0.4,0.4C55.7,43.9,56.3,43.9,56.9,43.9 M57.7,45.2c-0.9,0-1.7,0-2.6,0
				c-0.4,0-0.5,0.1-0.4,0.5c0.1,1.1,0.4,2,1.5,2.5c1,0.4,2,0.1,2.7-0.9c0.4-0.6,1-0.7,1.6-0.4c0.3,0.2,0.2,0.4,0.2,0.6
				c-0.2,0.5-0.5,1-0.9,1.3c-1.9,1.8-5.3,1.2-6.4-1.2c-0.9-1.9-0.9-3.8,0.1-5.7c0.9-1.6,2.3-2.2,4.1-2c1.7,0.2,2.6,1.2,3.1,2.8
				c0.2,0.6,0.3,1.1,0.3,1.7c0,0.5-0.2,0.7-0.7,0.7C59.4,45.2,58.5,45.2,57.7,45.2"/>
			<path id="Fill-42" class="st0" d="M85.5,43.9c0.6,0,1.1,0,1.7,0c0.2,0,0.4,0,0.4-0.3c0.2-1.2-1.2-2.4-2.4-2.2
				c-1,0.2-1.5,0.9-1.8,1.9c-0.1,0.4-0.1,0.6,0.4,0.6C84.4,43.9,84.9,43.9,85.5,43.9 M86.3,45.2c-0.8,0-1.7,0-2.5,0
				c-0.2,0-0.4-0.1-0.5,0.3c-0.2,0.9,0.5,2.3,1.5,2.7c1,0.5,2.1,0.1,2.7-0.9c0.4-0.6,1-0.8,1.6-0.4c0.3,0.1,0.3,0.3,0.2,0.6
				c-0.2,0.5-0.5,1-0.9,1.4c-2,1.9-5.5,1.2-6.5-1.4c-0.7-1.7-0.7-3.4,0.1-5.1c0.8-1.7,2.2-2.5,4.1-2.4c1.6,0.1,2.8,1.1,3.4,2.9
				c0.6,2.1,0.5,2.3-1.7,2.3C87.2,45.2,86.7,45.2,86.3,45.2"/>
			<path id="Fill-44" class="st0" d="M76.6,49.9c-1.5,0-2.9-0.4-3.7-1.9c-0.2-0.3-0.5-0.7,0-1.1c0.6-0.4,1.2-0.2,1.5,0.3
				c0.6,1.1,2.6,1.5,3.6,0.8c0.8-0.6,0.7-1.6-0.2-2c-0.7-0.3-1.5-0.4-2.2-0.5c-0.5-0.1-0.9-0.2-1.4-0.5c-1.6-0.9-1.8-3.1-0.4-4.3
				c1.3-1.1,4.1-1.1,5.3,0.1c0.2,0.2,0.4,0.4,0.5,0.7c0.2,0.3,0.6,0.7,0,1.1c-0.5,0.3-1.2,0.2-1.5-0.2c-0.7-0.9-1.8-1.2-2.7-0.8
				c-0.5,0.2-0.7,0.5-0.7,1.1c0,0.5,0.3,0.9,0.8,1c0.9,0.2,1.8,0.4,2.7,0.6c1.1,0.3,1.8,0.9,2.1,2c0.3,1.4-0.3,2.6-1.7,3.2
				C78,49.8,77.3,49.9,76.6,49.9"/>
			<path id="Fill-46" class="st0" d="M129.8,49.9c-1.6,0-3-0.3-3.8-1.6c-0.7-1-0.4-1.4,0.7-1.5c0.3,0,0.5,0.1,0.7,0.4
				c0.6,1.2,2.3,1.6,3.5,1c0.4-0.2,0.7-0.6,0.7-1.1c0-0.5-0.3-0.8-0.7-1c-0.8-0.3-1.6-0.4-2.5-0.6c-2-0.5-2.9-1.9-2.3-3.6
				c0.1-0.2,0.2-0.4,0.3-0.6c1.3-1.8,5.2-1.6,6.3,0.3c0.2,0.3,0.6,0.7,0,1c-0.5,0.3-1.2,0.2-1.5-0.2c-0.7-0.9-1.6-1.2-2.6-0.9
				c-0.5,0.2-0.9,0.5-0.9,1.1c0,0.6,0.4,0.9,0.9,1.1c0.7,0.2,1.5,0.3,2.3,0.5c1.7,0.4,2.5,1.4,2.5,2.8c0,1.4-0.9,2.4-2.5,2.8
				C130.5,49.8,130.1,49.9,129.8,49.9"/>
			<path id="Fill-48" class="st0" d="M108.4,45c0-1.1,0.2-2.2,0.8-3.2c0.8-1.3,2.2-2,3.7-1.7c1.4,0.2,2.5,1.3,2.9,2.8
				c0.1,0.3,0.2,0.7-0.3,0.8c-0.5,0.1-1,0.3-1.3-0.3c-0.1-0.3-0.2-0.6-0.3-0.9c-0.7-1.2-2.1-1.3-2.9-0.2c-0.9,1.2-0.9,4.2,0,5.4
				c0.4,0.5,0.9,0.8,1.6,0.7c0.8-0.1,1.3-0.7,1.5-1.4c0.2-0.8,0.7-0.9,1.3-0.8c0.4,0,0.5,0.2,0.5,0.6c-0.2,1.3-1.3,2.6-2.6,3
				c-1.5,0.4-3.1-0.1-3.9-1.4C108.6,47.4,108.4,46.2,108.4,45"/>
			<path id="Fill-50" class="st0" d="M100.7,46.9c0.7-2.1,1.3-4.1,2-6.2c0.1-0.3,0.2-0.7,0.6-0.7c0.4,0,0.8-0.2,1.1,0.1
				c0.3,0.3,0,0.6-0.1,0.9c-0.9,2.7-1.8,5.4-2.6,8.1c-0.2,0.6-0.5,0.7-1.1,0.7c-0.6,0-1-0.1-1.3-0.8c-0.9-2.7-1.8-5.4-2.7-8.1
				c-0.1-0.3-0.5-0.8,0.2-1c0.8-0.3,1.5,0,1.7,0.6c0.5,1.5,1,3,1.5,4.5c0.2,0.6,0.4,1.3,0.6,1.9L100.7,46.9z"/>
			<path id="Fill-52" class="st0" d="M31.1,2.1c2.3-0.7,4.5-1.4,6.7-2.1C38,0,38.2,0,38.4,0c2.2,0.7,4.5,1.4,6.8,2.1
				c-0.6,0.3-1.2,0.4-1.8,0.6c-1.6,0.4-3.2,0.9-4.8,1.3c-0.3,0.1-0.5,0.1-0.8,0.1c-2.1-0.6-4.3-1.1-6.4-1.7
				C31.4,2.3,31.3,2.2,31.1,2.1"/>
			<g id="Group-56" transform="translate(50.786689, 0.000000)">
				<g id="Clip-55">
				</g>
				<defs>
					
						<filter id="Adobe_OpacityMaskFilter_00000118356935984842991450000003417847094453776061_" filterUnits="userSpaceOnUse" x="0" y="0" width="14.2" height="3.9">
						<feColorMatrix  type="matrix" values="1 0 0 0 0  0 1 0 0 0  0 0 1 0 0  0 0 0 1 0"/>
					</filter>
				</defs>
				
					<mask maskUnits="userSpaceOnUse" x="0" y="0" width="14.2" height="3.9" id="mask-4_00000008849973387641531360000017585017535990808231_">
					<g style="filter:url(#Adobe_OpacityMaskFilter_00000118356935984842991450000003417847094453776061_);">
						<polygon id="path-3_00000017481834452961357550000003412026350225180066_" class="st0" points="0,0 14.2,0 14.2,3.9 0,3.9 
													"/>
					</g>
				</mask>
				<path id="Fill-54" class="st4" d="M0,2.1C2.2,1.4,4.5,0.7,6.7,0C6.9,0,7,0,7.2,0c2.2,0.7,4.5,1.4,6.9,2.1
					c-1.4,0.4-2.6,0.6-3.7,1c-2.3,0.8-4.6,0.9-6.9,0C2.4,2.8,1.2,2.6,0,2.3C0,2.2,0,2.2,0,2.1"/>
			</g>
			<path id="Fill-57" class="st0" d="M11.6,34.9c2.2-0.7,4.3-1.4,6.5-2c0.3-0.1,0.6-0.1,0.8,0c2.1,0.7,4.2,1.3,6.3,2
				c0.1,0,0.2,0.1,0.4,0.2c-1.5,0.4-2.9,0.7-4.2,1.2c-2,0.7-3.9,0.7-5.9,0c-1.3-0.5-2.6-0.7-3.9-1.1C11.7,35,11.7,34.9,11.6,34.9"/>
			<path id="Fill-59" class="st0" d="M1.9,18.5c2.2-0.7,4.5-1.4,6.7-2.1c0.1,0,0.2,0,0.4,0c2.3,0.7,4.5,1.4,6.8,2.2
				c-0.4,0.1-0.8,0.2-1.2,0.3c-1.1,0.3-2.3,0.5-3.3,0.9c-1.7,0.6-3.3,0.6-5,0c-1.4-0.5-3-0.8-4.4-1.2C1.8,18.6,1.9,18.6,1.9,18.5"/>
			<path id="Fill-61" class="st0" d="M21.4,18.5c1.6-0.5,3.3-1,4.9-1.6c1.4-0.5,2.6-0.5,4,0c1.4,0.5,2.9,0.9,4.3,1.4
				c0.2,0.1,0.5,0.1,0.7,0.3c-2,0.5-4,1.1-6,1.6c-0.6,0.2-1.2,0.2-1.9,0c-2-0.6-4-1.1-6-1.6C21.4,18.6,21.4,18.6,21.4,18.5"/>
			<path id="Fill-63" class="st0" d="M92.5,41.5c0.6-0.9,1.3-1.4,2.2-1.4c0.4,0,0.9,0,0.8,0.6c0,0.5,0.2,1-0.6,1.1
				c-1.4,0.2-2.2,1.3-2.3,2.9c0,1.4,0,2.8,0,4.3c0,0.7-0.2,0.9-0.9,0.9c-0.7,0-0.9-0.3-0.9-0.9c0-2.5,0-5,0-7.5
				c0-0.5-0.2-1.1,0.7-1.1C92.3,40.4,92.4,40.4,92.5,41.5"/>
			<g id="Group-67" transform="translate(105.326683, 39.892689)">
				<g id="Clip-66">
				</g>
				<defs>
					
						<filter id="Adobe_OpacityMaskFilter_00000014604392189083982640000011657779219972617865_" filterUnits="userSpaceOnUse" x="0" y="0" width="1.9" height="10.1">
						<feColorMatrix  type="matrix" values="1 0 0 0 0  0 1 0 0 0  0 0 1 0 0  0 0 0 1 0"/>
					</filter>
				</defs>
				
					<mask maskUnits="userSpaceOnUse" x="0" y="0" width="1.9" height="10.1" id="mask-6_00000021825875335866893880000010360693961729229246_">
					<g style="filter:url(#Adobe_OpacityMaskFilter_00000014604392189083982640000011657779219972617865_);">
						<polygon id="path-5_00000101101305987510441970000007726270159258303365_" class="st0" points="0,0 1.9,0 1.9,10.1 0,10.1 
													"/>
					</g>
				</mask>
				<path id="Fill-65" class="st6" d="M1.9,5.1c0,1.4,0,2.8,0,4.2c0,0.7-0.4,0.8-1,0.8c-0.6,0-1-0.1-1-0.8c0-2.8,0-5.7,0-8.5
					C0,0,0.4,0,1,0c0.6,0,1,0.1,0.9,0.8C1.9,2.3,1.9,3.7,1.9,5.1"/>
			</g>
			<path id="Fill-68" class="st0" d="M106.3,36.5c0.6,0,1.1,0.5,1.1,1.1c0,0.6-0.5,1.2-1.1,1.1c-0.6,0-1.1-0.6-1.1-1.2
				C105.2,37,105.7,36.5,106.3,36.5"/>
		</g>
	</g>
</g>
</svg>
