<?xml version="1.0" encoding="utf-8"?>
<!-- Generator: Adobe Illustrator 25.4.1, SVG Export Plug-In . SVG Version: 6.00 Build 0)  -->
<svg version="1.1" id="Layer_1" xmlns="http://www.w3.org/2000/svg" xmlns:xlink="http://www.w3.org/1999/xlink" x="0px" y="0px"
	 viewBox="0 0 159 32" style="enable-background:new 0 0 159 32;" xml:space="preserve">
<style type="text/css">
	.st0{fill-rule:evenodd;clip-rule:evenodd;fill:#FFFFFF;}
</style>
<g id="Page-1">
	<g id="About:-Who-Trusts-Us" transform="translate(-1309.000000, -779.000000)">
		<g id="Group-39" transform="translate(1309.301776, 779.353858)">
			<path id="Fill-1" class="st0" d="M52.9,19.9c0-2.5-1.6-4-3.5-4c-2,0-3.4,1.6-3.4,4c0,2.4,1.5,3.9,3.5,3.9
				C51.6,23.8,52.9,22.1,52.9,19.9 M44.4,19.9c0-3.1,2-5.4,4.9-5.4c2.1,0,3.2,1.4,3.5,1.9h0.1v-1.6h1.6v8.3c0,0.3,0.2,0.5,0.5,0.5
				h0.5V25h-1c-0.8,0-1.5-0.6-1.5-1.5v-0.1h-0.1c-0.3,0.4-1.2,1.9-3.4,1.9C46.4,25.2,44.4,23,44.4,19.9"/>
			<path id="Fill-3" class="st0" d="M66.7,19.9c0-2.4-1.5-3.9-3.5-3.9c-2.1,0-3.4,1.8-3.4,3.9c0,2.5,1.6,4,3.5,4
				C65.3,23.8,66.7,22.2,66.7,19.9L66.7,19.9z M58.3,14.8h1.5v1.6h0.1c0.3-0.4,1.2-1.9,3.4-1.9c2.9,0,5,2.2,5,5.3
				c0,3.2-2,5.4-4.9,5.4c-2.1,0-3.2-1.3-3.5-1.9h-0.1v6.2h-1.6V14.8z"/>
			<path id="Fill-5" class="st0" d="M70.3,28.1h1.1c0.9,0,1.4-0.4,1.7-1.2l0.7-1.9h-0.4l-3.7-10.2h1.7l3,8.7h0.1l3.2-8.7h1.7
				l-5,12.8c-0.5,1.3-1.4,1.9-3.1,1.9h-1.1L70.3,28.1L70.3,28.1z"/>
			<path id="Fill-7" class="st0" d="M79.8,24.1c0-0.6,0.5-1.1,1.1-1.1s1.1,0.5,1.1,1.1s-0.5,1.1-1.1,1.1S79.8,24.7,79.8,24.1"/>
			<path id="Fill-9" class="st0" d="M86.1,16.1h-1.9v-1.3h1.9v-1.6c0-2.1,1.2-2.9,3.1-2.9h1.4v1.4h-1.4c-1.1,0-1.5,0.5-1.5,1.6v1.6
				h3v1.3h-3V25h-1.5L86.1,16.1L86.1,16.1z"/>
			<path id="Fill-11" class="st0" d="M94.2,11.8c0-0.6,0.5-1.1,1.1-1.1c0.7,0,1.1,0.5,1.1,1.1c0,0.6-0.5,1.1-1.1,1.1
				C94.7,13,94.2,12.5,94.2,11.8L94.2,11.8z M94.6,16.1h-1.9v-1.3h3.5V25h-1.5V16.1z"/>
			<path id="Fill-13" class="st0" d="M100,14.8h1.5v1.5h0.1c0.4-0.9,1.5-1.7,3.1-1.7c2.4,0,3.8,1.8,3.8,4V25H107v-6.3
				c0-1.6-1.2-2.7-2.6-2.7c-1.6,0-2.9,1.2-2.9,2.9V25H100L100,14.8L100,14.8z"/>
			<path id="Fill-15" class="st0" d="M119.7,19.9c0-2.5-1.6-4-3.5-4c-2,0-3.4,1.6-3.4,4c0,2.4,1.5,3.9,3.5,3.9
				C118.3,23.8,119.7,22.1,119.7,19.9 M111.1,19.9c0-3.1,2-5.4,4.9-5.4c2.1,0,3.2,1.4,3.5,1.9h0.1v-1.6h1.6v8.3
				c0,0.3,0.2,0.5,0.5,0.5h0.5V25h-1c-0.8,0-1.5-0.6-1.5-1.5v-0.1h-0.1c-0.3,0.4-1.2,1.9-3.4,1.9C113.2,25.2,111.1,23,111.1,19.9"/>
			<path id="Fill-17" class="st0" d="M125.1,14.8h1.5v1.5h0.1c0.4-0.9,1.5-1.7,3.1-1.7c2.4,0,3.8,1.8,3.8,4V25h-1.5v-6.3
				c0-1.6-1.2-2.7-2.6-2.7c-1.6,0-2.9,1.2-2.9,2.9V25h-1.5L125.1,14.8L125.1,14.8z"/>
			<path id="Fill-19" class="st0" d="M136.2,19.9c0-3,2.2-5.3,5.2-5.3c2.2,0,4.2,1.3,4.7,3.6l-1.5,0.4c-0.3-1.5-1.6-2.5-3.2-2.5
				c-2.2,0-3.6,1.7-3.6,3.9c0,2.3,1.5,3.9,3.7,3.9c1.6,0,2.9-1,3.2-2.5l1.5,0.4c-0.6,2.3-2.5,3.6-4.7,3.6
				C138.4,25.2,136.2,22.9,136.2,19.9"/>
			<path id="Fill-21" class="st0" d="M156.3,19.1c-0.1-2.1-1.6-3.1-3.2-3.1c-1.7,0-3.2,1.2-3.3,3.1H156.3z M148.1,19.9
				c0-3.2,2.2-5.4,4.9-5.4c3.1,0,4.8,2.2,4.8,5.2v0.6h-8.2c0,2.3,1.4,3.5,3.5,3.5c1.4,0,2.7-0.8,3.1-2.2l1.5,0.4
				c-0.6,1.9-2.2,3.2-4.6,3.2C150.1,25.2,148.1,23.1,148.1,19.9L148.1,19.9z"/>
			<polygon id="Fill-23" class="st0" points="14.7,21.6 16.6,23.3 16.6,31 16.4,30.8 10.4,26.5 			"/>
			<polygon id="Fill-25" class="st0" points="11.6,21.3 13.8,21.3 9.6,25.9 3.2,21.3 			"/>
			<path id="Fill-27" class="st0" d="M8.8,26.5H0c0.9-1.5,1.8-2.9,2.8-4.4L8.8,26.5z"/>
			<path id="Fill-29" class="st0" d="M16.6,13.2c-1.4,2.4-2.9,4.8-4.4,7.1H3.8C8.1,13.6,12.3,6.8,16.6,0V13.2z"/>
			<polygon id="Fill-31" class="st0" points="19.2,21.6 17.4,23.3 17.4,31 17.6,30.8 23.5,26.5 			"/>
			<polygon id="Fill-33" class="st0" points="22.2,21.3 20,21.3 24.2,25.9 30.6,21.3 			"/>
			<path id="Fill-35" class="st0" d="M25,26.5h8.8c-0.9-1.5-1.8-2.9-2.8-4.4L25,26.5z"/>
			<path id="Fill-37" class="st0" d="M17.5,13.2c1.4,2.4,2.9,4.8,4.4,7.1h8.4C26,13.6,21.7,6.8,17.5,0V13.2z"/>
		</g>
	</g>
</g>
</svg>
