<?xml version="1.0" encoding="utf-8"?>
<!-- Generator: Adobe Illustrator 25.4.1, SVG Export Plug-In . SVG Version: 6.00 Build 0)  -->
<svg version="1.1" id="Layer_1" xmlns="http://www.w3.org/2000/svg" xmlns:xlink="http://www.w3.org/1999/xlink" x="0px" y="0px"
	 viewBox="0 0 94 53" style="enable-background:new 0 0 94 53;" xml:space="preserve">
<style type="text/css">
	.st0{fill:#FFFFFF;}
</style>
<g>
	<path class="st0" d="M47.5,3.4C35.1,3.4,25,13.4,25,25.8c0,12.5,10.2,22.5,22.4,22.5C59.8,48.5,70,38.3,70,25.9
		C70,13.5,59.9,3.4,47.5,3.4z M45.6,33.2c-0.2,0.3-0.3,0.6-0.5,0.8c-0.8,1.1-1.9,1.7-3.3,1.8c-1,0.1-2.1,0-3.2,0c-1.1,0-2.2,0-3.3,0
		c-0.7,0-1.2-0.4-1.4-1.1c-0.1-0.3,0-0.5,0.1-0.7c0.1-0.3,0.2-0.5,0.4-0.8c1.4-2.5,2.9-5.1,4.3-7.6c2.3-4,4.6-8,6.9-12
		c0.2-0.4,0.5-0.8,0.7-1.2c0.4-0.5,1-0.6,1.5-0.5c0.2,0.1,0.4,0.2,0.6,0.4c0.1,0.2,0.3,0.4,0.4,0.6c1,1.7,2,3.5,3,5.3
		c0.6,1,0.7,2.1,0.4,3.2c-0.1,0.4-0.3,0.8-0.5,1.2c-0.9,1.7-1.9,3.3-2.8,5C47.8,29.4,46.7,31.3,45.6,33.2z M60.5,35.8
		c-0.5,0-1.1,0-1.6,0c-0.9,0-1.8,0-2.9,0c-1.1,0-2.5,0-3.9,0c-0.6,0-1-0.3-1.3-0.9c-0.1-0.3-0.2-0.6,0-1c0.1-0.3,0.2-0.6,0.4-0.8
		c1.2-2,2.4-4.1,3.6-6.1c0.1-0.2,0.3-0.5,0.5-0.7c0.6-0.7,1.5-0.7,2.1,0c0.2,0.2,0.3,0.4,0.4,0.6c1.2,2.1,2.5,4.2,3.7,6.3
		c0.1,0.2,0.2,0.4,0.3,0.6C62.1,34.7,61.6,35.8,60.5,35.8z"/>
</g>
</svg>
