<?xml version="1.0" encoding="utf-8"?>
<!-- Generator: Adobe Illustrator 25.4.1, SVG Export Plug-In . SVG Version: 6.00 Build 0)  -->
<svg version="1.1" id="Layer_1" xmlns="http://www.w3.org/2000/svg" xmlns:xlink="http://www.w3.org/1999/xlink" x="0px" y="0px"
	 viewBox="0 0 104 53" style="enable-background:new 0 0 104 53;" xml:space="preserve">
<style type="text/css">
	.st0{fill-rule:evenodd;clip-rule:evenodd;fill:#FFFFFF;}
	.st1{filter:url(#Adobe_OpacityMaskFilter);}
	.st2{mask:url(#mask-2_00000081606023393543238310000010717029844832968609_);fill-rule:evenodd;clip-rule:evenodd;fill:#FFFFFF;}
	.st3{filter:url(#Adobe_OpacityMaskFilter_00000122688054462120069840000013168066656584795264_);}
	.st4{mask:url(#mask-4_00000091008158350652314950000008931112131162417804_);fill-rule:evenodd;clip-rule:evenodd;fill:#FFFFFF;}
</style>
<g id="Page-1">
	<g id="Home" transform="translate(-1089.000000, -1669.000000)">
		<g id="aws" transform="translate(1089.840331, 1669.774096)">
			<path id="Fill-1" class="st0" d="M39.3,23.6c-2.1,0-2.1,0-2.6-2c-0.7-2.9-1.4-5.8-2.1-8.6c-0.1-0.5,0-1-0.3-1.4
				c-0.2-0.3-0.4-0.8-0.9-0.7c-0.5,0.1-0.8,0.5-0.8,1c0,1.4-0.5,2.8-0.8,4.2c-0.5,2.3-1.1,4.5-1.5,6.8c-0.1,0.6-0.4,0.8-1,0.8
				c-1,0-1.9,0-2.9,0c-0.5,0-0.7-0.2-0.8-0.6c-0.4-1.6-0.9-3.2-1.4-4.8c-0.5-1.5-0.9-3-1.3-4.5C22.3,11.5,21.4,9.3,21,7
				c-0.1-0.6-0.3-1.1-0.5-1.6c-0.2-0.4-0.1-0.7,0.4-0.8c1.1-0.2,2.1-0.1,3.2-0.1c0.4,0,0.6,0.4,0.7,0.8c0.3,1.2,0.4,2.4,0.8,3.5
				c0.4,1.4,0.7,2.9,1.1,4.4c0.3,1,0.6,2.1,0.7,3.2c0.1,0.6,0.2,1.2,1,1.2c0.6,0,0.7-0.6,0.8-1.1c0.5-2.5,1-5,1.6-7.5
				c0.3-1.1,0.4-2.3,0.7-3.5c0.2-0.6,0.3-0.9,1-0.8c0.7,0.1,1.4,0.1,2.1,0c0.8-0.1,1.1,0.1,1.2,0.8c0.7,3.1,1.4,6.3,2,9.4
				c0.1,0.5,0.4,1,0.5,1.5c0.1,0.4,0.3,0.8,0.8,0.8c0.4,0,0.6-0.5,0.7-0.9c0.4-2.2,1.1-4.4,1.5-6.6c0.3-1.4,0.7-2.8,1-4.2
				c0.2-0.7,0.5-1,1.2-1c0.9,0,1.7,0,2.6,0c0.6,0,0.8,0.3,0.6,0.8c-0.8,2-1.1,4.1-1.8,6.1c-0.4,1-0.5,2-0.8,3.1
				c-0.9,2.9-1.6,5.8-2.4,8.6c-0.1,0.5-0.3,0.7-0.9,0.7C40.2,23.6,39.7,23.6,39.3,23.6"/>
			<g id="Group-5" transform="translate(71.016946, 0.000000)">
				<g id="Clip-4">
				</g>
				<defs>
					<filter id="Adobe_OpacityMaskFilter" filterUnits="userSpaceOnUse" x="0" y="0" width="26.8" height="28.2">
						<feColorMatrix  type="matrix" values="1 0 0 0 0  0 1 0 0 0  0 0 1 0 0  0 0 0 1 0"/>
					</filter>
				</defs>
				
					<mask maskUnits="userSpaceOnUse" x="0" y="0" width="26.8" height="28.2" id="mask-2_00000081606023393543238310000010717029844832968609_">
					<g class="st1">
						<polygon id="path-1_00000013905588681673648600000013684599999061173170_" class="st0" points="0,0 26.8,0 26.8,28.2 0,28.2 
													"/>
					</g>
				</mask>
				<path id="Fill-3" class="st2" d="M18,8.8c-0.7,0.3-1.4,0.6-1.5,1.5l0,0c-1.4,0.6-2.6,1.6-3.5,2.9c-0.9,1.4-1.5,1.5-2.6,0.3
					c-0.6-0.7-1.1-1.5-1.8-2.1c-0.5-0.4-1.7-0.5-1.9-0.1c-0.3,0.7-0.9,1.2-1.5,1.7c-1.2,1.2-1,2.6,0.5,3.4c0.5,0.3,0.8,0.6,1.2,0.9
					c1.3,1.1,2,2.6,3.3,3.6C11,21.5,12,22,12.8,21c0.9-1,1.9-1.9,2.8-2.8c0.3-0.3,0.5-0.6,0.4-1l0,0c0.7,0.1,1.3-0.2,1.6-0.7
					c0.5-0.8,1.2-1.4,1.8-2.1c0.2-0.2,0.3-0.3,0-0.5c0,0,0.1-0.1,0.1-0.1c0-0.1,0-0.1,0.1-0.2c0,0,0.1,0,0.1,0
					c1.1-0.3,1.8-1.1,2.3-2c1.1-1.8-1.5-4-2.9-3.8C18.5,7.8,17.9,8,18,8.8L18,8.8z M18.3,27.1c-0.1,0-0.2,0-0.4,0.1
					c-0.1-0.2-0.1-0.5-0.3-0.3c-0.8,0.7-2,0.6-2.9,1c-1,0.5-1.9,0.4-2.8,0c-1.4-0.6-2.9-1-4.4-1.5c-0.8-0.2-1.6-0.7-2.4-0.9
					c-1.4-0.3-2.7-1.1-4.1-1.3c-0.7-0.1-1-0.4-1-1.2c0-5.7,0-11.3,0-17c0-1.2,0.8-2,2-2.3c1.4-0.3,2.8-0.8,4.2-1.3
					c1.3-0.4,2.6-0.9,4-1.3c0.8-0.3,1.6-0.5,2.3-0.9c0.7-0.3,1.3-0.4,1.9,0c1,0.7,2.3,0.5,3.3,1c1.7,0.8,3.4,1.4,5.2,1.9
					c0.9,0.3,1.8,0.8,2.9,0.9c0.7,0.1,1,0.5,1,1.3c0,5.8,0,11.6,0,17.4c0,1-0.5,1.3-1.3,1.4c-0.5,0.1-0.9,0.2-1.4,0.4
					c-1.7,0.7-3.4,1.5-5.2,2.1C18.7,26.7,18.4,26.8,18.3,27.1L18.3,27.1z"/>
			</g>
			<path id="Fill-6" class="st0" d="M14.8,16.4c0-0.3,0-0.5,0-0.8c0-1.1-0.5-1.5-1.6-1c-0.6,0.3-1.3,0.4-1.9,0.5
				c-1,0-1.8,0.3-2.7,0.8c-1.4,0.7-2.1,3-1.2,4.2c1.6,2.3,4.7,1.7,6.1,0.2C14.5,19.1,14.9,17.8,14.8,16.4 M11.8,4.1
				c1.5-0.1,3.1,0,4.6,0.7c1.5,0.8,2.4,1.9,2.6,3.6c0.1,1.3,0.3,2.5,0.1,3.8c-0.2,0.8,0.2,1.7,0.1,2.6c-0.2,2.2-0.1,4.4,0,6.6
				c0,0.3,0,0.5,0,0.8c0.2,1.5,0.2,1.5-1.4,1.5c-0.5,0-0.9,0-1.4,0c-0.7,0-1.2,0-1.4-0.8c-0.2-0.7-0.9-0.7-1.3-0.3
				c-2.3,1.9-4.9,2-7.6,1.3c-1.4-0.4-2.4-1.4-2.9-2.8c-0.4-1.4-0.5-2.8-0.2-4.2c0.5-2.2,2.1-3.2,4.2-3.7c1.7-0.3,3.5-0.6,5.2-0.9
				c1.7-0.3,2.5-1.7,2.4-2.6C14.6,8,13.4,7,11.7,7c-1.2,0-2.4,0.1-3.2,1.1C8.4,8.2,8.2,8.4,8.2,8.5C7.9,9.8,7.1,10,5.9,9.9
				c-0.5-0.1-1.1,0-1.6,0c-0.8,0-0.9-0.4-0.8-1c0.8-3.1,3.1-4.5,6.1-4.8C10.3,4,11,4.1,11.8,4.1"/>
			<path id="Fill-8" class="st0" d="M55.2,24c-1.5,0.1-3.2,0-4.7-0.9c-1.2-0.7-2.1-1.7-2.5-3c0-0.1-0.1-0.3-0.2-0.4
				c-0.6-1.4-0.5-1.5,1-1.5c1.3,0,2.6-0.3,3,1.5c0.2,0.8,0.9,1.1,1.6,1.5c1.6,0.8,4,0.4,5.1-0.9c1.2-1.5,0.7-2.9-0.8-3.8
				c-1.5-0.8-3.1-1.1-4.7-1.5c-1.9-0.5-3.8-1-4.8-2.9c-1.1-2.2,0.2-6.1,2.4-6.9c2.9-1.1,5.9-1.2,8.9,0c1.6,0.6,2.5,1.9,2.9,3.5
				c0.2,0.8,0,1.1-0.9,1.1c-0.5,0-1,0-1.6,0c-0.7,0-1.2-0.1-1.4-1c-0.2-0.9-1.1-1.3-1.9-1.5c-1.3-0.3-2.6-0.5-3.7,0.3
				c-1.4,1-1.3,2.7,0.1,3.7c1.3,0.9,2.9,1.1,4.4,1.4c1.2,0.3,2.5,0.6,3.6,1.3c1.5,0.9,2.2,2.2,2.2,3.9c0,2.1-0.6,4-2.4,5.2
				c-1,0.7-2.2,1.1-3.5,1.2C56.7,24,56,24,55.2,24"/>
			<path id="Fill-10" class="st0" d="M90.6,13.8c-0.1-0.1-0.1-0.2,0.1-0.2C90.6,13.6,90.6,13.7,90.6,13.8"/>
			<path id="Fill-12" class="st0" d="M34.1,39.6c-0.6,0-1.1,0-1.6,0c-1,0.1-1.3,0.4-1.3,1.4c0,0.6,0,1.3,0,1.9c0,0.6,0.2,0.9,0.9,1
				c1.1,0.2,2.1,0,3.2,0c1.7-0.1,2.6-1.7,1.7-3.2C36.3,39.4,35.1,39.5,34.1,39.6 M31,51.9c-0.7,0-1.5,0-2.2,0
				c-0.5-0.4-0.7-0.9-0.7-1.5c0-0.7,0-1.3,0-2c0-3.3,0-6.5,0-9.8c0-0.7,0.1-1.5,1-1.4c3.3,0.2,6.8-0.8,10,0.9
				c0.1,0.1,0.2,0.2,0.3,0.3c0,0.2,0.1,0.4,0.1,0.5c1,1.9,1,3.7-0.6,5.3c-0.3,0.3-0.4,0.8-0.1,1.1c1,1,1.2,2.2,1.2,3.5
				c0,1,0.6,2-0.1,3c-0.7,0-1.3,0-2,0c-0.5-0.2-0.9-0.6-0.9-1.3c0-0.4,0-0.9-0.1-1.3c-0.2-0.7,0.1-1.5-0.7-2c0-0.2-0.1-0.5-0.4-0.5
				c-0.2-0.5-0.7-0.5-1.1-0.5c-0.8-0.1-1.5,0-2.3,0c-0.8,0-1.2,0.3-1.2,1.2c0,0.9,0,1.9,0,2.8C31.6,50.8,31.4,51.4,31,51.9"/>
			<path id="Fill-14" class="st0" d="M93.4,44.5c0,0.6,0,1.2,0,1.7c0,0.6,0,1.2,0,1.7c0,0.6,0.3,1,0.8,1.2c1,0.5,3.7,0,4.6-0.7
				c1.7-1.4,1.7-3.3,1.4-5.3c-0.2-1.4-1-2.5-2.3-3.1c-1.2-0.5-2.4-0.4-3.7-0.3c-0.5,0.1-0.8,0.5-0.8,1
				C93.4,42.1,93.4,43.3,93.4,44.5 M102.1,49.2c0,0-0.1,0.1-0.1,0.1c-0.4,0.1-0.7,0.3-0.7,0.8c-0.2,0.1-0.3,0.2-0.4,0.4
				c-0.3-0.1-0.4,0.1-0.4,0.3c-0.1,0-0.1,0-0.1,0.1c-0.3-0.1-0.5,0.1-0.7,0.2c-0.8,0.3-1.7,0.7-2.6,0.7c-1.9,0-3.7,0-5.6,0
				c-0.8,0-1.2-0.3-1.2-1.2c0-4,0-8.1,0-12.1c0-0.8,0.3-1.2,1.1-1.1c1.8,0,3.5,0,5.3,0c1.4,0,2.7,0.4,3.9,1.2
				c0.3,0.2,0.5,0.5,0.8,0.5c0,0.1,0,0.1,0.1,0.1c0.5,0.9,1,1.8,1.4,2.8c0,0.2,0,0.3,0.1,0.5c0,0.1-0.1,0.3-0.1,0.4
				c0.2,1.1,0.1,2.2,0,3.3C103,47.3,102.4,48.2,102.1,49.2"/>
			<path id="Fill-16" class="st0" d="M75.5,44.5c0,2,0,4,0,6c0,0.8-0.2,1.3-1.1,1.3c-0.1,0-0.3,0-0.5,0.1c-1.6,0.1-1.8-0.1-1.8-1.7
				c0-3.9,0-7.7,0-11.6c0-1.2,0.3-1.5,1.5-1.5c0.2,0,0.5,0,0.7,0c0.8,0,1.1,0.4,1.1,1.1C75.5,40.3,75.5,42.4,75.5,44.5"/>
			<path id="Fill-18" class="st0" d="M15.3,44.6c0-2,0-4,0-5.9c0-1,0.3-1.3,1.4-1.3c2.6,0,5.3,0,7.9,0c1.1,0,1.4,0.3,1.5,1.3
				c0,1.1-0.2,1.3-1.4,1.3c-1.7,0-3.4,0-5.1,0c-0.8,0-1.2,0.3-1.2,1.1c0,2.2,0,2.2,2.1,2.2c1.2,0,2.5,0,3.7,0c0.9,0,1.1,0.4,1.1,1.2
				c0,0.7-0.2,1.2-1.1,1.2c-1.6,0-3.1,0-4.7,0c-0.8,0-1.2,0.3-1.2,1.2c0,2.5,0,2.5,2.5,2.5c1.4,0,2.8,0,4.2,0c1,0,1.1,0.5,1.1,1.3
				c0,0.7-0.1,1.3-1,1.3c-2.9,0-5.7,0-8.6,0c-0.8,0-1.2-0.3-1.2-1.2C15.4,48.6,15.3,46.6,15.3,44.6"/>
			<path id="Fill-20" class="st0" d="M45.7,45.8c0-1.6,0-3.2,0-4.8c0-0.8-0.4-1.1-1-1.1c-0.7,0-1.4,0-2.1,0c-1.1,0-1.2-0.2-1.2-1.2
				c0-1.1,0.3-1.5,1.3-1.5c1.5,0,2.9,0,4.4,0c1.7,0,3.4,0,5.1,0c0.9,0,1.2,0.3,1.2,1.4c0,1.1-0.1,1.3-1.1,1.3c-0.6,0-1.2,0-1.7,0
				c-1.2,0-1.5,0.3-1.5,1.5c0,3,0,6,0,9c0,1.2-0.1,1.4-1.4,1.4c-0.3,0-0.5,0-0.8,0c-0.7,0-1-0.3-1-1C45.7,49,45.7,47.4,45.7,45.8"/>
			<path id="Fill-22" class="st0" d="M54.6,44.5c0-2,0-4,0-5.9c0-1,0.2-1.2,1.2-1.2c1.9,0,2,0.1,2,2c0,3.7,0,7.3,0,11
				c0,1.2-0.2,1.4-1.4,1.4c-0.1,0-0.2,0-0.3,0c-1.4,0-1.5-0.1-1.5-1.6C54.6,48.3,54.6,46.4,54.6,44.5L54.6,44.5z"/>
			<g id="Group-26" transform="translate(0.000000, 36.965150)">
				<g id="Clip-25">
				</g>
				<defs>
					
						<filter id="Adobe_OpacityMaskFilter_00000132788223044763094890000013240841209173265563_" filterUnits="userSpaceOnUse" x="0" y="0" width="13.4" height="15">
						<feColorMatrix  type="matrix" values="1 0 0 0 0  0 1 0 0 0  0 0 1 0 0  0 0 0 1 0"/>
					</filter>
				</defs>
				
					<mask maskUnits="userSpaceOnUse" x="0" y="0" width="13.4" height="15" id="mask-4_00000091008158350652314950000008931112131162417804_">
					<g style="filter:url(#Adobe_OpacityMaskFilter_00000132788223044763094890000013240841209173265563_);">
						<polygon id="path-3_00000003102768338767893380000018019475276079482794_" class="st0" points="0,0 13.4,0 13.4,15 0,15 
													"/>
					</g>
				</mask>
				<path id="Fill-24" class="st4" d="M7.8,0c1.8,0.3,3.9,1.1,5,3.6c0.1,0.2,0.2,0.3,0.3,0.5c0.4,0.6,0.2,1-0.5,1
					c-1.1,0-2.4,0.4-2.9-1.3C9.5,2.9,7.2,2.4,6,2.8c-1.5,0.5-2.3,1.5-2.7,3C2.9,7.9,3,9.9,4.6,11.5c1.3,1.4,4.9,1.4,5.7-1.4
					c0.3-0.9,2.1-1.4,2.8-0.7c0.3,0.3,0.3,0.7,0.1,0.9c-0.7,1.2-1,2.5-2.2,3.4c-2.2,1.8-7,1.6-9.2-0.9C-0.9,9.8-0.5,4.4,2.3,1.7
					C3.7,0.5,5.3-0.1,7.8,0"/>
			</g>
			<path id="Fill-27" class="st0" d="M65,37.3c1.3,0,2.6,0,3.9,0c0.9,0,1.1,0.3,1.2,1.3c0,0.9-0.3,1.2-1.2,1.2c-1.6,0-3.1,0-4.7,0
				c-0.9,0-1.3,0.4-1.3,1.2c0,0.3,0,0.7,0,1c0,0.9,0.4,1.3,1.4,1.3c1.2,0,2.3,0,3.5,0c1,0,1.2,0.3,1.2,1.2c0,0.9-0.3,1.2-1.2,1.2
				c-1.2,0-2.4,0-3.6,0c-0.8,0-1.2,0.4-1.2,1.1c0,1.1-0.1,2.2,0.1,3.3c0.1,0.5,0.2,1.2-0.4,1.5c-0.7,0.4-1.6,0.4-2.3,0
				c-0.5-0.2-0.4-0.9-0.4-1.5c0.1-1.9,0.1-3.7,0-5.6c0-2.1,0.1-4.1-0.1-6.2c-0.1-0.7,0.4-1,1.1-1C62.4,37.3,63.7,37.3,65,37.3"/>
			<path id="Fill-29" class="st0" d="M77.6,44.5c0-1.9,0-3.8,0-5.7c0-1.3,0.2-1.5,1.5-1.4c2.1,0.1,4.1,0.1,6.2,0.1
				c0.6,0,1.1-0.1,1.7-0.1c0.8-0.1,1.2,0.3,1.2,1.1c0.1,1.1-0.1,1.4-1.1,1.4c-1.8,0-3.6,0-5.5,0c-0.8,0-1.1,0.3-1.1,1.1
				c-0.1,2.2-0.1,2.2,2.2,2.2c1.2,0,2.5,0,3.7,0c0.9,0,1.2,0.3,1.2,1.2c0,0.8-0.4,1.2-1.2,1.2c-1.6,0-3.2,0-4.7,0
				c-0.9,0-1.2,0.4-1.2,1.2c0,2.6-0.2,2.5,2.5,2.5c1.4,0,2.9,0,4.3,0c0.9,0,1.2,0.4,1.1,1.4c0,0.8-0.5,1.1-1.3,1.1
				c-2.9-0.2-5.8-0.2-8.6,0c-0.8,0-0.9-0.5-0.9-1.1C77.6,48.6,77.6,46.5,77.6,44.5"/>
		</g>
	</g>
</g>
</svg>
