<?xml version="1.0" encoding="utf-8"?>
<!-- Generator: Adobe Illustrator 25.4.1, SVG Export Plug-In . SVG Version: 6.00 Build 0)  -->
<svg version="1.1" id="Layer_1" xmlns="http://www.w3.org/2000/svg" xmlns:xlink="http://www.w3.org/1999/xlink" x="0px" y="0px"
	 viewBox="0 0 114 31" style="enable-background:new 0 0 114 31;" xml:space="preserve">
<style type="text/css">
	.st0{fill-rule:evenodd;clip-rule:evenodd;fill:#FFFFFF;}
	.st1{filter:url(#Adobe_OpacityMaskFilter);}
	.st2{mask:url(#mask-2_00000000901962208569359920000005793511331506588062_);fill-rule:evenodd;clip-rule:evenodd;fill:#FFFFFF;}
	.st3{filter:url(#Adobe_OpacityMaskFilter_00000132788634415803170010000001156549495616596158_);}
	.st4{mask:url(#mask-4_00000138564607579270615730000009878076002414490029_);fill-rule:evenodd;clip-rule:evenodd;fill:#FFFFFF;}
</style>
<g id="Page-1">
	<g id="About:-Who-Trusts-Us" transform="translate(-843.000000, -1018.000000)">
		<g id="benqi" transform="translate(843.258808, 1018.808359)">
			<path id="Fill-1" class="st0" d="M9.2,14.6c1,0,2,0,3,0c1.6-0.1,2.8-1.2,2.8-2.6c0-1.5-1.1-2.7-2.7-2.7c-2-0.1-4.1,0-6.1,0
				c-0.5,0-0.8,0.1-0.7,0.7c0,1.3,0,2.6,0,3.9c0,0.6,0.2,0.8,0.8,0.8C7.2,14.6,8.2,14.6,9.2,14.6 M9.3,19.3c-1,0-2.1,0-3.1,0
				c-0.5,0-0.8,0.1-0.8,0.7c0,1.5,0,2.9,0,4.4c0,0.5,0.1,0.7,0.7,0.7c2.2,0,4.3,0,6.5,0c1.9-0.1,3-1.3,3-2.9c0-1.6-1.3-2.8-3.1-2.8
				C11.4,19.3,10.4,19.3,9.3,19.3 M16.7,16.8c3.3,1.4,4.8,4.1,4.2,7.7c-0.5,3-3.1,5.2-6.3,5.2c-4.6,0.1-9.2,0-13.8,0
				c-0.5,0-0.7-0.1-0.7-0.7c0-7.9,0-15.8,0-23.7c0-0.7,0.3-0.8,0.8-0.7c4.4,0,8.8,0,13.3,0.1c3.7,0.1,6.2,2.5,6.5,6
				C20.8,13.3,19.6,15.2,16.7,16.8"/>
			<path id="Fill-3" class="st0" d="M52.5,13.8c0,2,0,4,0,6c0,2.9,0,5.9,0,8.8c0,0.9-0.2,1.1-1.1,1.1c-1.2-0.1-2.3,0-3.5,0
				c-0.6,0-0.9-0.1-0.9-0.8c0-7.9,0-15.7,0-23.6c0-0.6,0.2-0.8,0.8-0.8c0,0,0.1,0,0.1,0c1.5,0,3.3-0.4,4.6,0.2
				c1.2,0.6,1.9,2.3,2.8,3.5c2.9,3.9,5.8,7.9,8.7,11.8c0.4-0.3,0.2-0.7,0.2-1c0-4.5,0-9,0-13.5c0-0.8,0.2-1.1,1-1
				c1.2,0.1,2.4,0,3.6,0c0.6,0,0.8,0.1,0.8,0.7c0,7.9,0,15.8,0,23.7c0,0.5-0.1,0.8-0.7,0.7c-0.1,0-0.2,0-0.2,0
				c-1.4,0-3.1,0.4-4.2-0.2c-1.1-0.5-1.7-2.1-2.6-3.2c-3.1-4.2-6.1-8.4-9.2-12.5C52.6,13.8,52.5,13.8,52.5,13.8"/>
			<g id="Group-7" transform="translate(73.101721, 0.000000)">
				<g id="Clip-6">
				</g>
				<defs>
					<filter id="Adobe_OpacityMaskFilter" filterUnits="userSpaceOnUse" x="0" y="0" width="29.8" height="29.8">
						<feColorMatrix  type="matrix" values="1 0 0 0 0  0 1 0 0 0  0 0 1 0 0  0 0 0 1 0"/>
					</filter>
				</defs>
				
					<mask maskUnits="userSpaceOnUse" x="0" y="0" width="29.8" height="29.8" id="mask-2_00000000901962208569359920000005793511331506588062_">
					<g class="st1">
						<polygon id="path-1_00000172433706039139920100000016362201233543558585_" class="st0" points="0,0 29.8,0 29.8,29.8 0,29.8 
													"/>
					</g>
				</mask>
				<path id="Fill-5" class="st2" d="M27,23.5c-1-2.2-1.9-4.3-2.9-6.4c-0.1-0.3-0.1-0.6-0.1-0.9c0.7-4.9-2.9-9.6-7.8-10.2
					C11,5.4,6.5,9,5.9,14c-0.6,5.1,3.1,9.7,8.2,10.2c0.7,0.1,1.1,0.3,1.3,1c0.5,1.2,1,2.4,1.6,3.6c0.4,0.7,0.2,0.9-0.6,1
					c-8,0.9-15.3-4.8-16.4-12.8C-1.1,7.5,6.4-0.6,15.9,0c5.6,0.4,9.8,3.2,12.3,8.2c2.5,5,2.1,10-0.8,14.8
					C27.3,23.2,27.2,23.3,27,23.5"/>
			</g>
			<path id="Fill-8" class="st0" d="M25.1,17.2c0-3.9,0-7.7,0-11.6c0-0.7,0.2-1,1-1c5.3,0,10.6,0,15.9,0c0.9,0,1.1,0.3,1,1.1
				c-0.1,1.2,0.5,2.8-0.3,3.6c-0.7,0.7-2.3,0.2-3.5,0.2c-2.6,0-5.3,0-7.9,0c-0.7,0-0.9,0.2-0.8,0.8c0,1.2,0.1,2.3,0,3.5
				c0,0.7,0.2,0.9,0.9,0.9c3.4,0,6.8,0,10.2,0c0.8,0,1.1,0.2,1,1c-0.1,1.2,0.5,2.9-0.3,3.6c-0.7,0.6-2.3,0.2-3.5,0.2
				c-2.4,0-4.9,0.1-7.3,0c-1,0-1.2,0.3-1.1,1.2c0.1,1.2,0.1,2.3,0,3.5c-0.1,0.9,0.3,1.1,1.1,1.1c3.4,0,6.8,0,10.2,0
				c0.9,0,1.2,0.2,1.2,1.2c-0.1,1,0,2,0,3c0,0.5-0.2,0.7-0.7,0.7c-5.5,0-10.9,0-16.4,0c-0.7,0-0.8-0.3-0.8-0.9
				C25.1,25,25.1,21.1,25.1,17.2"/>
			<path id="Fill-10" class="st0" d="M106.6,21.5c0-2.5,0-5,0-7.4c0-0.7,0.2-0.9,0.9-0.9c1.7,0.1,3.3,0,5,0c0.7,0,0.8,0.2,0.8,0.8
				c0,5,0,9.9,0,14.9c0,0.8-0.3,0.9-0.9,0.9c-1.7,0-3.3,0-5,0c-0.7,0-0.8-0.2-0.8-0.8C106.6,26.4,106.6,24,106.6,21.5"/>
			<g id="Group-14" transform="translate(89.146272, 20.000921)">
				<g id="Clip-13">
				</g>
				<defs>
					
						<filter id="Adobe_OpacityMaskFilter_00000042017853815893150110000015613168858875763599_" filterUnits="userSpaceOnUse" x="0" y="0" width="10.9" height="10">
						<feColorMatrix  type="matrix" values="1 0 0 0 0  0 1 0 0 0  0 0 1 0 0  0 0 0 1 0"/>
					</filter>
				</defs>
				
					<mask maskUnits="userSpaceOnUse" x="0" y="0" width="10.9" height="10" id="mask-4_00000138564607579270615730000009878076002414490029_">
					<g style="filter:url(#Adobe_OpacityMaskFilter_00000042017853815893150110000015613168858875763599_);">
						<polygon id="path-3_00000098905916982310956310000009174232869462248336_" class="st0" points="0,0 10.9,0 10.9,10 0,10 
													"/>
					</g>
				</mask>
				<path id="Fill-12" class="st4" d="M7.5,9.7c-2.8,0.9-4-0.7-4.8-3.1C2,4.7,1.1,2.8,0.2,1C-0.2,0.2,0,0,0.8,0c1.7,0,3.3,0,5,0
					c0.6,0,1,0.2,1.2,0.8c1.2,2.7,2.4,5.4,3.6,8c0.4,0.9,0.1,1-0.7,1C9.2,9.7,8.4,9.7,7.5,9.7"/>
			</g>
			<path id="Fill-15" class="st0" d="M106.6,11.2c0-0.3-0.1-0.3-0.1-0.4c0-3.8-0.3-3.2,3-4.7c1-0.5,2.1-0.9,3.1-1.3
				c0.5-0.2,0.7-0.1,0.7,0.5c0,0,0,0.1,0,0.1c0.1,2.9,0.1,2.9-2.6,4.1C109.4,10,108.1,10.6,106.6,11.2"/>
		</g>
	</g>
</g>
</svg>
