<?xml version="1.0" encoding="utf-8"?>
<!-- Generator: Adobe Illustrator 25.4.1, SVG Export Plug-In . SVG Version: 6.00 Build 0)  -->
<svg version="1.1" id="Layer_1" xmlns="http://www.w3.org/2000/svg" xmlns:xlink="http://www.w3.org/1999/xlink" x="0px" y="0px"
	 viewBox="0 0 126 27" style="enable-background:new 0 0 126 27;" xml:space="preserve">
<style type="text/css">
	.st0{fill-rule:evenodd;clip-rule:evenodd;fill:#FFFFFF;}
	.st1{filter:url(#Adobe_OpacityMaskFilter);}
	.st2{mask:url(#mask-2_00000031191349658171520430000007438983675144875446_);fill-rule:evenodd;clip-rule:evenodd;fill:#FFFFFF;}
	.st3{filter:url(#Adobe_OpacityMaskFilter_00000018918509599143853890000017020632606835678891_);}
	.st4{mask:url(#mask-2_00000011751217702281622930000004519930468022036648_);fill-rule:evenodd;clip-rule:evenodd;fill:#FFFFFF;}
	.st5{filter:url(#Adobe_OpacityMaskFilter_00000165220138881072058790000009884914659846312365_);}
	.st6{mask:url(#mask-2_00000054259492427080511030000016468792958475114390_);fill-rule:evenodd;clip-rule:evenodd;fill:#FFFFFF;}
	.st7{filter:url(#Adobe_OpacityMaskFilter_00000109736638978087134570000010440503927948242564_);}
	.st8{mask:url(#mask-2_00000018938170143653226240000009824229121264158595_);fill-rule:evenodd;clip-rule:evenodd;fill:#FFFFFF;}
	.st9{filter:url(#Adobe_OpacityMaskFilter_00000166652014648649318370000000683829127319375792_);}
	.st10{mask:url(#mask-2_00000044864171261320772630000005487398428363162557_);fill-rule:evenodd;clip-rule:evenodd;fill:#FFFFFF;}
	.st11{filter:url(#Adobe_OpacityMaskFilter_00000170250028749157046250000012208770111834579627_);}
	.st12{mask:url(#mask-2_00000158727638734548156640000005932954582576066458_);fill-rule:evenodd;clip-rule:evenodd;fill:#FFFFFF;}
	.st13{filter:url(#Adobe_OpacityMaskFilter_00000116232151995935488570000016682041981608038287_);}
	.st14{mask:url(#mask-2_00000021810691299474459050000003476171111732522675_);fill-rule:evenodd;clip-rule:evenodd;fill:#FFFFFF;}
</style>
<g id="Page-1">
	<g id="About:-Who-Trusts-Us" transform="translate(-1081.000000, -1022.000000)">
		<g id="biconomy" transform="translate(1081.838384, 1022.853858)">
			<path id="Fill-1" class="st0" d="M5.5,12.2H3.7v5.2h1.9c2.6,0,3.7-0.8,3.7-2.5C9.3,13.1,8.1,12.2,5.5,12.2 M5.3,4.4H3.7v4.1h1.2
				c2.3,0,3.2-0.6,3.2-2.1C8.2,5.1,7.2,4.4,5.3,4.4 M5.4,20.9H0V0.8h4.1c3,0,4.3,0.2,5.5,1c1.5,0.9,2.3,2.5,2.3,4.4
				c0,1.9-0.6,2.9-2.2,3.8c2.6,1.1,3.4,2.6,3.4,5C13.1,18.6,10.6,20.9,5.4,20.9"/>
			<g id="Clip-4">
			</g>
			<defs>
				<filter id="Adobe_OpacityMaskFilter" filterUnits="userSpaceOnUse" x="14.5" y="0" width="3.7" height="20.9">
					<feColorMatrix  type="matrix" values="1 0 0 0 0  0 1 0 0 0  0 0 1 0 0  0 0 0 1 0"/>
				</filter>
			</defs>
			
				<mask maskUnits="userSpaceOnUse" x="14.5" y="0" width="3.7" height="20.9" id="mask-2_00000031191349658171520430000007438983675144875446_">
				<g class="st1">
					<polygon id="path-1_00000102529819253080673890000005075034764396629175_" class="st0" points="0,26 124.3,26 124.3,0 0,0 
											"/>
				</g>
			</mask>
			<path id="Fill-3" class="st2" d="M14.6,3.6h3.6V0h-3.6V3.6z M14.5,20.9h3.6V5.8h-3.6V20.9z"/>
			<defs>
				
					<filter id="Adobe_OpacityMaskFilter_00000075875325158711671430000002395516080404012472_" filterUnits="userSpaceOnUse" x="19.7" y="5.5" width="15.6" height="15.8">
					<feColorMatrix  type="matrix" values="1 0 0 0 0  0 1 0 0 0  0 0 1 0 0  0 0 0 1 0"/>
				</filter>
			</defs>
			
				<mask maskUnits="userSpaceOnUse" x="19.7" y="5.5" width="15.6" height="15.8" id="mask-2_00000011751217702281622930000004519930468022036648_">
				<g style="filter:url(#Adobe_OpacityMaskFilter_00000075875325158711671430000002395516080404012472_);">
					<polygon id="path-1_00000077306390479498937910000005105418503086019749_" class="st0" points="0,26 124.3,26 124.3,0 0,0 
											"/>
				</g>
			</mask>
			<path id="Fill-5" class="st4" d="M27.8,21.3c-4.5,0-8.1-3.5-8.1-7.9c0-4.5,3.5-7.9,8-7.9c3.4,0,6.4,1.9,7.6,5.4h-4.1
				c-0.7-1.4-1.9-2.1-3.5-2.1c-2.5,0-4.3,1.9-4.3,4.6c0,2.7,1.9,4.6,4.4,4.6c1.5,0,2.5-0.6,3.4-2h4.1C34.1,19.4,31.4,21.3,27.8,21.3
				"/>
			<defs>
				
					<filter id="Adobe_OpacityMaskFilter_00000173853344523399014040000014005597892430860212_" filterUnits="userSpaceOnUse" x="36.4" y="5.5" width="16.1" height="15.8">
					<feColorMatrix  type="matrix" values="1 0 0 0 0  0 1 0 0 0  0 0 1 0 0  0 0 0 1 0"/>
				</filter>
			</defs>
			
				<mask maskUnits="userSpaceOnUse" x="36.4" y="5.5" width="16.1" height="15.8" id="mask-2_00000054259492427080511030000016468792958475114390_">
				<g style="filter:url(#Adobe_OpacityMaskFilter_00000173853344523399014040000014005597892430860212_);">
					<polygon id="path-1_00000084493641491870512330000016916212695360434606_" class="st0" points="0,26 124.3,26 124.3,0 0,0 
											"/>
				</g>
			</mask>
			<path id="Fill-6" class="st6" d="M44.4,8.8c-2.4,0-4.4,2-4.4,4.5c0,2.6,1.9,4.6,4.4,4.6c2.4,0,4.4-2,4.4-4.6
				C48.8,10.9,46.8,8.8,44.4,8.8 M44.4,21.3c-4.4,0-8-3.6-8-7.9c0-4.3,3.6-7.9,8-7.9c4.6,0,8.1,3.5,8.1,8
				C52.4,17.8,48.8,21.3,44.4,21.3"/>
			<defs>
				
					<filter id="Adobe_OpacityMaskFilter_00000163053151310532218420000016768338212451245441_" filterUnits="userSpaceOnUse" x="53.9" y="5.5" width="13.4" height="15.5">
					<feColorMatrix  type="matrix" values="1 0 0 0 0  0 1 0 0 0  0 0 1 0 0  0 0 0 1 0"/>
				</filter>
			</defs>
			
				<mask maskUnits="userSpaceOnUse" x="53.9" y="5.5" width="13.4" height="15.5" id="mask-2_00000018938170143653226240000009824229121264158595_">
				<g style="filter:url(#Adobe_OpacityMaskFilter_00000163053151310532218420000016768338212451245441_);">
					<polygon id="path-1_00000026152110148374008150000017271322998641111967_" class="st0" points="0,26 124.3,26 124.3,0 0,0 
											"/>
				</g>
			</mask>
			<path id="Fill-7" class="st8" d="M63.7,20.9v-7.4c0-4-1.1-4.7-2.9-4.7c-1.1,0-2.1,0.5-2.7,1.4c-0.5,0.7-0.6,1.6-0.6,3.6v7.1h-3.6
				V5.8h3.4v1.5c1.3-1.3,2.5-1.8,4.3-1.8c2.1,0,3.7,0.8,4.7,2.2c0.8,1.2,1.1,2.5,1.1,5.2v8.1H63.7z"/>
			<defs>
				
					<filter id="Adobe_OpacityMaskFilter_00000053512605921150883080000000731262781426732199_" filterUnits="userSpaceOnUse" x="68.7" y="5.5" width="16.1" height="15.8">
					<feColorMatrix  type="matrix" values="1 0 0 0 0  0 1 0 0 0  0 0 1 0 0  0 0 0 1 0"/>
				</filter>
			</defs>
			
				<mask maskUnits="userSpaceOnUse" x="68.7" y="5.5" width="16.1" height="15.8" id="mask-2_00000044864171261320772630000005487398428363162557_">
				<g style="filter:url(#Adobe_OpacityMaskFilter_00000053512605921150883080000000731262781426732199_);">
					<polygon id="path-1_00000089532692448506795460000000568207422957711772_" class="st0" points="0,26 124.3,26 124.3,0 0,0 
											"/>
				</g>
			</mask>
			<path id="Fill-8" class="st10" d="M76.8,8.8c-2.4,0-4.4,2-4.4,4.5c0,2.6,1.9,4.6,4.4,4.6c2.4,0,4.4-2,4.4-4.6
				C81.2,10.9,79.2,8.8,76.8,8.8 M76.8,21.3c-4.4,0-8-3.6-8-7.9c0-4.3,3.6-7.9,8-7.9c4.6,0,8.1,3.5,8.1,8
				C84.8,17.8,81.2,21.3,76.8,21.3"/>
			<defs>
				
					<filter id="Adobe_OpacityMaskFilter_00000008123673480461350300000004724305732875410621_" filterUnits="userSpaceOnUse" x="86.2" y="5.5" width="22.7" height="15.5">
					<feColorMatrix  type="matrix" values="1 0 0 0 0  0 1 0 0 0  0 0 1 0 0  0 0 0 1 0"/>
				</filter>
			</defs>
			
				<mask maskUnits="userSpaceOnUse" x="86.2" y="5.5" width="22.7" height="15.5" id="mask-2_00000158727638734548156640000005932954582576066458_">
				<g style="filter:url(#Adobe_OpacityMaskFilter_00000008123673480461350300000004724305732875410621_);">
					<polygon id="path-1_00000113346719649809530810000015082778995308119971_" class="st0" points="0,26 124.3,26 124.3,0 0,0 
											"/>
				</g>
			</mask>
			<path id="Fill-9" class="st12" d="M105.3,20.9v-8.3c0-3-1.1-3.8-2.8-3.8c-2,0-3,1.1-3,4.7v7.4h-3.6v-8.3c0-3-1-3.8-2.9-3.8
				c-2.1,0-2.9,1.1-2.9,4.7v7.4h-3.6V5.8h3.3v1.4c1.1-1.3,2.1-1.8,3.9-1.8c2.1,0,3.4,0.7,4.5,2.4c1.2-1.6,2.7-2.4,4.9-2.4
				c4,0,6.1,2.2,6.1,6.7v8.7H105.3z"/>
			<defs>
				
					<filter id="Adobe_OpacityMaskFilter_00000152981712648233072500000010323709531058702469_" filterUnits="userSpaceOnUse" x="108.9" y="5.8" width="15.3" height="20.2">
					<feColorMatrix  type="matrix" values="1 0 0 0 0  0 1 0 0 0  0 0 1 0 0  0 0 0 1 0"/>
				</filter>
			</defs>
			
				<mask maskUnits="userSpaceOnUse" x="108.9" y="5.8" width="15.3" height="20.2" id="mask-2_00000021810691299474459050000003476171111732522675_">
				<g style="filter:url(#Adobe_OpacityMaskFilter_00000152981712648233072500000010323709531058702469_);">
					<polygon id="path-1_00000001640313021687273470000015979649396967523968_" class="st0" points="0,26 124.3,26 124.3,0 0,0 
											"/>
				</g>
			</mask>
			<polygon id="Fill-10" class="st14" points="115.5,26 111.6,26 114.5,19.5 108.9,5.8 113.1,5.8 116.4,15.6 120.1,5.8 124.3,5.8 
							"/>
		</g>
	</g>
</g>
</svg>
