<?xml version="1.0" encoding="utf-8"?>
<!-- Generator: Adobe Illustrator 25.4.1, SVG Export Plug-In . SVG Version: 6.00 Build 0)  -->
<svg version="1.1" id="Layer_1" xmlns="http://www.w3.org/2000/svg" xmlns:xlink="http://www.w3.org/1999/xlink" x="0px" y="0px"
	 viewBox="0 0 146 33" style="enable-background:new 0 0 146 33;" xml:space="preserve">
<style type="text/css">
	.st0{fill-rule:evenodd;clip-rule:evenodd;fill:#FFFFFF;}
	.st1{filter:url(#Adobe_OpacityMaskFilter);}
	.st2{mask:url(#mask-2_00000047042565222913629560000006791533662047660207_);fill-rule:evenodd;clip-rule:evenodd;fill:#FFFFFF;}
</style>
<g id="Page-1">
	<g id="About:-Who-Trusts-Us" transform="translate(-587.000000, -540.000000)">
		<g id="blockfi" transform="translate(587.798935, 540.162858)">
			<polygon id="Fill-1" class="st0" points="140.7,26.3 144.4,26.3 144.4,12.1 140.7,12.1 			"/>
			<polygon id="Fill-2" class="st0" points="140.7,9.1 144.4,9.1 144.4,5.2 140.7,5.2 			"/>
			<polygon id="Fill-3" class="st0" points="136.9,5.4 136.9,8.8 127.5,8.8 127.5,14.6 135.5,14.6 135.5,17.9 127.5,17.9 
				127.5,26.3 123.7,26.3 123.7,5.4 			"/>
			<polygon id="Fill-4" class="st0" points="113.5,17.7 120.3,26.3 115.8,26.3 111,20.2 109.5,21.7 109.5,26.3 105.9,26.3 
				105.9,5.3 109.5,5.3 109.5,17.1 115.1,11.3 119.5,11.3 			"/>
			<g id="Group-16">
				<path id="Fill-5" class="st0" d="M101.5,22.2l1.1,3.1c-1.7,1-3.4,1.4-5.4,1.4c-2.5,0-4.4-0.7-5.7-2.2c-1.3-1.4-2-3.5-2-6
					c0-2.5,0.7-4.5,2-5.9c1.3-1.4,3.2-2.2,5.7-2.2c0.9,0,1.6,0.1,2.3,0.2c0.6,0.1,1.3,0.3,2,0.6v3.5c-0.7-0.3-1.3-0.6-1.9-0.7
					c-0.6-0.1-1.2-0.2-2-0.2c-2.8,0-4.2,1.6-4.2,4.7c0,3.3,1.4,4.9,4.1,4.9C98.7,23.4,100.1,23,101.5,22.2"/>
				<path id="Fill-7" class="st0" d="M82.7,18.6c0-1.5-0.4-2.7-1-3.6c-0.7-0.9-1.7-1.3-3-1.3c-1.3,0-2.3,0.4-3,1.3
					c-0.7,0.9-1,2.1-1,3.6s0.4,2.7,1,3.6c0.7,0.9,1.7,1.3,3,1.3c1.3,0,2.3-0.4,3-1.3C82.4,21.3,82.7,20.1,82.7,18.6 M85.6,14.5
					c0.6,1.2,0.9,2.6,0.9,4.1s-0.3,2.9-0.9,4.2C85.1,24,84.1,25,83,25.7c-1.2,0.7-2.6,1.1-4.3,1.1c-1.7,0-3.1-0.4-4.3-1.1
					c-1.2-0.7-2.1-1.7-2.7-2.9c-0.6-1.2-0.9-2.6-0.9-4.2c0-1.5,0.3-2.9,0.9-4.1c0.6-1.2,1.5-2.2,2.7-2.9c1.2-0.7,2.6-1.1,4.3-1.1
					c1.7,0,3.1,0.4,4.3,1.1C84.1,12.2,85.1,13.2,85.6,14.5"/>
				<path id="Fill-9" class="st0" d="M68.4,23.2v3.2c-0.9,0.2-1.7,0.3-2.3,0.3c-1.5,0-2.6-0.3-3.3-1c-0.7-0.6-1-1.6-1-2.9V5.3h3.7
					v16.3c0,0.7,0.1,1.1,0.3,1.4c0.2,0.2,0.6,0.4,1.2,0.4C67.5,23.3,68,23.3,68.4,23.2"/>
				<path id="Fill-11" class="st0" d="M52.7,11.3c0-1-0.2-1.7-0.7-2.2c-0.5-0.4-1.3-0.7-2.4-0.7h-4.1v5.8h4.1
					C51.7,14.3,52.7,13.3,52.7,11.3 M52.7,22.5c0.6-0.5,0.9-1.2,0.9-2.2s-0.3-1.7-1-2.2c-0.7-0.5-1.7-0.7-3-0.7h-4.1v5.8h4.1
					C51.1,23.2,52.1,23,52.7,22.5 M56.5,17.5c0.7,0.8,1,1.8,1,3c0,1.9-0.6,3.4-1.8,4.3c-1.2,1-3.2,1.4-6,1.4h-8V5.4h8
					c2.5,0,4.3,0.5,5.4,1.4c1.1,0.9,1.6,2.3,1.6,4.2c0,1.1-0.2,2.1-0.7,2.8c-0.5,0.8-1.2,1.4-2.2,1.8C54.9,16.1,55.8,16.7,56.5,17.5
					"/>
				<g id="Group-15">
					<g id="Clip-14">
					</g>
					<defs>
						<filter id="Adobe_OpacityMaskFilter" filterUnits="userSpaceOnUse" x="0" y="0" width="32" height="32">
							<feColorMatrix  type="matrix" values="1 0 0 0 0  0 1 0 0 0  0 0 1 0 0  0 0 0 1 0"/>
						</filter>
					</defs>
					
						<mask maskUnits="userSpaceOnUse" x="0" y="0" width="32" height="32" id="mask-2_00000047042565222913629560000006791533662047660207_">
						<g class="st1">
							<polygon id="path-1_00000116226874789011079990000002504910451675363748_" class="st0" points="0,0 32,0 32,32 0,32 							
								"/>
						</g>
					</mask>
					<path id="Fill-13" class="st2" d="M23,18.3c1.3-1.3,1.3-3.4,0-4.7L18.3,9C17,7.7,15,7.7,13.7,9L9,13.7C7.7,15,7.7,17,9,18.3
						l4.7,4.7c1.3,1.3,3.4,1.3,4.7,0L23,18.3z M30.1,11.3c2.6,2.6,2.6,6.8,0,9.4l-9.4,9.4c-2.6,2.6-6.8,2.6-9.4,0l-9.4-9.4
						c-2.6-2.6-2.6-6.8,0-9.4l9.4-9.4c2.6-2.6,6.8-2.6,9.4,0L30.1,11.3z"/>
				</g>
			</g>
		</g>
	</g>
</g>
</svg>
