<?xml version="1.0" encoding="utf-8"?>
<!-- Generator: Adobe Illustrator 25.4.1, SVG Export Plug-In . SVG Version: 6.00 Build 0)  -->
<svg version="1.1" id="Layer_1" xmlns="http://www.w3.org/2000/svg" xmlns:xlink="http://www.w3.org/1999/xlink" x="0px" y="0px"
	 viewBox="0 0 79 79" style="enable-background:new 0 0 79 79;" xml:space="preserve">
<style type="text/css">
	.st0{filter:url(#Adobe_OpacityMaskFilter);}
	.st1{fill-rule:evenodd;clip-rule:evenodd;fill:#FFFFFF;}
	.st2{mask:url(#mask-2_00000005238221177071475930000013854275959433339293_);fill-rule:evenodd;clip-rule:evenodd;fill:#FFFFFF;}
</style>
<g id="Page-1">
	<g id="Home" transform="translate(-376.000000, -1656.000000)">
		<g id="cissp" transform="translate(376.643677, 1656.774096)">
			<g id="Group-3">
				<g id="Clip-2">
				</g>
				<defs>
					<filter id="Adobe_OpacityMaskFilter" filterUnits="userSpaceOnUse" x="0" y="0" width="78" height="78">
						<feColorMatrix  type="matrix" values="1 0 0 0 0  0 1 0 0 0  0 0 1 0 0  0 0 0 1 0"/>
					</filter>
				</defs>
				
					<mask maskUnits="userSpaceOnUse" x="0" y="0" width="78" height="78" id="mask-2_00000005238221177071475930000013854275959433339293_">
					<g class="st0">
						<polygon id="path-1_00000165216256130823616550000015994923421561510586_" class="st1" points="0,0 78,0 78,78 0,78 						"/>
					</g>
				</mask>
				<path id="Fill-1" class="st2" d="M68.9,57.6c1.2,0,2.2-0.9,2.2-2.2c0-1.3-0.9-2.3-2.2-2.3c-1.2,0-2.3,1-2.3,2.2
					C66.7,56.6,67.6,57.5,68.9,57.6 M26.6,52.8v17c0.6,0,1.2,0,1.8,0c0.6,0,0.7-0.2,0.7-0.7c0-5.2,0-10.4,0-15.6c0-0.2,0-0.4,0-0.7
					c-0.7,0-1.3,0-1.9,0C27,52.8,26.8,52.8,26.6,52.8 M40.3,56.6c0-0.9,0-1.6,0-2.3c0-0.3-0.2-0.6-0.4-0.8c-1.4-0.9-3-1.2-4.6-0.9
					c-1.8,0.3-3.2,1.2-3.7,3.1c-0.5,1.9-0.1,3.5,1.5,4.7c0.8,0.7,1.8,1.2,2.7,1.8c0.8,0.6,1.6,1.1,2.3,1.7c1.3,1.3,0.6,3.2-1.2,3.6
					c-1.9,0.4-3.3-0.4-4.6-1.7c-0.2-0.2-0.3-0.4-0.5-0.6c-0.1,0-0.1,0.1-0.2,0.1c0,0.8,0,1.6,0,2.4c0,0.4,0.2,0.7,0.5,0.9
					c1.1,0.7,2.4,1.1,3.7,1.2c2.7,0.3,5-1.4,5.4-4.1c0.2-1.8-0.4-3.3-1.9-4.5c-0.9-0.7-1.9-1.2-2.9-1.9c-0.6-0.4-1.2-0.8-1.8-1.3
					c-0.6-0.5-0.9-1.1-0.7-1.9c0.2-0.8,0.8-1.2,1.6-1.4c1.3-0.3,2.4,0,3.5,0.6C39.3,55.9,39.7,56.2,40.3,56.6 M42.7,65.4
					c-0.1,0-0.1,0-0.2,0.1c0,0.8,0,1.6,0,2.4c0,0.4,0.1,0.7,0.5,0.9c1.1,0.7,2.4,1.1,3.7,1.2c2,0.2,4-0.8,4.9-2.5
					c0.9-1.8,0.6-4.1-0.8-5.5c-0.7-0.7-1.6-1.3-2.5-1.9c-0.9-0.6-1.8-1.1-2.7-1.7c-0.6-0.5-1-1.2-0.8-2c0.2-0.8,0.9-1.3,1.7-1.5
					c1.6-0.4,3,0.2,4.2,1.1c0.2,0.2,0.4,0.3,0.7,0.5c0-0.9,0-1.6,0-2.3c0-0.3-0.2-0.6-0.4-0.8c-1.4-0.9-3-1.2-4.7-0.9
					c-1.8,0.3-3.2,1.2-3.7,3.1c-0.5,1.9,0,3.5,1.5,4.7c0.9,0.7,2,1.3,2.9,2c0.7,0.5,1.5,1,2,1.6c1.2,1.3,0.6,3.2-1.2,3.5
					c-1.8,0.4-3.2-0.3-4.5-1.5C43.2,65.9,42.9,65.6,42.7,65.4 M54.3,52.7v0.8c0,5.1,0,10.3,0,15.4c0,0.2,0,0.3,0,0.5
					c0.1,0.1,0.2,0.3,0.3,0.3c0.7,0,1.4,0,2.2,0v-7.3c0.4,0,0.7,0,1,0c1.1-0.1,2.3,0,3.4-0.2c2.4-0.4,3.9-2.2,3.9-4.6
					c0-2.4-1.5-4.4-3.8-4.7C59,52.7,56.7,52.8,54.3,52.7 M24.1,56.7c0-0.9,0-1.7,0-2.5c0-0.1-0.2-0.3-0.3-0.4
					c-2.7-1.1-5.5-1.7-8.4-0.9c-3.5,0.9-6,3.8-6.4,7.5c-0.4,3.5,1.4,7,4.5,8.5c3.5,1.7,7,1.3,10.4-0.3c0.1-0.1,0.3-0.2,0.3-0.3
					c0-0.8,0-1.7,0-2.6c-0.3,0.2-0.6,0.3-0.8,0.4c-2.1,1.2-4.4,1.8-6.8,1.3c-2.8-0.5-4.7-2.6-5-5.5c-0.3-2.7,1.2-5.4,3.8-6.4
					c2.4-1,4.7-0.7,7,0.3C23,56.1,23.5,56.4,24.1,56.7 M39,0c10.6,0,21.3,0.1,31.9,0C74.8,0,78,3.1,78,7.1c-0.1,21.3,0,42.5,0,63.8
					c0,4.1-3,7.1-7.1,7.1c-21.3,0-42.5,0-63.8,0C3,78,0,75,0,70.9C0,49.6,0,28.3,0,7c0-4,3-7,7-7C17.7,0,28.3,0,39,0"/>
			</g>
			<path id="Fill-4" class="st1" d="M56.8,60.1v-5c1.4,0.1,2.8-0.2,4.1,0.2c1,0.4,1.5,1.3,1.4,2.6c-0.1,1.1-0.8,2-1.9,2.1
				C59.3,60.2,58.1,60.1,56.8,60.1"/>
			<path id="Fill-6" class="st1" d="M67.8,56.6c-0.8-0.6-0.8-1.6-0.2-2.3c0.6-0.7,1.7-0.7,2.4-0.1c0.7,0.7,0.7,1.7-0.1,2.4l0,0
				c-0.2-0.3-0.4-0.7-0.5-1c0.2-0.3,0.4-0.8,0.3-1c-0.1-0.2-0.6-0.3-0.9-0.4c-0.1,0-0.3,0-0.4,0c-0.4,0-0.5,0.1-0.5,0.5
				C67.9,55.3,67.8,55.9,67.8,56.6L67.8,56.6z"/>
			<path id="Fill-8" class="st1" d="M70,56.6c-0.7,0.6-1.5,0.6-2.1,0l0,0c0.2,0,0.4,0,0.5,0c0.1-0.3,0.1-0.6,0.1-0.9
				C69.2,55.8,69.1,56.9,70,56.6L70,56.6z"/>
		</g>
	</g>
</g>
</svg>
