<?xml version="1.0" encoding="utf-8"?>
<!-- Generator: Adobe Illustrator 25.4.1, SVG Export Plug-In . SVG Version: 6.00 Build 0)  -->
<svg version="1.1" id="Layer_1" xmlns="http://www.w3.org/2000/svg" xmlns:xlink="http://www.w3.org/1999/xlink" x="0px" y="0px"
	 viewBox="0 0 131 55" style="enable-background:new 0 0 131 55;" xml:space="preserve">
<style type="text/css">
	.st0{fill:#FFFFFF;}
</style>
<path class="st0" d="M1.2,11.5c5,0.3,10,0.1,14.8,0.9c6.9,1.1,10.7,6.6,10.4,14.2c-0.2,6.8-4.7,12-11.4,12.6
	c-4.5,0.4-9.2,0.1-13.9,0.1C1.2,30.2,1.2,21.1,1.2,11.5z M6.7,34.5c2.4,0,4.7,0.2,7,0c3.7-0.4,6.4-2.6,7-6c0.4-2,0.2-4.3-0.2-6.3
	c-0.6-2.6-2.4-4.5-5.1-5c-2.8-0.5-5.7-0.5-8.7-0.7C6.7,22.7,6.7,28.6,6.7,34.5z"/>
<path class="st0" d="M75.9,37.4c0,3.1,0,6.2,0,9.6c-1.5,0-2.9,0-4.3,0c-0.3,0-0.8-0.5-0.8-0.8c0-8.5,0-16.9,0-25.4
	c0,0,0.1-0.1,0.2-0.2c1.5,0,3,0,4.6,0c0,0.7,0.1,1.5,0.1,2.4c2-2.1,4.2-3.1,6.9-2.9c0.6,0.1,1.1,0.1,1.7,0.3
	c4.9,1.4,7.5,6.8,6.1,12.4c-1.3,4.9-5.9,7.7-10.8,6.4C78.4,38.8,77.3,38,75.9,37.4z M85.8,29.8c0-3.2-2.1-5.5-5-5.5s-5,2.3-5,5.4
	c0,3.2,2.1,5.4,5.1,5.4C83.8,35.1,85.8,32.9,85.8,29.8z"/>
<path class="st0" d="M48.5,20.4c1.6,0,3.1,0,4.7,0c0.1,0.7,0.1,1.4,0.2,2.5c2-2,4.2-3.1,6.9-2.9s4.9,1.4,6.4,3.6
	c2.7,4,2.3,10.1-1,13.3c-3.2,3.2-7.8,3.3-12.2,0.2c0,1.7,0,3.3,0,4.9c0,1.6,0,3.1,0,4.8c-1.7,0-3.3,0-5,0
	C48.5,38,48.5,29.3,48.5,20.4z M63.3,29.8c0-3.2-2-5.5-5-5.5c-2.9,0-5,2.3-5,5.5c0,3.1,2.1,5.4,5.1,5.4
	C61.3,35.1,63.3,32.9,63.3,29.8z"/>
<path class="st0" d="M27.7,25.7c1.1-1.5,1.8-2.8,2.9-3.8c2.9-2.5,9-2.6,12.1-0.4c1.5,1.1,2.5,2.7,2.5,4.5c0.1,4.3,0,8.5,0,12.9
	c-1.5,0-2.9,0-4.5,0c0-0.7-0.1-1.5-0.1-2.5c-1.4,1.9-3,2.8-5.1,3c-4.8,0.6-8.2-3-7.1-7.4c0.6-2.4,2.2-3.7,4.5-4.1
	c1.9-0.3,3.9,0,5.9,0c0.5,0,1,0.2,1.5,0.3c0.4-2.3-0.3-3.6-2.1-4.2c-2.5-0.8-4.4,0.1-5.8,2.8c-0.7-0.2-1.3-0.4-2-0.5
	C29.6,26.3,28.9,26.1,27.7,25.7z M36.1,35.6c2.3,0,3.8-0.9,4.2-2.3c0.1-0.4-0.1-1.3-0.3-1.3c-1.7-0.3-3.4-0.6-5.2-0.5
	c-0.5,0-1.3,1.2-1.3,1.9c0,0.6,0.7,1.4,1.3,1.9C35.1,35.6,35.8,35.5,36.1,35.6z"/>
<path class="st0" d="M98.3,30.7c0.1,2.4,1.3,3.7,3.5,4.3c2.6,0.6,4.3-0.2,5.9-2.9c0.4,0.2,0.9,0.3,1.3,0.5c0.9,0.4,1.8,0.7,2.7,1.1
	c-0.8,3.3-3.7,5.5-7.7,5.9c-7.6,0.7-12.9-6-10.4-13.2c2-5.9,9.4-8.3,14.4-4.6c2.8,2,3.5,5,3,8.2c0,0.3-0.8,0.8-1.3,0.8
	c-3.2,0.1-6.5,0-9.7,0C99.5,30.7,99,30.7,98.3,30.7z M106.1,27.2c0-1.9-1.1-3-3.1-3.1c-2.5-0.2-4.2,1-4.6,3.1
	C101,27.2,103.6,27.2,106.1,27.2z"/>
<path class="st0" d="M129.2,27.8c-1.5,0-3,0-4.6,0c0-0.4,0-0.7,0-1.1c0-1.6-0.8-2.5-2.3-2.6s-2.6,0.8-2.7,2.4c-0.1,1.7,0,3.4,0,5.2
	c0,2.3,0,4.7,0,7.2c-1.7,0-3.3,0-5,0c0-6.2,0-12.3,0-18.5c1.7,0,3.3,0,5,0c0.1,0.6,0.1,1.1,0.1,1.3c1.2-0.6,2.4-1.5,3.7-1.7
	c1.3-0.2,2.7,0.2,3.9,0.7C129.3,22,130,24.6,129.2,27.8z"/>
</svg>
