<?xml version="1.0" encoding="utf-8"?>
<!-- Generator: Adobe Illustrator 25.4.1, SVG Export Plug-In . SVG Version: 6.00 Build 0)  -->
<svg version="1.1" id="Layer_1" xmlns="http://www.w3.org/2000/svg" xmlns:xlink="http://www.w3.org/1999/xlink" x="0px" y="0px"
	 viewBox="0 0 131 38" style="enable-background:new 0 0 131 38;" xml:space="preserve">
<style type="text/css">
	.st0{fill-rule:evenodd;clip-rule:evenodd;fill:#FFFFFF;}
</style>
<g id="Page-1">
	<g id="About:-Who-Trusts-Us" transform="translate(-592.000000, -1502.000000)">
		<g id="dtrade" transform="translate(592.982236, 1502.920154)">
			<path id="Fill-1" class="st0" d="M17.4,3.2c0,0,0.1,0.1,0.1,0.1c0,0,0,0,0,0C18,3.8,18.3,4,18.6,4.2c0.2,0.1,0.3,0.1,0.3,0.1
				c0,0,0,0,0,0c0,0,0,0,0,0v0c0-0.1,0-0.2-0.1-0.3c-0.2-0.2-0.5-0.5-1.3-0.8l0,0l0,0C17.5,3.2,17.4,3.2,17.4,3.2 M20.5,28.4
				c0.5-1.1,0.7-2.3,0.7-3.6c0-1.5-0.3-2.8-1-4.2c-0.6-1.1-1.3-2-2.1-2.9c1.6,2.6,2.5,5.4,2.5,8.5C20.6,27,20.6,27.7,20.5,28.4
				 M3.3,22.1c-0.7,1.2-1,2.6-1,4.1c0,2.2,0.6,4,1.7,5.4c-0.7-1.7-1-3.7-1-5.8C2.9,24.4,3,23.2,3.3,22.1 M6.7,16.1
				c0.8-0.4,1.7-0.8,2.7-1.1c0.9-0.2,1.7-0.4,2.7-0.6c-0.2-0.2-0.5-0.5-0.7-0.7c-0.4-0.4-0.9-0.8-1.4-1.2c-0.6-0.5-1.2-1-1.9-1.5
				c-0.2-0.1-0.3-0.3-0.5-0.4c-0.3-0.2-0.5-0.4-0.7-0.6C6.4,9.6,5.9,9.3,5.6,8.9C5,8.4,4.6,8,4.4,7.6c-0.6-0.9-1-1.8-1-2.8
				c0-1.5,0.8-2.7,2.3-3.5C7.3,0.4,9.3,0,11.8,0c2.5,0,4.7,0.4,6.5,1.1c1.9,0.8,2.8,1.8,2.8,3.2c0,0.6-0.2,1.2-0.7,1.6
				c-0.5,0.4-1,0.6-1.6,0.6C18,6.6,17,6,15.8,4.8c0,0-1.2-1.7-4.2-1.6C8.1,3.4,7.3,4.7,7.3,4.7C6.8,5.2,6.7,6.5,7.3,7.5
				c0.2,0.3,0.5,0.6,0.8,0.8c0.3,0.2,0.5,0.4,0.9,0.6C9,8.9,9.1,9,9.2,9c0.1,0.1,0.2,0.1,0.3,0.2c0,0,0,0,0,0c0,0,0,0,0,0
				c0,0,0,0,0,0l0,0c0,0,0,0,0,0h0c0.1,0.1,0.2,0.1,0.3,0.2c0.6,0.4,1.3,0.9,2.1,1.3c3.3,2,5.6,3.6,6.9,4.8c1.4,1.1,2.5,2.5,3.3,4.2
				c0.9,1.6,1.3,3.4,1.3,5.2c0,3.2-1.3,6-3.8,8.5c-0.6,0.6-1.2,1-1.8,1.5c-1.8,1.3-3.8,2-6,2.1c-0.3,0-0.7,0-1,0
				c-0.8,0-1.7-0.1-2.4-0.2c-2-0.4-3.8-1.3-5.3-2.7c-2.1-2-3.2-4.6-3.2-7.8c0-3.2,1.2-5.8,3.5-7.9C4.5,17.4,5.5,16.7,6.7,16.1 M8,18
				c1.1-1,2.5-1.7,4.3-2.1c0.3-0.1,0.7-0.1,1.1-0.2c0.3,0.3,0.6,0.5,0.8,0.8c2.8,2.9,4.2,6.2,4.2,9.9c0,2.8-0.6,5-1.8,6.6
				c-0.1,0.1-0.1,0.1-0.2,0.2c-1.2,1.5-2.7,2.2-4.5,2.2c-0.3,0-0.7,0-1-0.1c-0.6-0.1-1.1-0.3-1.7-0.6c-0.7-0.4-1.4-1-2-1.8
				c-1.3-1.7-2-4.1-2-7.1C5.2,22.3,6.1,19.7,8,18"/>
			<path id="Fill-3" class="st0" d="M41.5,25.9c1.2,0,2.2-0.4,3-1.2c0.8-0.8,1.2-1.9,1.2-3.2c0-1.3-0.4-2.4-1.2-3.2
				c-0.8-0.8-1.8-1.3-3-1.3c-1.2,0-2.2,0.4-3,1.2c-0.8,0.8-1.2,1.9-1.2,3.2c0,1.3,0.4,2.4,1.2,3.2C39.3,25.5,40.3,25.9,41.5,25.9
				 M40.7,29.3c-1.4,0-2.6-0.3-3.7-1c-1.1-0.7-2-1.6-2.6-2.8c-0.6-1.2-1-2.5-1-4c0-1.5,0.3-2.8,1-4c0.6-1.2,1.5-2.1,2.6-2.8
				c1.1-0.7,2.3-1,3.7-1c1.1,0,2.1,0.2,2.9,0.6s1.5,1,2,1.8V7.4h3.8v21.5h-3.4l-0.4-2.1c-0.5,0.7-1.1,1.2-1.9,1.7
				C43,29,42,29.3,40.7,29.3"/>
			<path id="Fill-5" class="st0" d="M60,28.9c-1.6,0-2.8-0.4-3.7-1.1c-0.9-0.8-1.4-2.1-1.4-4v-6.5h-2.5v-3.2h2.5l0.4-4h3.4v4h4v3.2
				h-4v6.5c0,0.7,0.1,1.2,0.4,1.5c0.3,0.3,0.9,0.4,1.6,0.4h1.9v3.3H60z"/>
			<path id="Fill-7" class="st0" d="M66,28.9V14.1h3.4l0.4,2.8c0.5-1,1.3-1.7,2.2-2.3c0.9-0.6,2-0.9,3.3-0.9v4h-1.1
				c-0.8,0-1.6,0.1-2.2,0.4c-0.7,0.3-1.2,0.7-1.6,1.3c-0.4,0.6-0.5,1.5-0.5,2.7v6.8H66z"/>
			<path id="Fill-9" class="st0" d="M83.9,26.3c1.1,0,1.9-0.4,2.5-1.1c0.6-0.7,1-1.6,1.2-2.7h-3.3c-1,0-1.7,0.2-2.2,0.6
				c-0.4,0.4-0.7,0.8-0.7,1.3c0,0.6,0.2,1,0.7,1.3C82.6,26.1,83.2,26.3,83.9,26.3 M83,29.3c-1.3,0-2.3-0.2-3.1-0.6
				c-0.8-0.4-1.4-1-1.8-1.6s-0.6-1.4-0.6-2.2c0-1.4,0.5-2.5,1.6-3.4c1.1-0.9,2.7-1.3,4.8-1.3h3.8v-0.4c0-1-0.3-1.8-0.9-2.2
				c-0.6-0.5-1.3-0.7-2.2-0.7c-0.8,0-1.5,0.2-2,0.6c-0.6,0.4-0.9,0.9-1.1,1.6h-3.7c0.1-1.1,0.5-2,1.1-2.8c0.6-0.8,1.5-1.4,2.5-1.8
				c1-0.4,2.1-0.7,3.4-0.7c2.1,0,3.8,0.5,5,1.6c1.2,1.1,1.8,2.6,1.8,4.5v9.1h-3.3l-0.4-2.4c-0.4,0.8-1.1,1.5-1.9,2
				C85.3,29,84.2,29.3,83,29.3"/>
			<path id="Fill-11" class="st0" d="M102.8,25.9c1.2,0,2.2-0.4,3-1.2c0.8-0.8,1.2-1.9,1.2-3.2c0-1.3-0.4-2.4-1.2-3.2
				c-0.8-0.8-1.8-1.3-3-1.3c-1.2,0-2.2,0.4-3,1.2c-0.8,0.8-1.2,1.9-1.2,3.2c0,1.3,0.4,2.4,1.2,3.2C100.6,25.5,101.6,25.9,102.8,25.9
				 M102,29.3c-1.4,0-2.6-0.3-3.7-1c-1.1-0.7-2-1.6-2.6-2.8c-0.6-1.2-1-2.5-1-4c0-1.5,0.3-2.8,1-4c0.6-1.2,1.5-2.1,2.6-2.8
				c1.1-0.7,2.3-1,3.7-1c1.1,0,2.1,0.2,2.9,0.6c0.8,0.4,1.5,1,2,1.8V7.4h3.8v21.5h-3.4l-0.4-2.1c-0.5,0.7-1.1,1.2-1.9,1.7
				C104.3,29,103.2,29.3,102,29.3"/>
			<path id="Fill-13" class="st0" d="M121.9,16.8c-0.9,0-1.8,0.3-2.5,0.8c-0.7,0.5-1.2,1.3-1.4,2.4h7.4c-0.1-1-0.4-1.8-1.1-2.3
				C123.7,17.1,122.9,16.8,121.9,16.8 M121.9,29.3c-1.5,0-2.8-0.3-4-1c-1.2-0.6-2.1-1.5-2.7-2.7c-0.7-1.2-1-2.5-1-4
				c0-1.5,0.3-2.9,1-4.1c0.7-1.2,1.6-2.1,2.7-2.8c1.2-0.7,2.5-1,4.1-1c1.5,0,2.7,0.3,3.9,1c1.1,0.6,2,1.5,2.6,2.6
				c0.6,1.1,1,2.3,1,3.7c0,0.2,0,0.4,0,0.7c0,0.2,0,0.5,0,0.7H118c0.1,1.2,0.5,2.1,1.2,2.7c0.7,0.7,1.6,1,2.7,1
				c0.8,0,1.4-0.2,1.9-0.5c0.5-0.4,0.9-0.8,1.2-1.4h3.9c-0.3,0.9-0.7,1.8-1.4,2.6c-0.6,0.8-1.4,1.4-2.4,1.8
				C124.2,29.1,123.1,29.3,121.9,29.3"/>
		</g>
	</g>
</g>
</svg>
