<?xml version="1.0" encoding="utf-8"?>
<!-- Generator: Adobe Illustrator 25.4.1, SVG Export Plug-In . SVG Version: 6.00 Build 0)  -->
<svg version="1.1" id="Layer_1" xmlns="http://www.w3.org/2000/svg" xmlns:xlink="http://www.w3.org/1999/xlink" x="0px" y="0px"
	 viewBox="0 0 112 73" style="enable-background:new 0 0 112 73;" xml:space="preserve">
<style type="text/css">
	.st0{fill:#FFFFFF;}
</style>
<g>
	<path class="st0" d="M77.7,57.8c-1.4,0.4-2,0.5-1.9-1.4c0.1-1.6-1-2.4-2.5-2.5c-2-0.3-2.8,1.1-3.6,2.5c-0.1-0.1-0.3-0.1-0.4-0.1
		C64,52.4,59.3,52.5,54.6,57c-0.8,0.8-0.9,0.1-1.1-0.3c-2.8-4.3-6.2-4.8-9.7-1c-0.8,0.8-1.1,0.9-2,0.3c-1.5-1-3.1-1.1-4.9-1.1
		c-3.1,0-5.9,1-8.5,2.9c-1-1.9-2.5-2.4-4.4-2.1c-2,0.4-2.3,1.9-2.4,3.5c-2.1-1.1-4.1-0.8-6,0.1c-1.1,0.5-2,1.3-1.6,2.8
		c0.3,1.4,1.4,1.5,2.5,1.5c20.9,0,41.7,0,62.6,0c2,0,2.8-0.8,2.5-2.8C81.4,58.6,79.8,57.3,77.7,57.8z"/>
	<path class="st0" d="M101,23.8c0-0.6-0.5-1.9-1-1.6c-0.9,0.6-2.5,0.8-2.4,2.6c0.3,1.9,0,3.8,0.1,5.8c0,0.3,0,0.4,0,0.6
		c-0.1,1.1-0.8,1.8-2,1.8c-1.3,0-1.6-0.8-1.6-1.9c0-2.3,0-4.7-0.1-6.9c0-0.9-0.3-2.1-1.3-1.9c-0.9,0.1-2.4,0.9-2.1,1.9
		c0.5,2.5,0,4.9,0.3,7.3c0.3,2.3,1.5,3.6,3.4,4c1.4,0.3,2.3-0.8,3.5-1.3c0,1-0.1,2,0,2.9c0.3,1.9-0.9,1.9-2.1,1.6
		c-1.4-0.4-2.5-1-3.5-2c-2-2-4.1-2.6-6.8-1.5c-2.1,2-2.9,4.5-2.8,7.3c0,1-0.6,0.9-1.3,0.9c-1.5,0-3,0-4.7,0c0.8,2.3,1.4,4.3,2,6.3
		c0.3,0.6-0.1,2.8,1.5,0.8c0.4-0.5,0.6,0.1,0.8,0.5c0.4,0.6,0.6,1.4,0.9,2c0.5,1.6,1.1,2.4,2.5,0.6c1.4,3.3,2.8,6.4,4.3,10.1
		c2.3-4.7,4.4-8.9,6.7-13.3c0.5,0.8,1,1.3,1.5,2c1.3-2.9,2.5-5.7,3.9-8.8c-4.5,0-8.8-0.1-13.1,0c-2,0.1-2.3-0.9-2-2.5
		c0.5-2.6,1.8-3.1,4-1.8c0.4,0.3,0.8,0.5,1.3,0.8c4.9,2.6,10.2-0.5,10.2-6c0-2,0-4.1,0-6.2C101,26.5,101,25.2,101,23.8z"/>
	<path class="st0" d="M17.6,52.7c2.4-0.5,6-5,6.2-7.5c0.1-3-1.1-4.8-4.4-6.3c-1.5-0.8-3.1-1.3-4.5-2.3c-1-0.8-1.9-1.6-1.1-2.9
		c0.6-1.1,1.9-1.1,3.1-0.9c1.4,0.4,2.4,1.1,2.1,2.9c3-2.4,3.3-2.9,2.4-4.3c-1.3-1.9-4-2.6-6.2-1.5c-1.5,0.9-2.9,2-3.8,3.6
		c-1.4,2.6-0.9,5,1.5,6.8c1.3,1,2.8,1.6,4.1,2.5c1.5,0.8,2.8,1.6,3.5,3.3c0.8,1.8,0,3.1-1.8,3.4c-3.8,0.4-7.2-3-6.8-7
		c-0.9,0.9-1.4,1.5-2,2.1c-1.1,1-1.1,2.1-0.6,3.5C10.7,51.2,14.6,53.4,17.6,52.7z"/>
	<path class="st0" d="M63.5,40.4c-1.3,2.3-0.6,4,1.9,4.9c1.1,0.4,2.4,0.6,3.5,0.9c1.1,0.4,2.3,0.8,3,1.9c0.5,0.9,0.4,1.4-0.6,1.8
		c-2.4,0.8-6.3-1.5-6.8-4c-0.9,0.3-1.4,1-2,1.6c-0.9,0.8-0.8,1.5-0.3,2.3c1.6,2.5,6.3,3.9,8.9,2.4c2-1.3,3.8-2.8,3.5-5.5
		c-0.3-2.5-1.9-3.5-4.1-4.1c-0.4-0.1-0.8-0.3-1.1-0.4c-0.8-0.3-1.5-0.5-2.3-0.9c-0.6-0.3-1.4-0.8-1-1.5c0.3-0.9,1.1-0.5,1.8-0.5
		c1.1,0.1,2.1,0.6,3.1,1.4c0.3,0.1,0.1,0.9,0.5,0.6c0.8-0.6,1.8-1.3,2.1-2.1c0.3-0.6-0.6-1.3-1.3-1.6C69.8,35.9,65.3,37.5,63.5,40.4
		z"/>
	<path class="st0" d="M53.7,46.3c1.5-1,3.3-2,4.5-3.3c2.1-2,1.4-5.2-1.3-5.8c-1.8-0.4-3.4-0.1-5,1c-2.3,1.6-3.4,3.9-4,6.4
		c-0.8,3.4,1.8,7.4,5,8c2.6,0.6,6.9-2.3,7.8-5.4c-0.8,0.4-1.3,0.8-1.8,1c-1.8,0.8-3.4,1.3-5.3,0.3C52.2,47.7,52.2,47.2,53.7,46.3z
		 M51.8,46.2c-0.4-1.5-0.8-2.8-0.6-4.3c0.1-1.1,0.6-2,1.8-2.3c1.3-0.3,2.1,0.6,2.6,1.6c0.5,0.9,0.4,1.8-0.5,2.6
		C54.2,44.7,53.2,45.7,51.8,46.2z"/>
	<path class="st0" d="M47.2,28.3c0,2.4,0.6,4.9-2,6.7c4.3,0.8,5.2,0.4,6.5-2.8c-0.9,0-1.6-0.1-2.3-0.1c0.5-3.4,0.5-6.8,3.8-9.2
		c-1-0.3-1.6-0.3-2.4-0.3c-0.9,0-1.3-0.3-1.3-1.1c0-0.9-0.3-1.9-0.4-2.8c0-0.6-0.3-1.5,0.8-1.6c0.9-0.1,1.5,0.5,1.8,1.4
		c0.1,0.4-0.5,0.9,0.3,1.4c1.1-2.1,2.1-1.5,3.3,0c1.4,1.8,1.9-0.4,2.8-0.9c1-0.5,0.5-1.4,0-2.1c-0.5-0.8-1.3-1.1-2-0.4
		c-0.4,0.4-0.8,0.9-1.4,0.9c-0.1,0.1-0.3,0.3-0.4,0.4c-0.1,0.3-0.1,0.6-0.4,0.4s0.1-0.4,0.3-0.5c0.1-0.1,0.1-0.4,0.3-0.5
		c0.1-2-0.9-2.9-2.6-2.5c-1.9,0.5-3.1,1.6-4,3.4c-1.5,2.6,0.4,6.3-2.9,8.4C47.2,25.8,47.2,25.8,47.2,28.3z"/>
	<path class="st0" d="M34.2,22.1c-0.4,0-3.1,2.3-3,2.5c1.6,2.4,0.3,5,0.6,7.5c0.1,0.8,0,1.5,0.5,2.1c0.4,0.6,0.9,1.3,1.6,0.6
		c0.9-0.8,2.8-1.9,2.3-2.5c-1.6-1.8-0.6-3.8-1-5.7c-0.1-0.5-0.1-1,0.5-1.4c0.9-0.4,1.6-1.4,2.8-0.9c1,0.5,1.3,1.5,1.3,2.6
		c0,2,0,4.1,0,6.2c0,0.8,0.4,1.5,1.1,1.8c0.6,0.3,0.9-0.5,1.3-0.8c1.1-0.8,1.6-1.4,1-3c-0.6-1.8-0.1-3.8-0.3-5.7
		c-0.3-3.5-2.8-4.8-5.7-2.8c-0.6,0.4-1.3,0.9-2,1.4C35.1,23.3,35.5,22.2,34.2,22.1z"/>
	<path class="st0" d="M61.5,25.6c-0.1,0.5,0,1,0,1.4c0,1.6,0,3.3,0,4.9c0,1.3-0.3,2.8,1.3,3.1c1.4,0.4,1.8-1.5,2.8-2
		c0.4-0.1,0.4-0.5,0-0.9c-1.3-1.3-1-2.9-1-4.4c0-2,1.3-3.6,2.6-3.4c1.9,0.4,1.8,1.9,1.8,3.4c0.1,2-0.4,4,0.3,5.9
		c0.3,0.8,0.5,1.9,1.4,1.4c1-0.6,2.8-1.3,2.1-2.6c-0.8-1.8-0.5-3.4-0.6-5c-0.1-1.9,0.4-3.9-1.8-5c-2.3-1.3-3.6,0.6-5.4,1.6
		c-0.8-0.6-0.4-2.1-1.6-1.8c-1,0.3-2,1.1-2.8,1.9C59.9,25,61.6,24.8,61.5,25.6z"/>
	<path class="st0" d="M31.8,43.7c-0.8,0.4-1.6,0.6-2.1,1.6c2.1-0.3,2.8,1.4,3.4,2.8c0.6,1.5,1.5,2.8,2.5,3.9
		c0.4,0.5,0.9,1.1,1.5,0.6c1.3-1.1,2.8-1.8,3.8-3.3c-3.9-0.1-3.6-4.4-6.4-5.7c0.8-0.6,1.4-1.1,2-1.5c1.4-0.9,1.6-2.4,1-3.6
		c-0.6-1.3-1.8-1.9-3.5-1.5c-1.8,0.4-2.8,2-4.4,2.3c0-6.8,0-13.6,0-20.2c0-0.6-0.1-1.1-0.3-1.8c-0.5-1.6-1.3-2.1-2.8-0.9
		c-1,0.8-2.6,1.3-1.1,3c0.1,0.1,0,0.5,0.1,0.8c0.5,3.1,0.1,6.4,0.3,9.6c0.1,6.9-0.6,13.8,0.1,20.7c0.1,1,0.3,2.3,1.3,2.3
		c1.5,0,2.6-1.4,3.6-2.4c1.1-1.1-0.9-0.5-1-1.3c0-0.5-0.3-1-0.3-1.6c0-1.8,0-3.5,0-5.3c0-0.8,0-1.5,0.6-2c1.1-0.5,2.5-1.1,3.3,0.1
		C34.4,41.8,33.2,42.8,31.8,43.7z"/>
	<path class="st0" d="M85.3,35.1L85.3,35.1L85.3,35.1L85.3,35.1L85.3,35.1L85.3,35.1z"/>
	<path class="st0" d="M87.7,33.1c0.5-0.5,1.4-0.8,1.1-1.5c-0.4-0.9-1.1-0.1-1.8,0c-0.4,0.1-0.6,0.3-1,0.1c-1-0.3-0.9-1.1-0.8-1.9
		c0.3-1.4-1-3.5,0.6-4.1c1.6-0.6,2.3-1.5,3-3c-0.8,0-1.4,0-1.9,0c-1.5,0.1-2.1-0.1-1.6-1.9c0.4-1.3,0.4-2.5-0.1-3.8
		c-0.3-0.4-0.3-1.1-0.9-0.8c-1,0.6-2.4,1-1.9,2.9c0.4,1.5,0.5,3-1.3,4c-0.6,0.4-1,1.4-1.6,2.4c3-0.9,2.9,0.9,2.8,2.6
		c-0.1,1.4-0.1,2.8,0,4.1c0.1,1.6,0.9,2.8,2.8,2.5C85.8,34.1,86.9,33.9,87.7,33.1z"/>
	<path class="st0" d="M41.4,39.8c1.5,1.3,0.6,2.9,0.8,4.4c0.1,1.8-0.4,3.5,0,5.3c0.3,1.1,0,2.6,1.3,3c1.1,0.4,1.6-1,2.4-1.6
		c0.5-0.4,1.6-1.1,1.1-1.4c-2-1.9-0.5-4.1-1-5.8c0-1.1,0-2,0-2.8c-0.1-1.3,0.5-3.1-0.9-3.6c-1.1-0.4-2.3,1.3-3.4,1.9
		C41.4,39.2,41,39.5,41.4,39.8z"/>
	<path class="st0" d="M21.7,15.9c1.5,0.8,3.1,0.6,4.1-0.5c1.4-1.5,2.4-1.3,3.8-0.1c1.8,1.4,3.8,1.3,4.9,0c1.4-1.4,1.5-3.6,0.3-5
		s-3.6-1.5-5.3,0.1c-1.1,1.1-1.9,1.5-3.1,0.1c-1-1.1-2.6-1.8-4.3-0.9c-1.3,0.8-2.1,1.6-2,3.4C19.8,14.3,20.5,15.3,21.7,15.9z
		 M32.1,10.9c1.4,0,2,0.6,1.9,1.9c0,1.5-0.8,2.3-2.1,2.1c-1.3-0.1-2.9-1-2.9-2.1C29.1,11.6,30.6,10.9,32.1,10.9z M23.5,10.9
		c1.5-0.1,2.9,0.9,2.9,1.9c0,1.3-1.5,2-2.9,2.1c-1.4,0.1-2.3-0.9-2.3-2.1C21.4,11.6,22,10.7,23.5,10.9z"/>
	<path class="st0" d="M58.3,29.9c0-2,0-3.9,0-5.9c0-0.8-0.1-1.5-1-1.6c-0.5-0.1-3,2.1-2.9,2.3c1.4,1.5,0.1,3.3,0.6,4.5
		c0,1.5,0,2.8,0,4.1c0,1,0.5,1.6,1.3,1.9c0.6,0.3,1-0.5,1.4-0.9c0.9-0.8,2.1-1.5,0.8-3C58,31,58.3,30.4,58.3,29.9z"/>
	<path class="st0" d="M75.1,27.8c-0.1,2-0.4,4.1,0,6.2c0.1,0.8,0.5,2,1.5,1c1-1,3.3-1.6,1.6-3.9C77.9,30.6,78,29.7,78,29
		c0-1.5,0.1-3.1,0.1-4.7c0-0.6,0.1-1.5-0.5-1.9c-0.6-0.4-1.1,0.4-1.6,0.8c-0.6,0.4-1.3,0.9-2,1.3C75.5,25.2,75.1,26.6,75.1,27.8z"/>
	<path class="st0" d="M75.9,20.6c0.4,0.3,2.6-1.9,2.6-2.3c-0.1-1.3-0.8-2.1-1.8-2c-1.1,0.3-2.3,1.1-2.5,2.3
		C74.1,19.2,75.2,20,75.9,20.6z"/>
</g>
</svg>
