<?xml version="1.0" encoding="utf-8"?>
<!-- Generator: Adobe Illustrator 25.4.1, SVG Export Plug-In . SVG Version: 6.00 Build 0)  -->
<svg version="1.1" id="Layer_1" xmlns="http://www.w3.org/2000/svg" xmlns:xlink="http://www.w3.org/1999/xlink" x="0px" y="0px"
	 viewBox="0 0 146 75" style="enable-background:new 0 0 146 75;" xml:space="preserve">
<style type="text/css">
	.st0{filter:url(#Adobe_OpacityMaskFilter);}
	.st1{fill-rule:evenodd;clip-rule:evenodd;fill:#FFFFFF;}
	.st2{mask:url(#mask-2_00000080889265724607500330000000677684729515288749_);fill-rule:evenodd;clip-rule:evenodd;fill:#FFFFFF;}
</style>
<g id="Page-1">
	<g id="About:-Who-Trusts-Us" transform="translate(-1069.000000, -1964.000000)">
		<g id="mantra" transform="translate(1069.501446, 1964.678113)">
			<g id="Group-3" transform="translate(84.711351, -0.000000)">
				<g id="Clip-2">
				</g>
				<defs>
					<filter id="Adobe_OpacityMaskFilter" filterUnits="userSpaceOnUse" x="0" y="0" width="60.6" height="74">
						<feColorMatrix  type="matrix" values="1 0 0 0 0  0 1 0 0 0  0 0 1 0 0  0 0 0 1 0"/>
					</filter>
				</defs>
				
					<mask maskUnits="userSpaceOnUse" x="0" y="0" width="60.6" height="74" id="mask-2_00000080889265724607500330000000677684729515288749_">
					<g class="st0">
						<polygon id="path-1_00000150092528548531032420000011875046365155837357_" class="st1" points="0,0 60.6,0 60.6,74 0,74 
													"/>
					</g>
				</mask>
				<path id="Fill-1" class="st2" d="M15,2.6c0.1,0,0.2-0.1,0.4-0.1c-0.1,0-0.3-0.1-0.4-0.1c-0.1,0-0.1,0-0.2,0.1
					C14.8,2.5,14.9,2.6,15,2.6L15,2.6z M0,11.1c1-4.9,5.1-6.3,9.1-7.9C11.9,2,14.8,1,17.8,0.5c0.1,0,0.2-0.3,0.3-0.5h8.3
					c1.6,1.1,3.5,0.9,5.2,1.2c14,2.7,25.8,14.7,28.2,28.6c0.2,1.2,0.1,2.4,0.8,3.5v7.9c-0.3,0.1-0.4,0.4-0.4,0.7
					c-2.6,17.2-15.4,29.6-32.5,31.6c-0.4,0-0.8,0-0.8,0.5h-0.9c-1.1-1.1-2.2-1.3-3.2,0h-1.9c-2.8-0.4-5.5-0.9-8.2-1.6
					c-1.9-0.5-3.5-1.6-5.5-1.9c-0.9-0.1-0.4-0.7-0.2-1.2c0.1-0.1,0.2-0.2,0.3-0.3c8.7,2.3,17.4,3.7,26.2,0.8
					c15.9-5.4,24.7-18.3,24-35.1C56.8,20.7,44.8,7.1,30.5,4.1c-7.2-1.5-14-0.3-20.9,1.7C6,6.9,3.5,9.9,0,11.1L0,11.1z"/>
			</g>
			<path id="Fill-4" class="st1" d="M0,29.1c1.1-0.1,1.8,0.3,2.3,1.4c1.4,3,2.9,5.9,4.5,9.2c1.6-3.2,3-6.2,4.4-9.1
				c0.4-0.8,0.7-1.7,1.8-1.3c0.9,0.3,0.5,1.2,0.5,1.8c0,4.1,0,8.2,0,12.2c0,0.6,0.6,1.7-0.8,1.7c-1.2-0.1-0.7-1-0.7-1.6
				c0-3.1,0-6.3-0.5-9.6c-1,2-2,4.1-3,6.1c-0.4,0.7-0.4,2-1.7,1.9c-1.1-0.1-1.1-1.2-1.5-1.9c-1.1-2-2-4.1-3.6-6c0,3.2-0.1,6.3,0,9.5
				c0,1.3-0.3,1.9-1.6,1.6V29.1z"/>
			<path id="Fill-6" class="st1" d="M107.4,74c1.1-1.3,2.2-1.1,3.2,0H107.4z"/>
			<path id="Fill-8" class="st1" d="M39.9,40.9c0-3.4,0-6.7,0-10.1c0-0.7-0.4-1.7,0.9-1.7c1.1,0.1,0.7,1,0.7,1.6c0,4.2,0,8.3,0,12.5
				c0,0.6,0.5,1.4-0.7,1.6c-0.9,0.1-1.2-0.4-1.6-1c-2.3-3.7-4.7-7.3-7.5-10.8c0,3.4,0,6.8,0,10.2c0,0.6,0.4,1.5-0.7,1.6
				c-1.3,0.1-0.9-1-0.9-1.6c0-4.2,0-8.3,0-12.5c0-0.5-0.3-1.3,0.5-1.6c0.8-0.2,1.2,0.2,1.6,0.9c2.3,3.7,4.8,7.3,7.2,10.9
				C39.7,41,39.8,41,39.9,40.9"/>
			<path id="Fill-10" class="st1" d="M60.6,36.5c0.6,0,0.9,0,1.3,0c2,0.1,3.1-1,3.2-2.9c0.1-1.8-1.1-2.8-2.9-2.9
				c-1.1-0.1-2.2,0-3.2,0c-0.4,0-0.9-0.1-1,0.4c-0.1,1.7-0.4,3.5,0,5C58.3,37.1,59.8,36.3,60.6,36.5 M66.7,44.7
				c-1,0.3-1.6,0.2-2-0.8c-0.7-1.6-1.6-3.1-2.4-4.7c-0.4-0.9-0.9-1.2-1.9-1.3c-2-0.2-2.8,0.4-2.5,2.5c0.2,1.1,0,2.3,0,3.5
				c0,0.6,0,1.1-0.8,1c-0.6,0-0.8-0.3-0.8-0.9c0-4.5,0-9.1,0-13.6c0-1,0.7-0.8,1.3-0.8c1.8,0,3.7-0.2,5.5-0.1c1.8,0,3.2,1,3.5,2.7
				c0.3,1.8,0.4,4-1.6,4.9c-1.7,0.7-1.2,1.4-0.6,2.5C65.1,41.3,66.2,42.8,66.7,44.7"/>
			<path id="Fill-12" class="st1" d="M123.6,37.2c0-1.1,0.1-2.2,0-3.2c-0.2-2.2-1.5-3.4-3.6-3.4c-2.3,0-3.6,1.1-3.8,3.4
				c-0.1,2.1-0.1,4.1,0,6.2c0.1,2.3,1.5,3.4,3.8,3.4c2.1,0,3.4-1.2,3.6-3.3C123.7,39.2,123.6,38.2,123.6,37.2 M114.5,37
				c0-0.9-0.1-1.8,0-2.8c0.3-3.5,1.9-5.1,5.2-5.1c3.4,0,5.3,1.6,5.5,5.1c0.1,2.3,0.3,4.6-0.2,6.9c-0.6,2.7-2.3,4-5.4,3.9
				c-2.9-0.1-4.6-1.4-5-4.1c-0.2-1.3-0.2-2.6-0.3-3.9C114.5,37,114.5,37,114.5,37"/>
			<path id="Fill-14" class="st1" d="M89.5,36.8c0,1.7,0,3.4,0,5.1c0,0.5-0.2,1.1,0.4,1.4c2.1,1.3,6.5-0.4,6.8-2.8
				c0.3-2.3,0.5-4.6,0.1-6.9c-0.4-2.5-2.2-3.4-6-3c-2.5,0.2-0.9,2.1-1.2,3.2C89.3,34.8,89.5,35.9,89.5,36.8 M87.9,36.9
				c0-2.1,0.1-4.2,0-6.2c-0.1-1.2,0.4-1.5,1.6-1.5c8.1-0.2,9.2,0.9,9.2,8.9c0,5.2-1.6,6.8-6.9,6.8c-3.8,0-3.8,0-3.8-3.8
				C87.9,39.7,87.9,38.3,87.9,36.9"/>
			<path id="Fill-16" class="st1" d="M21.8,31.5c-1.5,4.2-2.7,7.7-3.9,11.3c-0.2,0.6-0.4,1.1-0.7,1.7C17,45,16.4,44.9,16,44.8
				c-0.6-0.1-0.4-0.6-0.2-0.9c1.7-4.7,3.4-9.4,5.1-14.1c0.2-0.5,0.5-0.7,1-0.7c0.6,0,0.7,0.5,0.9,0.9c1.7,4.5,3.3,9,5,13.6
				c0.1,0.3,0.7,0.9-0.2,1.1c-0.7,0.2-1.1-0.1-1.4-0.8c-0.7-2.1-1.5-4.2-2.2-6.3C23.3,35.8,22.7,34,21.8,31.5"/>
			<path id="Fill-18" class="st1" d="M112.9,44.7c-1.3,0.5-1.7-0.1-2.1-1.2c-1.3-3.8-2.6-7.6-4-11.7c-1.6,1.9-1.5,4.2-2.3,6.1
				c-0.9,1.9-1.4,3.9-2,5.9c-0.2,0.8-0.6,1.3-1.4,1.1c-1.3-0.4-0.2-1.1-0.1-1.6c0.9-2.7,1.7-5.4,2.9-8c0.8-1.6,1.2-3.2,1.7-4.8
				c0.2-0.6,0.3-1.2,1.1-1.3c0.9-0.1,1,0.7,1.1,1.2C109.5,35.1,111.2,39.9,112.9,44.7"/>
			<path id="Fill-20" class="st1" d="M49.7,37.7c0,1.8,0.1,3.5,0,5.3c0,0.6,0.6,1.8-0.7,1.8c-1.5,0-0.8-1.2-0.8-1.9
				c-0.1-3.4-0.1-6.8,0-10.2c0.1-1.7-0.4-2.4-2.2-2.1c-0.5,0.1-1.1,0-1.6,0c-0.4,0-0.7-0.1-0.8-0.6c0-0.6,0.3-0.8,0.9-0.8
				c3,0,6,0,9,0c0.3,0,0.7,0,0.6,0.4c0,0.3-0.2,0.5-0.4,0.8c0,0.1-0.1,0.1-0.2,0.1c-6.3-0.6-3.1,4.2-3.9,6.7
				C49.6,37.4,49.7,37.6,49.7,37.7"/>
			<path id="Fill-22" class="st1" d="M76,31.3c0,0.2,0,0.6-0.1,0.6c-3.7,1.1-2.7,5-4.1,7.4c-0.8,1.4-1.1,3-1.6,4.5
				c-0.2,0.7-0.7,1.3-1.5,1c-0.9-0.4-0.2-1-0.1-1.5c1.5-4.2,3-8.4,4.6-12.5c0.3-0.7,0.2-1.9,1.5-1.6C75.8,29.5,75.5,30.6,76,31.3"/>
			<path id="Fill-24" class="st1" d="M91.6,69.4c-4.6-0.1-7.1-3.5-10-6.3c-0.4-0.3-0.9-0.8-0.9-1.6c4.3,1.6,7.7,4.7,11.2,7.6
				C91.8,69.2,91.7,69.3,91.6,69.4"/>
			<path id="Fill-26" class="st1" d="M75.9,32.8c0.7,0,0.8,0.5,1,1.1c1.2,3.2,2.4,6.5,3.6,9.7c0.1,0.4,0.6,0.9-0.1,1.2
				c-0.5,0.2-1.1,0.2-1.3-0.5c-1.2-3.5-2.4-6.9-3.6-10.4C75.3,33.4,75.2,32.9,75.9,32.8"/>
			<path id="Fill-28" class="st1" d="M84.7,11.1l-0.3,0.4c0,0-0.1-0.1-0.1-0.1C84.4,11.3,84.6,11.2,84.7,11.1
				C84.7,11.1,84.7,11.1,84.7,11.1"/>
			<path id="Fill-30" class="st1" d="M99.7,2.6c-0.1-0.1-0.2-0.1-0.2-0.2c0.1,0,0.1-0.1,0.2-0.1c0.1,0,0.3,0.1,0.4,0.1
				C99.9,2.5,99.8,2.6,99.7,2.6"/>
		</g>
	</g>
</g>
</svg>
