<?xml version="1.0" encoding="utf-8"?>
<!-- Generator: Adobe Illustrator 25.4.1, SVG Export Plug-In . SVG Version: 6.00 Build 0)  -->
<svg version="1.1" id="Layer_1" xmlns="http://www.w3.org/2000/svg" xmlns:xlink="http://www.w3.org/1999/xlink" x="0px" y="0px"
	 viewBox="0 0 85 85" style="enable-background:new 0 0 85 85;" xml:space="preserve">
<style type="text/css">
	.st0{fill-rule:evenodd;clip-rule:evenodd;fill:#FFFFFF;}
</style>
<g id="Page-1">
	<g id="About:-Who-Trusts-Us" transform="translate(-859.000000, -2199.000000)">
		<g id="nexus" transform="translate(859.897670, 2199.926348)">
			<g id="Clip-2">
			</g>
			<path id="Fill-1" class="st0" d="M55.7,29.2c-0.1,1.2,0,2.5,0,3.7c0,0.4-0.1,0.7-0.4,1c-1,0.9-1.8,1.9-2.8,2.8
				c-1.2,1-2.2,2.3-3.4,3.4c-0.2,0.2-0.5,0.4-0.9,0.4c-0.6,0-1.3,0-1.9,0c-0.7,0-1.4,0-2.1,0c-0.3,0-0.4,0-0.4-0.4
				c-0.2-1.4,0-3-0.1-4.4c0-0.2,0.1-0.4,0.3-0.5c1.9-1.8,3.7-3.7,5.6-5.5c0.2-0.1,0.2-0.2,0.3-0.4c0.4-0.5,0.8-0.8,1.5-0.8
				c1.1,0.1,2.4,0.1,3.5,0C55.4,28.4,55.7,28.6,55.7,29.2 M55.7,55.1c0,0.4-0.1,0.6-0.5,0.6c-1.4,0-2.7,0-4.1,0
				c-0.5,0-0.8-0.2-0.9-0.6c-0.2-0.5-0.6-0.5-0.9-0.7c-1.7-1.8-3.4-3.4-5.1-5.1c-0.3-0.3-0.5-0.6-0.5-1.1c0-0.6,0-1.2,0-1.9l0,0
				c0-0.7,0-1.4,0-2.1c0-0.4,0.1-0.5,0.5-0.5c1.4,0,2.7,0,4.2,0c0.7,0,0.9,0.5,1.3,0.9c1.9,1.8,3.7,3.7,5.6,5.5
				c0.4,0.4,0.5,0.7,0.5,1.2C55.6,52.6,55.7,53.8,55.7,55.1 M39.8,40.4c-1.4,0-2.7,0-4.2,0c-0.3,0-0.5-0.1-0.7-0.2
				c-1.6-1.8-3.4-3.3-5-5c-0.4-0.4-0.8-0.7-1.1-1.1c-0.4-0.3-0.5-0.6-0.5-1.1c0-1.3,0-2.6,0-3.9c0-0.5,0.2-0.6,0.6-0.6
				c0.7,0,1.4,0,2.4,0c1.5-0.5,2.7,0.5,4,1.8c1.5,1.6,3.1,3.1,4.7,4.7c0.3,0.2,0.4,0.5,0.4,0.9c0,1.4,0,2.7,0,4
				C40.3,40.2,40.2,40.4,39.8,40.4 M40.3,48.5c0,0.2-0.2,0.5-0.3,0.6c-1.5,1.4-2.9,3-4.5,4.4c-0.6,0.5-1.1,1.2-1.7,1.8
				c-0.2,0.2-0.5,0.4-0.8,0.4c-0.7,0-1.4,0-2.1,0s-1.4,0-2.1,0c-0.3,0-0.5-0.1-0.5-0.5c0-1.4,0-2.9,0-4.3c0-0.2,0.1-0.5,0.3-0.6
				c1.4-1.4,2.7-2.7,4.1-4.1c0.8-0.8,1.5-1.5,2.3-2.3c0.2-0.2,0.3-0.2,0.5-0.2c1.4,0,2.8,0,4.3,0c0.4,0,0.5,0.1,0.5,0.5
				C40.3,45.6,40.3,47,40.3,48.5 M42,16.9c-13.9,0-25.1,11.2-25.1,25.1S28.1,67.1,42,67.1S67.1,55.9,67.1,42S55.9,16.9,42,16.9"/>
		</g>
	</g>
</g>
</svg>
