<?xml version="1.0" encoding="utf-8"?>
<!-- Generator: Adobe Illustrator 25.4.1, SVG Export Plug-In . SVG Version: 6.00 Build 0)  -->
<svg version="1.1" id="Layer_1" xmlns="http://www.w3.org/2000/svg" xmlns:xlink="http://www.w3.org/1999/xlink" x="0px" y="0px"
	 viewBox="0 0 82 95" style="enable-background:new 0 0 82 95;" xml:space="preserve">
<style type="text/css">
	.st0{fill-rule:evenodd;clip-rule:evenodd;fill:#FFFFFF;}
</style>
<g id="Page-1">
	<g id="About:-Who-Trusts-Us" transform="translate(-1101.000000, -2191.000000)">
		<g id="nf42" transform="translate(1101.637574, 2191.926348)">
			<path id="Fill-1" class="st0" d="M52.3,67.3C52.3,67.2,52.3,67.2,52.3,67.3c-0.1-0.1-0.2-0.1-0.3-0.1s-0.2,0-0.3-0.1
				c-1.1-0.2-2.1-0.7-3.1-1.3c-0.8-0.6-1.6-1.4-2.1-2.2c-1.6-2.3-2.6-4.8-2.9-7.6c0-0.2-0.1-0.3-0.1-0.5c-0.1,0-0.1,0.1-0.1,0.1
				c-0.1,0.5-0.1,1-0.2,1.4c-0.4,2.1-1.2,4.1-2.3,5.8c-0.6,1-1.4,1.9-2.3,2.7c-1.2,1-2.4,1.5-3.9,1.6c0,0-0.1,0-0.1,0.1
				c0.1,0,0.1,0,0.1,0c1,0.1,2,0.4,2.9,1c1,0.6,1.8,1.4,2.4,2.2c0.9,1.1,1.5,2.3,2,3.6c0.5,1.3,1,2.7,1.1,4.1c0.1,0.3,0.1,0.7,0.1,1
				c0.1-0.5,0.1-1,0.2-1.5c0.4-2.2,1.2-4.2,2.4-6.1c0.6-1,1.4-1.8,2.3-2.6c0.9-0.7,1.9-1.2,3.1-1.4C51.7,67.3,52,67.3,52.3,67.3
				 M25.3,65c0.1-0.7,0.1-1.4,0.3-2.1c0.4-2.4,1.2-4.7,2.4-6.9c0.8-1.6,1.8-3.1,3.1-4.3c1-1,2-1.7,3.2-2.2c1.1-0.5,2.2-0.8,3.4-0.9
				c0,0-0.1,0-0.1,0s-0.1,0-0.1,0c-0.5-0.1-1-0.1-1.5-0.3c-1.6-0.4-2.9-1.2-4.1-2.2s-2.2-2.2-3-3.6c-1.2-2-2.1-4.1-2.7-6.4
				c-0.3-1.2-0.5-2.5-0.6-3.8c0-0.1,0-0.1,0-0.2c-0.1,0.7-0.1,1.4-0.3,2.1c-0.3,1.8-0.8,3.5-1.6,5.1c-0.7,1.8-1.8,3.5-3,5
				c-0.9,1.1-1.9,2-3.1,2.8c-1.2,0.7-2.4,1.2-3.7,1.4c-0.1,0-0.3,0-0.3,0.1c-0.1,0-0.3,0-0.3,0.1c0.7,0.1,1.5,0.2,2.2,0.4
				c1.5,0.5,2.8,1.3,3.9,2.3c1.2,1,2.1,2.2,2.9,3.6c1.2,1.9,2,3.9,2.5,6c0.3,1.2,0.5,2.2,0.6,3.5C25.2,64.6,25.3,64.8,25.3,65
				 M68.2,36.3L68.2,36.3c-0.2,0-0.3-0.1-0.5-0.1c-1.2-0.1-2.4-0.4-3.5-0.9c-1.7-0.7-3.1-1.8-4.5-3.1c-1.4-1.4-2.5-2.9-3.5-4.6
				c-1.6-2.7-2.7-5.6-3.3-8.7c-0.3-1.2-0.4-2.3-0.5-3.5c0-0.1,0-0.3-0.1-0.5c-0.1,1.1-0.2,2.1-0.4,3.1c-0.6,3.1-1.7,6.2-3.3,9
				c-1,1.8-2.1,3.3-3.5,4.8c-1.2,1.2-2.6,2.2-4.1,3.1c-1.2,0.6-2.6,1-3.9,1.2c-0.2,0-0.5,0.1-0.7,0.1c0.2,0,0.3,0.1,0.5,0.1
				c1.2,0.1,2.4,0.4,3.6,1c1.7,0.7,3.2,1.8,4.5,3.2c1.4,1.4,2.5,3.1,3.5,4.8c1.4,2.4,2.3,5,3,7.7c0.3,1.1,0.5,2.2,0.5,3.4
				c0,0.3,0.1,0.7,0.1,1.2c0-0.1,0-0.3,0.1-0.4c0.1-0.9,0.2-1.8,0.3-2.7c0.5-2.9,1.5-5.6,2.8-8.2c1-1.9,2.2-3.7,3.7-5.3
				c1.1-1.2,2.4-2.2,3.8-3c1.4-0.8,2.9-1.3,4.6-1.4C67.7,36.3,68,36.3,68.2,36.3"/>
			<g id="Group-5" transform="translate(34.571176, 0.000020)">
				<g id="Clip-4">
				</g>
				<path id="Fill-3" class="st0" d="M33.6,36.3c-0.3,0-0.5,0.1-0.7,0.1c-1.6,0.1-3.1,0.7-4.6,1.4c-1.4,0.8-2.7,1.8-3.8,3
					c-1.5,1.6-2.7,3.4-3.7,5.3c-1.4,2.6-2.2,5.3-2.8,8.2c-0.1,0.9-0.3,1.8-0.3,2.7c0,0.1,0,0.3-0.1,0.4c0-0.4-0.1-0.7-0.1-1.2
					c-0.1-1.2-0.3-2.2-0.5-3.4c-0.6-2.7-1.6-5.3-3-7.7c-1-1.8-2.1-3.3-3.5-4.8c-1.3-1.4-2.8-2.4-4.5-3.2c-1.2-0.5-2.3-0.8-3.6-1
					c-0.2,0-0.3,0-0.5-0.1c0.3,0.1,0.5,0.1,0.7,0.1C4,36,5.3,35.6,6.6,35c1.6-0.7,2.9-1.8,4.1-3.1c1.4-1.4,2.5-3.1,3.5-4.8
					c1.6-2.8,2.7-5.8,3.3-9c0.2-1,0.3-2.1,0.4-3.1c0,0.1,0,0.3,0.1,0.5c0.1,1.2,0.3,2.3,0.5,3.5c0.7,3.1,1.8,6,3.3,8.7
					c1,1.7,2.1,3.2,3.5,4.6c1.3,1.3,2.8,2.3,4.5,3.1c1.1,0.5,2.2,0.7,3.5,0.9C33.3,36.3,33.5,36.3,33.6,36.3L33.6,36.3"/>
			</g>
			<path id="Fill-6" class="st0" d="M25.3,65c0-0.3-0.1-0.5-0.1-0.7c-0.1-1.2-0.3-2.3-0.6-3.5c-0.5-2.1-1.4-4.1-2.5-6
				c-0.8-1.4-1.8-2.6-2.9-3.6c-1.2-1-2.4-1.8-3.9-2.3c-0.7-0.2-1.5-0.3-2.2-0.4c0.1,0,0.3,0,0.3-0.1c0.1,0,0.3,0,0.3-0.1
				c1.4-0.1,2.6-0.6,3.7-1.4c1.2-0.7,2.2-1.7,3.1-2.8c1.3-1.5,2.2-3.2,3-5c0.7-1.6,1.2-3.3,1.6-5.1c0.1-0.7,0.2-1.4,0.3-2.1
				c0,0.1,0,0.1,0,0.2c0.1,1.3,0.3,2.5,0.6,3.8c0.6,2.2,1.5,4.4,2.7,6.4c0.8,1.4,1.8,2.6,3,3.6c1.2,1,2.6,1.8,4.1,2.2
				c0.5,0.1,1,0.2,1.5,0.3c0.1,0,0.1,0,0.1,0s0.1,0,0.1,0c-1.2,0.1-2.3,0.3-3.4,0.9C33,49.9,32,50.6,31,51.6
				c-1.3,1.3-2.3,2.7-3.1,4.3c-1.2,2.2-2,4.5-2.4,6.9C25.4,63.6,25.4,64.3,25.3,65"/>
			<path id="Fill-8" class="st0" d="M52.3,67.3c-0.3,0.1-0.5,0.1-0.8,0.1c-1.2,0.2-2.2,0.7-3.1,1.4c-0.9,0.7-1.6,1.6-2.3,2.6
				c-1.2,1.9-2,3.9-2.4,6.1c-0.1,0.5-0.1,1-0.2,1.5c0-0.3-0.1-0.6-0.1-1c-0.2-1.4-0.6-2.8-1.1-4.1c-0.5-1.3-1.2-2.5-2-3.6
				c-0.7-0.9-1.5-1.6-2.4-2.2c-0.9-0.5-1.8-0.9-2.9-1h-0.1c0.1,0,0.1-0.1,0.1-0.1c1.5-0.1,2.8-0.7,3.9-1.6c1-0.7,1.7-1.6,2.3-2.7
				c1.2-1.8,1.9-3.7,2.3-5.8c0.1-0.5,0.1-1,0.2-1.4c0,0,0-0.1,0.1-0.1c0,0.2,0,0.3,0.1,0.5c0.3,2.8,1.3,5.3,2.9,7.6
				c0.6,0.8,1.3,1.6,2.1,2.2c0.9,0.7,1.9,1.2,3.1,1.3c0.1,0,0.2,0,0.3,0.1C52.1,67.2,52.2,67.2,52.3,67.3
				C52.3,67.2,52.3,67.2,52.3,67.3"/>
		</g>
	</g>
</g>
</svg>
