<?xml version="1.0" encoding="utf-8"?>
<!-- Generator: Adobe Illustrator 25.4.1, SVG Export Plug-In . SVG Version: 6.00 Build 0)  -->
<svg version="1.1" id="Layer_1" xmlns="http://www.w3.org/2000/svg" xmlns:xlink="http://www.w3.org/1999/xlink" x="0px" y="0px"
	 viewBox="0 0 82 95" style="enable-background:new 0 0 82 95;" xml:space="preserve">
<style type="text/css">
	.st0{fill:#FFFFFF;}
</style>
<g>
	<path class="st0" d="M29.5,31.6c0.1-0.6,0.4-1.1,0.4-1.6c0.1-0.4,0.2-0.5,0.6-0.5s0.9,0,1.2,0c0.2,0,0.4-0.1,0.4-0.2
		c0.2-1.2,0.6-2.6,1.2-3.7c1.1-2,2.5-3.5,4.7-4.2c1.9-0.6,3.6-0.4,5.3,0.4c1,0.4,1.9,1,2.8,1.5c-0.7,1.6-1.5,3.1-2.2,4.5
		c-0.6-0.1-1.1-0.4-1.7-0.5c-1-0.2-1.7,0.1-2.1,1.1c-0.2,0.4-0.4,0.9-0.5,1.4c1.1,0,2.1-0.2,2.8,0.6c0.1,0,0.1,0,0.1,0
		c0.2-0.6,0.2-0.6,0.9-0.6c0.4,0,0.6,0,1,0c0.2,0,0.4,0,0.4-0.2c0.5-2.1,1.1-4.2,1.6-6.2c0.1-0.4,0.2-0.5,0.6-0.4c1.6,0,3.2,0,4.8,0
		c0.2,0,0.6,0.1,0.9,0.2c0.4,0.2,0.9,0.5,1.2,0.7c-0.5,2-1,4-1.5,5.9c0.9-0.1,1.7,0,2.4,0.6c0.1,0,0.1,0,0.1-0.1
		c0.2-0.6,0.2-0.6,0.9-0.6c0.4,0,0.7,0,1.1,0c0.2,0,0.2,0,0.4-0.2c0.2-1,0.5-2,1-3c1.5-2.8,3.7-4.6,6.9-5.2c2.2-0.4,4.3,0,6.2,1.2
		c1.1,0.7,2.2,1.5,3.3,2.2c-1.1,1.6-2.2,3-3.5,4.6c-0.6-0.5-1.5-0.7-2-1.5c-0.2-0.2-0.5-0.4-0.9-0.5c-0.7-0.1-1.5-0.2-2.2,0.1
		c-0.7,0.5-1.2,1.2-1.5,2.2c0.1,0,0.2,0,0.4,0c2.1,0,4.2,0,6.3,0c0.2,0,0.4,0.1,0.6,0.1c0.4,0.2,0.7,0.5,1.1,0.6
		c0.2,0.1,0.2,0.2,0.2,0.5c-1,3.6-1.9,7.2-2.8,10.9c-0.4,1.7-0.9,3.3-1.2,5.1c-0.1,0.2-0.1,0.4-0.4,0.4c-1.7,0-3.5,0-5.2,0
		c-0.1,0-0.2,0-0.4-0.1c-0.4-0.2-0.7-0.5-1.1-0.7c-0.5-0.2-0.6-0.4-0.5-0.6c0.9-3.3,1.7-6.8,2.6-10.2c0-0.1,0-0.2,0.1-0.4
		c-0.5,0-0.9,0-1.4,0c-0.2,0.9-0.4,1.7-0.6,2.6c-0.7,3-1.5,6.1-2.4,9c-0.1,0.2-0.1,0.4-0.4,0.4c-1.7,0-3.5,0-5.1,0
		c-0.1,0-0.4,0-0.5-0.1c-0.4-0.2-0.7-0.5-1.1-0.7c-0.2-0.1-0.2-0.2-0.1-0.5c0.9-3.5,1.7-6.8,2.6-10.3c0-0.1,0-0.2,0.1-0.4
		c-0.4-0.2-0.7-0.5-1.1-0.7h-0.1c-0.1,0.6-0.1,0.6-0.7,0.6c-0.7,0-1.6,0-2.4,0c-0.1,0-0.2,0.1-0.2,0.1c-0.5,1.7-0.9,3.6-1.4,5.3v0.1
		c0.5-0.1,1-0.4,1.4-0.5c0.2-0.1,0.4-0.1,0.6,0c0.4,0.2,0.7,0.5,1.1,0.7c0.1,0.1,0.2,0.2,0.2,0.4c0,1.4-0.1,2.8-0.2,4.2
		c0,0.2,0,0.4-0.2,0.5c-2,0.9-4,1.4-6.2,1.2c-0.7-0.1-1.4-0.2-1.9-0.6s-1-0.6-1.5-1c-0.9-0.5-1.2-1.4-1.2-2.4c0-0.9,0.1-1.7,0.4-2.7
		c0.5-1.7,0.9-3.6,1.4-5.3v-0.1c-0.4-0.2-0.7-0.5-1.1-0.7c-0.1,0.2-0.1,0.4-0.2,0.6c-1.2,0-2.5,0-3.7,0c-1,4-2,7.9-3.1,12
		c-0.2,0-0.5,0-0.7,0c-1.6,0-3.1,0-4.7,0c-0.2,0-0.5-0.1-0.6-0.2c-0.4-0.2-0.7-0.5-1-0.6c-0.2-0.1-0.2-0.2-0.2-0.5
		c0.9-3.5,1.7-6.9,2.7-10.4v-0.1c-0.4-0.2-0.7-0.5-1.1-0.7c-0.1,0.6-0.2,1.2-0.5,1.9c-0.9,3.5-1.7,7.1-2.7,10.5
		c-0.1,0.2-0.1,0.4-0.4,0.4c-1.7,0-3.5,0-5.1,0c-0.1,0-0.4,0-0.5-0.1c-0.4-0.2-0.7-0.5-1.2-0.7c-0.2-0.1-0.2-0.2-0.1-0.5
		c0.9-3.2,1.6-6.4,2.5-9.7c0.1-0.6,0.2-1.4,0.2-2.1c-0.5,0.2-1,0.4-1.4,0.7c-0.5,0.4-1,0.9-1.5,1.4c-0.4,0.4-0.5,0.7-0.6,1.2
		c-0.7,3.1-1.6,6.2-2.4,9.3C16,46.9,15.9,47,15.7,47c-1.6,0-3.3,0-5,0c-0.2,0-0.4-0.1-0.6-0.1c-0.4-0.2-0.7-0.5-1.1-0.6
		c-0.2-0.1-0.2-0.2-0.2-0.6c0.7-2.7,1.4-5.4,2.1-8.3c0.6-2.5,1.4-5.1,2-7.6c0.1-0.2,0.1-0.4,0.5-0.4c1.5,0,3.1,0,4.6,0
		c0.1,0,0.2,0,0.4,0c0.2,0.2,0.5,0.1,0.7-0.1c2-1.4,4.2-2,6.6-1.6c0.4,0,0.7,0.1,1.1,0.4c0.7,0.4,1.4,0.9,2,1.2
		C28.9,30,29.3,30.8,29.5,31.6z M72.1,23.7c-0.1-0.1-0.1-0.1-0.2-0.2c-1-0.7-2.1-1.4-3.3-1.7c-1.6-0.4-3.1-0.4-4.6,0.1
		c-2.7,0.9-4.6,2.7-5.7,5.3c-0.4,0.9-0.5,1.7-0.7,2.6C57.4,30,57.3,30,57.2,30c-0.5,0-1,0-1.4,0c-0.2,0-0.4,0.1-0.4,0.4
		c-0.1,0.6-0.4,1.2-0.5,2c-0.1,0.4-0.2,0.9-0.2,1.2c0.6,0,1.4,0,2,0c-1,4-2,7.9-3.1,11.9c0.2,0,0.4,0,0.5,0c1.2,0,2.5,0,3.8,0
		c0.2,0,0.4-0.1,0.4-0.4c0.4-1.6,0.7-3.2,1.2-4.7c0.4-1.6,0.7-3.1,1.2-4.7c0.1-0.7,0.4-1.5,0.6-2.2c1.5,0,2.8,0,4.3,0
		c-1,4-2,7.9-3,11.9c0.6,0,1.2,0,1.9,0c0.9,0,1.7,0,2.5,0c0.1,0,0.4,0,0.4-0.2c0-0.1,0.1-0.2,0.1-0.5c0.4-1.5,0.7-2.8,1.1-4.3
		c0.4-1.4,0.7-2.6,1-4c0.4-1.6,0.9-3.2,1.2-4.7c0.1-0.6,0.2-1.1,0.4-1.7c-3,0-5.9,0-9,0c0.4-1.1,0.5-2.4,1.1-3.2
		c0.5-0.6,1.1-1.1,1.9-1.2c0.9-0.1,1.7,0,2.5,0.4c0.6,0.4,1.4,0.9,2,1.2C70.4,26.1,71.3,24.9,72.1,23.7z M13.7,45.5
		c0-0.1,0-0.1,0.1-0.2c0.6-2.6,1.4-5.2,2-7.8c0.1-0.6,0.2-1.4,0.5-1.9c0.9-1.6,2.1-2.8,4.1-3.1c0.9-0.1,1.6,0.4,1.9,1.1
		c0.1,0.9,0.1,1.6-0.1,2.4c-0.6,2.4-1.2,4.6-1.7,6.9c-0.2,0.9-0.4,1.7-0.6,2.6c0.1,0,0.2,0,0.2,0c1.4,0,2.6,0,4,0
		c0.2,0,0.5,0,0.5-0.4c0-0.2,0.1-0.4,0.1-0.6c0.9-3.6,1.9-7.1,2.7-10.6c0.2-1.1,0.4-2.2,0.1-3.2c-0.2-1.1-0.9-1.9-2-2.2
		c-0.9-0.2-1.9-0.2-2.7,0c-1.9,0.2-3.5,1-4.8,2.4c-0.4,0.5-0.9,0.9-1.2,1.5c0.2-0.7,0.4-1.5,0.5-2.2c-1.4,0-2.6,0-4,0
		c-0.1,0-0.2,0.1-0.2,0.2c-0.2,0.9-0.5,1.9-0.7,2.7c-0.9,3.3-1.7,6.7-2.6,10c-0.2,0.7-0.4,1.6-0.6,2.4
		C10.6,45.5,12.2,45.5,13.7,45.5z M37.2,30.1c0.1-0.2,0.1-0.5,0.1-0.6c0.2-0.9,0.5-1.7,0.9-2.6c0.5-1,1.4-1.5,2.5-1.2
		c0.5,0.1,1.1,0.2,1.6,0.4c0.5-1.1,1.1-2.2,1.7-3.5c-0.5-0.1-0.7-0.4-1.2-0.5c-1.9-0.6-3.7-0.6-5.6,0.4c-1.6,0.9-2.8,2.4-3.6,4.1
		c-0.4,1-0.7,2.1-1,3.2c-0.1,0.4-0.1,0.5-0.5,0.5c-0.4,0-0.9,0-1.4,0c-0.2,0-0.4,0.1-0.4,0.2c-0.1,0.7-0.4,1.4-0.5,2.1
		c-0.1,0.4-0.1,0.7-0.2,1.1c0.7,0,1.4,0,2,0c-1,4-2,7.9-3.1,12c1.5,0,3,0,4.5,0c0.1,0,0.2-0.1,0.2-0.2c0.1-0.4,0.1-0.6,0.2-1
		c0.7-2.8,1.5-5.8,2.2-8.7c0.1-0.6,0.4-1.2,0.5-2c1.2,0,2.5,0,3.7,0c0.2-1.1,0.6-2.2,0.9-3.5C39.7,30.1,38.5,30.1,37.2,30.1z
		 M51.7,23.2c-0.1,0-0.1,0-0.1,0c-1.5,0-2.8,0-4.3,0c-0.2,0-0.2,0.1-0.2,0.2c-0.4,1.5-0.7,3-1.1,4.3c-0.2,0.7-0.4,1.5-0.6,2.2
		c-0.6,0-1.1,0-1.7,0c-0.2,0-0.2,0.1-0.4,0.2c-0.1,0.6-0.4,1.2-0.5,1.9c-0.1,0.5-0.2,0.9-0.4,1.4c0.7,0,1.4,0,2,0
		c-0.2,1.1-0.6,2.1-0.9,3.1c-0.5,2-1.1,4-1.4,6.1c-0.1,1,0,2,1,2.5c0.5,0.4,1.1,0.5,1.7,0.6c2,0.2,3.7-0.4,5.6-1
		c0.1,0,0.2-0.2,0.2-0.2c0-1,0.1-2.1,0.1-3.1c0-0.1,0-0.2,0-0.4c-0.1,0-0.2,0.1-0.4,0.1c-0.5,0.1-1,0.2-1.6,0.4
		c-1.1,0.1-1.6-0.6-1.4-1.6c0.5-2,1-4,1.5-5.9c0.1-0.2,0.1-0.2,0.4-0.2c0.9,0,1.7,0,2.6,0c0.2,0,0.4,0,0.4-0.2s0.1-0.6,0.2-0.9
		c0.2-0.7,0.4-1.5,0.6-2.2c-1.1,0-2.1,0-3.2,0C50.5,27.8,51.1,25.4,51.7,23.2z"/>
	<path class="st0" d="M22.5,61.5c1.4,0.4,2.6,0.7,4,1.1c2.6,0.6,5.3,1.1,8,1.4c2.8,0.2,5.8,0.2,8.7,0c3.6-0.2,7.1-0.9,10.5-1.9
		c0.2,0,0.5,0,0.6,0c0.6,0.2,1.1,0.5,1.7,0.7c0.1,0,0.2,0.1,0.2,0.2c0.7,2.4,1.5,4.7,2.2,6.9v0.1c-0.6,0.1-1.2,0.4-1.7,0.5
		c-2.8,0.9-5.7,1.5-8.7,1.9c-3.6,0.5-7.2,0.7-10.9,0.6C32,73,26.9,72.2,22,70.8c-0.2,0-0.5-0.2-0.6-0.4c-0.5-0.6-0.9-1.2-1.2-1.9
		C20,68.4,20,68.2,20,68C20.9,66.1,21.6,63.8,22.5,61.5C22.4,61.5,22.5,61.5,22.5,61.5z M56.2,69.3c-0.6-2.4-1.4-4.6-2-6.8
		c-10.5,3-20.9,2.8-31.5-0.4c-0.7,2.2-1.4,4.5-2.1,6.8C32.5,72.4,44.3,72.6,56.2,69.3z"/>
	<path class="st0" d="M59,50.7c0.1,0,0.2,0,0.4,0c2.2,0,4.6,0,6.8,0c0.2,0,0.4,0.1,0.5,0.2c0.5,0.4,0.9,0.7,1.4,1.2
		c0.1,0.1,0.2,0.2,0.2,0.4c0,2.5,0,4.8,0,7.3c0,0.1,0,0.1,0,0.2c-0.1,0-0.2,0-0.4,0c-2.2,0-4.5,0-6.6,0c-0.2,0-0.4-0.1-0.6-0.2
		c-0.5-0.4-1-0.9-1.5-1.4c-0.1-0.1-0.1-0.2-0.1-0.4c0-2.4,0-4.7,0-7.1C59,50.8,59,50.8,59,50.7z M59.5,51.2c0,2.4,0,4.7,0,7.1
		c2.4,0,4.7,0,7.1,0c0-2.4,0-4.7,0-7.1C64.2,51.2,61.9,51.2,59.5,51.2z"/>
	<path class="st0" d="M9.5,50.7c0.1,0,0.2,0,0.4,0c2.2,0,4.6,0,6.8,0c0.2,0,0.5,0.1,0.6,0.2c0.5,0.4,0.9,0.7,1.4,1.2
		c0.1,0.1,0.2,0.2,0.2,0.4c0,2.5,0,5,0,7.4c0,0,0,0,0,0.1c-0.1,0-0.2,0-0.4,0c-2.2,0-4.5,0-6.7,0c-0.1,0-0.4-0.1-0.5-0.2
		c-0.5-0.5-1-0.9-1.5-1.4c-0.1-0.1-0.1-0.2-0.1-0.4c0-2.5,0-4.8,0-7.3C9.5,50.8,9.5,50.7,9.5,50.7z M10,51.2c0,2.4,0,4.7,0,7.1
		c2.4,0,4.7,0,7.1,0c0-2.4,0-4.7,0-7.1C14.7,51.2,12.3,51.2,10,51.2z"/>
</g>
</svg>
