<?xml version="1.0" encoding="utf-8"?>
<!-- Generator: Adobe Illustrator 25.4.1, SVG Export Plug-In . SVG Version: 6.00 Build 0)  -->
<svg version="1.1" id="Layer_1" xmlns="http://www.w3.org/2000/svg" xmlns:xlink="http://www.w3.org/1999/xlink" x="0px" y="0px"
	 viewBox="0 0 104 53" style="enable-background:new 0 0 104 53;" xml:space="preserve">
<style type="text/css">
	.st0{fill:#FFFFFF;}
</style>
<g>
	<path class="st0" d="M76,5.5c-4.7-3-10-3.7-15.5-2.8C56,3.4,53.1,6.1,52,10.6c-0.8,3.1-0.4,6.3-0.6,9.5c0,0.4,0.2,0.5,0.5,0.5
		c0.8,0,1.5,0,2.3,0c0.6,0,0.8-0.2,0.8-0.8c0-1.7,0.1-3.4,0.1-5c0-1.2,0.1-2.4,0.6-3.5c1.4-3.5,5.6-4.7,8.7-2.5
		c0.8,0.6,1.2,1.3,1.5,2.2c0.9,3.6-1.8,7.3-5.5,7.4c-0.9,0-1.8,0-2.6,0c-1.4,0-1.3-0.3-1.3,1.3c0,0.7,0.2,1,0.9,1c1,0,1.9,0,2.9,0
		c1.1,0,2.2-0.3,3.3-0.7c4-1.9,5.6-5.8,4.4-10.2c0-0.1,0-0.1,0-0.2c0,0,0.1,0.1,0.1,0.1c0.1,0.2,0.3,0.3,0.4,0.5
		c1.5,2.6,1.7,5.2,0.2,7.9c-1.5,2.6-3.8,4.1-6.8,4c-4.7,0-9.5-0.2-14.2-0.3c-2.8,0-5.5-0.3-8.2,0C30.8,22.8,25.5,31,28,39.2
		c0.1,0.3,0.2,0.5,0,0.9c-0.1-0.2-0.2-0.3-0.3-0.5c-4.8-8.8,1.7-19.6,11.7-19.4c3.1,0,6.1,0.1,9.2,0.2c1.8,0,1.5,0.3,1.6-1.7
		c0-0.4-0.1-0.6-0.6-0.6c-3.8,0-7.6-0.3-11.4-0.1c-4.1,0.1-7.6,1.9-10.4,5c-3.8,4.2-4.7,9.3-3.6,14.7c1,5,3.7,8.7,8.3,11
		c3.8,1.8,7.9,2.3,12.1,1.8c5-0.5,8.5-3.6,9.7-8.5c0.7-3,0.3-6,0.5-9c0-0.4-0.2-0.5-0.6-0.5c-0.7,0-1.4,0-2.1,0
		c-0.6,0-0.9,0.1-0.9,0.8c0,2,0,4-0.1,6c-0.2,4.5-3.9,7.1-8.1,5.6c-1.4-0.5-2.3-1.4-2.6-2.8c-0.9-3.7,1.9-7.3,5.6-7.4
		c0.8,0,1.6,0,2.4,0c1.6,0,1.5,0,1.5-1.6c0-0.5-0.2-0.7-0.7-0.7c-1,0-2-0.1-3.1-0.1c-5.2,0-9.1,4.9-8,10c0.1,0.3,0.3,0.6,0.1,0.9
		c-0.3-0.1-0.3-0.2-0.4-0.4c-2.4-3.7-1-8.8,2.9-10.9c1.5-0.8,3.2-1,4.9-1c6.6,0.1,13.2,0.3,19.8,0.4c6,0.1,11.4-4.1,13-9.9
		c0.8-2.9,0.6-5.8-0.4-8.7c-0.1-0.1-0.2-0.2-0.1-0.3c0.1,0.1,0.1,0.1,0.2,0.2c1.1,1.6,1.7,3.4,1.9,5.3c1.1,7.3-4.6,14.3-11.9,14.7
		c-3.7,0.2-7.4,0-11.1-0.1c-0.7,0-1.1,0.2-1,0.9c0,0.2,0,0.3,0,0.5c-0.1,0.6,0.1,0.9,0.8,0.9c3.2,0,6.4,0.1,9.7,0.2
		c2.5,0.1,5-0.4,7.3-1.5c5.4-2.6,9.1-6.7,9.6-12.8C83.9,14.3,81.5,9,76,5.5z M76.6,18.6C76,25,71,29.4,64.6,29.2
		C58,29,51.5,28.9,44.9,28.8c-7.2-0.1-12,6.3-10,13.1c0,0.2,0.2,0.3,0.1,0.5c-0.3,0-0.4-0.3-0.5-0.6c-1.8-3.2-1.9-6.4-0.1-9.5
		c1.8-3.2,4.6-4.8,8.3-4.9c2.1,0,4.3,0.1,6.4,0.1c0.7,0,0.9-0.2,0.9-0.8c0-1.5,0.4-1.5-1.4-1.5c-2.2,0-4.4-0.2-6.6,0
		c-7.7,0.4-12.9,8.1-10.5,15.5c0.1,0.3,0.3,0.5,0.2,1c-1.3-1.8-2-3.8-2.1-6c-0.2-6.8,5.1-12.1,11.8-11.9c6.6,0.2,13.3,0.3,19.9,0.4
		c7.2,0.1,12-6.4,9.9-13.3c0-0.2-0.1-0.3-0.2-0.7c0.7,0.8,1.1,1.6,1.4,2.4c2.3,6.3-2.3,13-9.1,12.9c-2.1,0-4.2-0.1-6.3-0.2
		c-0.7,0-1,0.2-0.9,0.9c0,1.6-0.2,1.3,1.4,1.4c2.3,0,4.5,0.2,6.8,0c7.7-0.4,12.8-8.2,10.4-15.5c-0.1-0.3-0.2-0.5-0.2-0.8
		C76.1,13.6,76.8,16,76.6,18.6z"/>
	<path class="st0" d="M54.5,25.3c-0.9,0-1.9,0-2.8,0c-0.3,0-0.5,0.1-0.5,0.5c-0.2,1.9-0.2,2,1.7,2c0,0,0,0,0,0c0,0,0,0,0,0
		c2.3,0,2.3,0,2.1-1.9C55,25.5,54.9,25.3,54.5,25.3z"/>
</g>
</svg>
