<?xml version="1.0" encoding="utf-8"?>
<!-- Generator: Adobe Illustrator 25.4.1, SVG Export Plug-In . SVG Version: 6.00 Build 0)  -->
<svg version="1.1" id="Layer_1" xmlns="http://www.w3.org/2000/svg" xmlns:xlink="http://www.w3.org/1999/xlink" x="0px" y="0px"
	 viewBox="0 0 70.6 99.2" style="enable-background:new 0 0 70.6 99.2;" xml:space="preserve">
<style type="text/css">
	.st0{fill:#FFFFFF;}
</style>
<g>
	<path class="st0" d="M34.8,15.2c0.6,0.2,1.1,0.3,1.7,0.7c1.2,0.9,1.7,2.6,1.1,4C37,21.3,35.4,22.2,34,22c-1.5-0.2-2.8-1.3-3.1-2.8
		c-0.3-1.9,0.9-3.6,2.8-4c0.1,0,0.2-0.1,0.2-0.1C34.2,15.2,34.5,15.2,34.8,15.2z"/>
	<path class="st0" d="M34.5,81c-0.1-0.1-0.2-0.1-0.4-0.1c-1.9-0.5-3.2-2.1-3.3-4c-0.1-1.4,0.2-2.6,1.1-3.7c2.1-2.2,5.6-1.4,6.5,1.5
		c0.2,0.6,0.3,1.3,0.2,2.1c-1.1,0-2.4,0-3.5,0c-1.1,0-2.4,0-3.6,0c0.2,1.3,0.6,2.4,1.8,3c1.7,0.8,3.1,0.3,4.5-0.9
		c0.1,0.1,0.2,0.2,0.2,0.2c0.1,0.1,0.2,0.2,0.3,0.2c-0.8,0.8-1.6,1.4-2.7,1.5c-0.1,0-0.2,0.1-0.3,0.1C35.1,81,34.8,81,34.5,81z
		 M31.6,76.1c2.1,0,4.1,0,6.2,0c0.1-1.8-1.2-3.2-3-3.3C33.2,72.7,31.7,74.2,31.6,76.1z"/>
	<path class="st0" d="M43.2,81c-0.3-0.1-0.7-0.2-1-0.3c-1.5-0.5-2.2-1.9-1.7-3.4c0.4-1.1,1.2-1.5,2.3-1.8c1.3-0.3,2.6-0.2,3.8,0.2
		c0.1,0,0.2,0.1,0.3,0.1c0.3-1.4-0.5-2.7-2-2.9c-1.1-0.2-2.1,0-3.1,0.4c-0.2,0.1-0.2,0.2-0.4,0.2h-0.1c-0.1-0.2-0.2-0.5-0.3-0.7
		c1.5-0.7,3-1,4.6-0.5c1.2,0.4,1.9,1.3,2,2.6c0.1,1.9,0,3.9,0,5.8v0.1c-0.2,0-0.5,0-0.8,0c0-0.5,0-0.8,0-1.4
		c-0.1,0.1-0.2,0.1-0.2,0.1c-0.7,0.8-1.5,1.3-2.5,1.5c-0.1,0-0.1,0-0.1,0.1C43.9,81,43.6,81,43.2,81z M47,76.5
		c-0.6-0.1-1.1-0.2-1.7-0.3c-0.9-0.1-1.8-0.2-2.7,0.2c-0.8,0.3-1.4,0.9-1.4,1.8s0.5,1.5,1.4,1.8c1.2,0.4,2.4,0.2,3.4-0.5
		c0.5-0.4,0.9-1,0.9-1.6C47.1,77.4,47,77,47,76.5z"/>
	<path class="st0" d="M14.5,81c-0.5-0.2-1-0.2-1.5-0.5c-1.8-0.8-2.8-3-2.4-4.9c0.5-2.1,2.1-3.5,4.2-3.5c2.4-0.1,4.3,1.7,4.4,4.1
		c0.2,2.4-1.4,4.5-3.7,4.8c-0.1,0-0.2,0.1-0.2,0.1C15.2,81,14.9,81,14.5,81z M18.6,76.5c0-0.2-0.1-0.5-0.1-0.8
		c-0.5-2.4-3.1-3.7-5.1-2.5c-1.4,0.8-2.1,2.4-1.8,4.1c0.4,2.1,2.4,3.4,4.4,2.8C17.6,79.7,18.5,78.2,18.6,76.5z"/>
	<path class="st0" d="M25.3,81c-0.5-0.2-1-0.2-1.5-0.5c-1.8-0.8-2.7-2.8-2.3-4.8c0.3-1.9,1.9-3.4,3.8-3.7c1.5-0.2,2.8,0.4,3.9,1.6
		c-0.2,0.2-0.3,0.2-0.4,0.3c-0.2,0.1-0.2,0.2-0.2,0.3c-0.2-0.2-0.4-0.3-0.5-0.5c-1.2-1.1-2.8-1.3-4-0.5c-1.3,0.7-2.1,2.3-1.8,3.8
		c0.3,1.8,1.4,2.9,3.1,3.1c1.2,0.2,2.2-0.3,3.1-1.1c0.1-0.1,0.2-0.2,0.2-0.3c0.2,0.2,0.4,0.3,0.6,0.5c-0.7,0.8-1.6,1.5-2.7,1.6
		c-0.1,0-0.2,0.1-0.3,0.1C25.9,81,25.6,81,25.3,81z"/>
	<path class="st0" d="M34.3,35.4c1.9,0,3.4,1.5,3.4,3.4c0,1.9-1.5,3.4-3.4,3.4s-3.4-1.5-3.4-3.4C30.9,37,32.5,35.4,34.3,35.4z"/>
	<path class="st0" d="M17.6,28.8c0,1.9-1.5,3.4-3.4,3.4s-3.4-1.5-3.4-3.4s1.5-3.4,3.4-3.4S17.6,26.9,17.6,28.8z"/>
	<path class="st0" d="M54.6,25.4c1.9,0,3.4,1.5,3.4,3.4s-1.5,3.4-3.4,3.4c-1.9,0-3.4-1.5-3.4-3.4C51.1,26.9,52.6,25.4,54.6,25.4z"/>
	<path class="st0" d="M20.8,33.8c0-1.9,1.5-3.4,3.4-3.4s3.4,1.5,3.4,3.4c0,1.9-1.5,3.4-3.4,3.4S20.8,35.7,20.8,33.8z"/>
	<path class="st0" d="M20.8,23.7c0-1.9,1.5-3.4,3.4-3.4s3.4,1.5,3.4,3.4s-1.5,3.4-3.4,3.4S20.8,25.6,20.8,23.7z"/>
	<path class="st0" d="M34.4,25.4c1.9,0,3.4,1.5,3.4,3.4s-1.5,3.4-3.4,3.4c-1.9,0-3.4-1.5-3.4-3.4C30.9,26.9,32.5,25.4,34.4,25.4z"/>
	<path class="st0" d="M47.9,33.8c0,1.9-1.5,3.4-3.4,3.4S41,35.7,41,33.8s1.5-3.4,3.4-3.4C46.4,30.4,47.9,31.9,47.9,33.8z"/>
	<path class="st0" d="M47.9,23.7c0,1.9-1.5,3.4-3.4,3.4S41,25.6,41,23.7s1.5-3.4,3.4-3.4C46.4,20.3,47.9,21.9,47.9,23.7z"/>
	<path class="st0" d="M54.6,40.8c-1.4,0-2.5-1.1-2.5-2.5c0-1.5,1.1-2.6,2.5-2.6s2.5,1.1,2.5,2.5C57.2,39.6,56,40.8,54.6,40.8z"/>
	<path class="st0" d="M14.2,40.8c-1.4,0-2.5-1.1-2.5-2.5s1.1-2.5,2.5-2.5s2.5,1.1,2.5,2.5C16.7,39.7,15.6,40.8,14.2,40.8z"/>
	<path class="st0" d="M34.4,45.7c1.5,0,2.5,1.1,2.5,2.5c0,1.4-1.1,2.5-2.5,2.5c-1.4,0-2.5-1.1-2.5-2.6C31.9,46.9,33,45.7,34.4,45.7z
		"/>
	<path class="st0" d="M24.2,40.8c1.4,0,2.5,1.1,2.5,2.5s-1.1,2.5-2.5,2.5c-1.4,0-2.5-1.1-2.5-2.5C21.7,42,22.8,40.8,24.2,40.8z"/>
	<path class="st0" d="M44.5,40.8c1.4,0,2.5,1.1,2.5,2.5S45.8,46,44.5,46c-1.4,0-2.5-1.1-2.5-2.5C41.9,41.9,43,40.8,44.5,40.8z"/>
	<path class="st0" d="M51.5,80.8c-0.3,0-0.5,0-0.8,0c0-2.8,0-5.7,0-8.6c0.2,0,0.5,0,0.8,0c0,0.5,0,1,0,1.5c0.2-0.2,0.3-0.4,0.4-0.5
		c0.8-1.1,2.4-1.5,3.8-1.1c1.4,0.4,2.1,1.4,2.2,2.8c0,0.2,0.1,0.5,0.1,0.8c0,1.6,0,3.1,0,4.7c0,0.1,0,0.2,0,0.3c-0.3,0-0.5,0-0.8,0
		c0-0.2,0-0.2,0-0.3c0-1.5,0-3.1,0-4.6c0-0.5-0.1-0.8-0.2-1.3c-0.5-1.7-2.4-2.4-4.1-1.4c-1,0.6-1.5,1.5-1.5,2.7c0,1.5,0,3.1,0,4.6
		C51.5,80.5,51.5,80.7,51.5,80.8z"/>
	<path class="st0" d="M44.5,52.8c-0.9,0-1.7-0.8-1.8-1.7c0-0.9,0.8-1.7,1.7-1.8c0.9,0,1.7,0.8,1.8,1.7C46.1,52,45.4,52.8,44.5,52.8z
		"/>
	<path class="st0" d="M26,51.1c0,0.9-0.8,1.7-1.8,1.7s-1.7-0.8-1.7-1.8c0-0.9,0.8-1.7,1.8-1.7C25.2,49.3,26,50.2,26,51.1z"/>
	<path class="st0" d="M15.9,46c0,0.9-0.8,1.7-1.7,1.7c-0.9,0-1.7-0.8-1.7-1.7c0-0.9,0.8-1.7,1.7-1.7C15.1,44.3,15.9,45,15.9,46z"/>
	<path class="st0" d="M52.9,46c0-0.9,0.8-1.7,1.7-1.7c0.9,0,1.7,0.8,1.7,1.7c0,0.9-0.8,1.7-1.7,1.7C53.6,47.6,52.9,46.9,52.9,46z"/>
	<path class="st0" d="M36.1,56.1c0,0.9-0.8,1.7-1.7,1.8c-0.9,0-1.7-0.8-1.7-1.7c0-0.9,0.8-1.7,1.7-1.7
		C35.3,54.4,36.1,55.2,36.1,56.1z"/>
	<path class="st0" d="M55.5,52.1c0,0.5-0.4,0.8-0.9,0.8c-0.5,0-0.9-0.4-0.8-0.9c0-0.5,0.4-0.8,0.9-0.8
		C55.1,51.2,55.5,51.5,55.5,52.1z"/>
	<path class="st0" d="M24.2,58c-0.5,0-0.8-0.4-0.9-0.8c0-0.5,0.4-0.9,0.9-0.9c0.5,0,0.8,0.4,0.9,0.8C25.1,57.6,24.7,58,24.2,58z"/>
	<path class="st0" d="M13.3,52c0-0.5,0.4-0.8,0.9-0.8c0.5,0,0.9,0.4,0.8,0.9c0,0.5-0.4,0.8-0.9,0.8C13.7,52.9,13.3,52.5,13.3,52z"/>
	<path class="st0" d="M44.5,58c-0.5,0-0.9-0.4-0.9-0.9c0-0.5,0.4-0.8,0.9-0.8c0.5,0,0.9,0.4,0.9,0.9C45.3,57.6,44.9,58,44.5,58z"/>
	<path class="st0" d="M34.4,61.3c0.5,0,0.8,0.4,0.9,0.8c0,0.5-0.4,0.9-0.8,0.9c-0.5,0-0.9-0.4-0.9-0.9
		C33.5,61.7,33.9,61.3,34.4,61.3z"/>
</g>
</svg>
