<?xml version="1.0" encoding="utf-8"?>
<!-- Generator: Adobe Illustrator 25.4.1, SVG Export Plug-In . SVG Version: 6.00 Build 0)  -->
<svg version="1.1" id="Layer_1" xmlns="http://www.w3.org/2000/svg" xmlns:xlink="http://www.w3.org/1999/xlink" x="0px" y="0px"
	 viewBox="0 0 124 35" style="enable-background:new 0 0 124 35;" xml:space="preserve">
<style type="text/css">
	.st0{filter:url(#Adobe_OpacityMaskFilter);}
	.st1{fill-rule:evenodd;clip-rule:evenodd;fill:#FFFFFF;}
	.st2{mask:url(#mask-2_00000076570791025221280280000010843254278216513965_);fill-rule:evenodd;clip-rule:evenodd;fill:#FFFFFF;}
</style>
<g id="Page-1">
	<g id="Home" transform="translate(-835.000000, -1678.000000)">
		<g id="osce" transform="translate(835.925881, 1678.774096)">
			<g id="Group-3" transform="translate(93.059623, 0.000000)">
				<g id="Clip-2">
				</g>
				<defs>
					<filter id="Adobe_OpacityMaskFilter" filterUnits="userSpaceOnUse" x="0" y="0" width="29.1" height="34">
						<feColorMatrix  type="matrix" values="1 0 0 0 0  0 1 0 0 0  0 0 1 0 0  0 0 0 1 0"/>
					</filter>
				</defs>
				
					<mask maskUnits="userSpaceOnUse" x="0" y="0" width="29.1" height="34" id="mask-2_00000076570791025221280280000010843254278216513965_">
					<g class="st0">
						<polygon id="path-1_00000163769965848074203010000007455358611828149693_" class="st1" points="0,0 29.1,0 29.1,34 0,34 
													"/>
					</g>
				</mask>
				<path id="Fill-1" class="st2" d="M14.7,16.7L14.7,16.7c0.8,0,1.5,0,2.3,0c2.2-0.1,4.5-0.1,6.7-0.5c0.4-0.1,0.6-0.2,0.6-0.7
					c0-0.7,0-1.4,0-2.1C24,10,22.6,7.3,19.2,5.9c-1.8-0.7-3.7-0.9-5.6-0.6c-2.5,0.4-4.5,1.6-6.4,3.1c-0.9,0.7-1.5,1.5-1.9,2.5
					c-1.5,3.2-1.8,6.5-1,9.8c0.9,4.1,3.5,6.8,7.7,7.7c3.4,0.8,6.7,0.2,9.8-1.5c0.9-0.5,1.5-1.1,1.8-2c0.1-0.2,0.2-0.4,0-0.6
					c-0.2-0.3-0.4-0.1-0.6,0c-1,0.5-2,1.1-3.1,1.5c-4,1.3-8.3-0.2-10.2-3.5c-0.9-1.6-1.1-3.3-1.2-5c0-0.5,0.1-0.6,0.6-0.6
					C10.9,16.7,12.8,16.7,14.7,16.7 M29.1,0v0.1c-0.2,0.3-0.1,0.6-0.1,0.9c0,10.7,0,21.5,0,32.2c0,0.6-0.1,0.8-0.8,0.8
					C18.8,34,9.4,34,0,34c0-0.2,0-0.4,0-0.6C0,22.5,0,11.6,0,0.8C0,0.2,0.1,0,0.7,0C10,0,19.2,0,28.5,0C28.7,0,28.9,0,29.1,0"/>
			</g>
			<path id="Fill-4" class="st1" d="M67.3,17.3c0,0.8,0,1.6,0.2,2.4c0.6,4.2,3.3,7.4,7.2,8.4c3.1,0.8,6.1,0.6,9-0.6
				c1-0.4,1.6-1,2.1-1.9c0.2-0.3,0.1-0.5-0.1-0.7c-0.2-0.3-0.4-0.2-0.6-0.1c-0.7,0.3-1.4,0.6-2.1,0.8c-4.1,1.4-8.2-0.3-10-4.1
				c-1.4-3-1.7-6.1-1-9.3c0.5-2.5,2-4.2,4.6-4.7c2-0.4,3.8,0,5.6,0.8c0.9,0.5,1.6,1.1,1.5,2.2c0,0.3,0.1,0.7,0.1,1
				c0.1,1,0.1,1.1,1.2,0.9c0.2,0,0.3-0.1,0.3-0.3c0.1-1.8,0.3-3.6,0.6-5.4c0.1-0.3,0-0.5-0.3-0.6c-1-0.6-2.1-0.9-3.3-1
				C80.2,4.9,78,4.8,76,5.7c-1.8,0.8-3.4,1.8-5,2.8c-1,0.7-1.8,1.6-2.3,2.6C67.6,13.1,67.2,15.2,67.3,17.3 M91.2,34
				c-9.6,0-19.3,0-28.9,0c0-0.2,0-0.4,0-0.6c0-10.9,0-21.7,0-32.6C62.3,0.1,62.4,0,63,0c9.2,0,18.3,0,27.5,0c0.6,0,0.8,0.1,0.8,0.7
				c0,10.9,0,21.7,0,32.6C91.2,33.6,91.2,33.8,91.2,34"/>
			<path id="Fill-6" class="st1" d="M52.7,9.1C52.7,9.1,52.8,9.1,52.7,9.1c0.1-0.7,0.1-1.5,0.1-2.2c0-0.4-0.1-0.6-0.5-0.7
				c-2-0.7-4-1.1-6.1-1.2c-2.5,0-4.9,0.6-6.8,2.3c-1.8,1.6-2.4,3.6-2,5.9c0.4,2.3,1.9,3.7,4.2,4.3c0.9,0.2,1.8,0.5,2.7,0.7
				c1.4,0.4,2.9,0.6,4.3,1.1c1.6,0.6,2.3,1.7,2.3,3.4c-0.1,2-1.3,3.6-3.4,4.2c-1.5,0.4-3.1,0.4-4.6,0.1c-1.9-0.3-3.2-1.4-3.5-3.4
				c-0.1-0.8-0.3-1.5-0.2-2.3c0-0.7-0.4-0.5-0.8-0.6c-0.4,0-0.7,0-0.7,0.6c0,1.9,0,3.7-0.4,5.6c-0.1,0.4,0.1,0.7,0.5,0.7
				c0.9,0.2,1.7,0.4,2.6,0.5c2.4,0.4,4.7,0.7,7.1,0.2c3.6-0.7,6.4-3.4,6.9-6.8c0.4-2.5-0.6-4.9-3.5-5.8c-1.3-0.4-2.6-0.7-3.9-1.1
				c-1.4-0.4-2.8-0.6-4.2-1.2c-1-0.5-1.7-1.3-1.8-2.4c-0.3-2,1-3.9,3-4.5c1-0.3,2.1-0.3,3.1-0.1c2.4,0.5,4.2,1.7,4.2,4.3
				c0,0,0,0.1,0,0.1c0.1,0.9,0.1,0.9,1,0.9c0.4,0,0.5-0.2,0.5-0.5C52.7,10.6,52.7,9.8,52.7,9.1 M60.3,34c-9.6,0-19.3,0-28.9,0
				c0-0.2,0-0.5,0-0.7c0-10.8,0-21.7,0-32.5c0-0.8,0-0.8,0.8-0.8c9.2,0,18.3,0,27.5,0C60,0,60.3,0,60.3,0.6c0,11.1,0,22.1,0,33.2
				C60.3,33.8,60.3,33.9,60.3,34"/>
			<path id="Fill-8" class="st1" d="M26.1,16.3c0-6.5-4.4-10.9-10.1-11.2C9.2,4.6,4.9,8.9,3.8,13.6c-0.5,2.1-0.6,4.2-0.2,6.3
				c0.5,2.8,1.7,5.3,4,7c2.6,2,5.7,2.3,8.8,1.7C22.3,27.4,26.2,22.4,26.1,16.3 M29.4,34C19.6,34,9.8,34,0,34c0-0.2,0-0.4,0-0.6
				C0,22.5,0,11.6,0,0.7C0,0.2,0.1,0,0.7,0c9.4,0,18.7,0,28.1,0c0.4,0,0.6,0,0.6,0.5c0,11.1,0,22.1,0,33.2
				C29.4,33.8,29.4,33.9,29.4,34"/>
			<path id="Fill-10" class="st1" d="M107.6,15.2c-1.9,0-3.8,0-5.7-0.2c-0.4,0-0.6-0.2-0.5-0.6c0.1-1.5,0.2-3,0.9-4.4
				c1.7-3.7,6.8-4.4,9.3-1.4c0.9,1.1,1.3,2.5,1.4,3.9c0.1,0.6,0.1,1.2,0.1,1.7c0,0.9,0,0.9-0.9,1C110.7,15.2,109.1,15.2,107.6,15.2"
				/>
			<path id="Fill-12" class="st1" d="M21.8,17.6c0,1.8-0.1,3.6-0.7,5.4c-0.8,2.3-2.4,3.9-4.9,4.2c-2.4,0.3-4.4-0.6-5.9-2.5
				c-1.2-1.5-1.7-3.3-2.1-5.2c-0.6-2.8-0.7-5.6,0.1-8.3c0.7-2.5,2.3-4.2,5-4.6c2.7-0.3,4.9,0.6,6.4,2.9c1.2,1.9,1.8,4.1,2,6.4
				C21.7,16.5,21.7,17.1,21.8,17.6"/>
		</g>
	</g>
</g>
</svg>
