<?xml version="1.0" encoding="utf-8"?>
<!-- Generator: Adobe Illustrator 25.4.1, SVG Export Plug-In . SVG Version: 6.00 Build 0)  -->
<svg version="1.1" id="Layer_1" xmlns="http://www.w3.org/2000/svg" xmlns:xlink="http://www.w3.org/1999/xlink" x="0px" y="0px"
	 viewBox="0 0 89 81" style="enable-background:new 0 0 89 81;" xml:space="preserve">
<style type="text/css">
	.st0{filter:url(#Adobe_OpacityMaskFilter);}
	.st1{fill-rule:evenodd;clip-rule:evenodd;fill:#FFFFFF;}
	.st2{mask:url(#mask-2_00000155114912414608594260000017009105230199176878_);fill-rule:evenodd;clip-rule:evenodd;fill:#FFFFFF;}
</style>
<g id="Page-1">
	<g id="Home" transform="translate(-612.000000, -1655.000000)">
		<g id="oswe" transform="translate(612.087059, 1655.774096)">
			<g id="Group-3">
				<g id="Clip-2">
				</g>
				<defs>
					<filter id="Adobe_OpacityMaskFilter" filterUnits="userSpaceOnUse" x="0" y="0" width="88.6" height="80">
						<feColorMatrix  type="matrix" values="1 0 0 0 0  0 1 0 0 0  0 0 1 0 0  0 0 0 1 0"/>
					</filter>
				</defs>
				
					<mask maskUnits="userSpaceOnUse" x="0" y="0" width="88.6" height="80" id="mask-2_00000155114912414608594260000017009105230199176878_">
					<g class="st0">
						<polygon id="path-1_00000019660859444598724790000010282407955525694905_" class="st1" points="0,0 88.6,0 88.6,80 0,80 
													"/>
					</g>
				</mask>
				<path id="Fill-1" class="st2" d="M69.9,40c0,2.7,0,5.4,0,8.1c0,1.1,0.4,1.4,1.4,1.4c2.3-0.1,4.6-0.1,6.9,0
					c1.7,0.1,1.8-0.7,1.8-2c0-1.3-0.1-2.2-1.8-2c-0.7,0.1-1.9,0.4-2.2-0.3c-0.4-0.9-0.3-2.1-0.1-3.1c0.2-0.8,1.2-0.5,1.8-0.4
					c1.4,0.1,1.7-0.5,1.6-1.7c-0.1-1.1,0.1-2.2-1.6-2c-1,0.1-2,0.3-2-1.5c0-1.6,0.5-2.2,2-1.9c1.7,0.3,1.9-0.6,1.9-2
					c0.1-1.6-0.6-1.8-2-1.8c-2,0.1-4,0.1-6,0c-1.4-0.1-1.9,0.3-1.8,1.7C70,35,69.9,37.5,69.9,40 M36.6,36.4c0.7-0.3,2.1,0.6,2.5-0.5
					c0.4-1.1,0.2-2.5-0.6-3.6c-0.4-0.5-0.9-0.8-1.5-1.1c-2.1-0.9-4.4-1-6.6-0.5c-1.8,0.4-3.4,1.1-3.7,3.2c-0.3,2.3-0.4,4.6,2,6
					c1.4,0.8,2.8,1.7,4.2,2.5c1.3,0.7,1.5,1.9,1.3,3.2c-0.1,0.5-0.4,0.9-1,0.9c-0.6,0-0.9-0.4-0.9-0.9c-0.1-0.6-0.1-1.3-0.1-1.9
					c0.1-1.1-0.7-1.2-1.3-1c-1.3,0.3-2.9-0.9-4.1,0.7c0,0,0,0.1,0,0.2c-0.4,3,1,5.1,3.9,5.8c1.2,0.3,2.5,0.3,3.7,0.2
					c3.1-0.2,4.7-1.3,5.2-3.4c0.7-3-0.2-5.6-2.8-7.1c-1.1-0.7-2.3-1.2-3.5-1.9c-1.1-0.6-1.7-1.5-1.3-2.8c0.1-0.5,0.4-0.8,0.9-0.8
					c0.5,0,0.9,0.3,0.9,0.8C33.4,37,35.1,36.4,36.6,36.4 M21.9,40.2C22,40.2,22,40.2,21.9,40.2c0.1-1.5,0.2-3,0.1-4.5
					c-0.2-2.7-1.4-4.2-4.1-4.9c-1.9-0.5-3.7-0.5-5.6,0.1c-2.2,0.7-3.6,2.2-3.7,4.6c-0.1,3.1-0.1,6.1,0,9.2c0,2.1,1,3.6,3,4.4
					c2.4,0.9,4.8,1,7.2,0.1c1.8-0.7,3-2,3.1-4.1C22,43.5,21.9,41.9,21.9,40.2 M49.6,40c-0.2-1.8-0.3-3.6-0.5-5.4
					c-0.4-3.8-0.5-3.8-4.3-3.8c-1.3,0-1.8,0.4-1.5,1.7c0.6,3.9,1.1,7.8,1.7,11.7c0.3,1.8-0.3,4.2,1.1,5c1.4,0.8,3.6,0.2,5.5,0.3
					c0.9,0,1.3-0.3,1.5-1.2c0.3-2.3,0.8-4.6,1.2-6.8c0.6,1.3,0.9,2.5,1.1,3.8c0.8,4.3,0.8,4.3,5,4.3c0.6,0,1.1-0.1,1.7,0
					c1.1,0.1,1.5-0.3,1.6-1.4c0.5-4.4,1.2-8.8,1.8-13.2c0.6-4.1,0.6-4-3.5-4.1c-1.2,0-1.6,0.4-1.8,1.5c-0.4,3.1-0.8,6.3-1.3,9.4
					c-0.4-2.2-0.6-4.4-0.9-6.6c-0.6-4.5-0.6-4.4-5.1-4.3c-0.9,0-1.3,0.2-1.5,1.2c-0.2,2.1-0.6,4.2-0.9,6.3
					C50.3,38.9,50.6,39.6,49.6,40 M44.4,53.4c-0.9,0-1.9,0-2.8,0c-6.7,0-13.4,0-20.1,0c-1.2,0-1.5,0.3-0.8,1.3
					c0.8,1.1,1.5,2.2,2.3,3.2c12.2,14.5,34.6,12.7,44.7-2.9c0.3-0.4,0.8-0.8,0.5-1.3c-0.3-0.5-0.9-0.2-1.4-0.2
					C59.4,53.3,51.9,53.4,44.4,53.4 M44.4,26.6c7.5,0,15,0,22.5,0c0.5,0,1.2,0.1,1.4-0.2c0.4-0.5-0.2-1-0.5-1.4
					C57,7.9,31.8,7.9,20.9,24.8c-0.3,0.5-0.9,0.9-0.6,1.5c0.3,0.6,1,0.3,1.5,0.3C29.3,26.6,36.9,26.6,44.4,26.6 M38.7,0h10.9
					c1.4,1,3.2,0.8,4.8,1.3c12.8,3.7,21.8,11.6,26.9,23.8c0.5,1.3,1.2,1.7,2.5,1.6c1.6-0.1,3.2,0,4.9,0c0,8.9,0,17.8,0,26.7
					c-1.8,0-3.6,0.1-5.4,0c-1,0-1.3,0.3-1.7,1.2c-6,13.9-16.5,22.3-31.5,24.8c-0.5,0.1-1.2-0.1-1.5,0.6h-8.6
					c-0.3-0.7-0.9-0.5-1.4-0.6c-13-2.2-22.7-9.1-29.2-20.6c-1-1.8-1.1-4.4-2.9-5.2c-1.8-0.8-4.2-0.2-6.3-0.2V26.7
					c1.8,0,3.6-0.1,5.4,0c1,0,1.4-0.3,1.7-1.2C12.7,12,22.7,3.8,36.9,0.7C37.5,0.6,38.3,0.8,38.7,0"/>
			</g>
			<path id="Fill-4" class="st1" d="M14.5,40.1c0-1.7,0-3.5,0-5.2c0-0.6,0.1-1.2,0.9-1.1c0.7,0,0.7,0.6,0.7,1.1c0,3.5,0,7.1,0,10.6
				c0,0.6-0.2,1-0.8,1c-0.7,0-0.8-0.5-0.8-1C14.5,43.7,14.6,41.9,14.5,40.1C14.6,40.1,14.5,40.1,14.5,40.1"/>
		</g>
	</g>
</g>
</svg>
