<?xml version="1.0" encoding="utf-8"?>
<!-- Generator: Adobe Illustrator 25.4.1, SVG Export Plug-In . SVG Version: 6.00 Build 0)  -->
<svg version="1.1" id="Layer_1" xmlns="http://www.w3.org/2000/svg" xmlns:xlink="http://www.w3.org/1999/xlink" x="0px" y="0px"
	 viewBox="0 0 151 43" style="enable-background:new 0 0 151 43;" xml:space="preserve">
<style type="text/css">
	.st0{fill-rule:evenodd;clip-rule:evenodd;fill:#FFFFFF;}
	.st1{filter:url(#Adobe_OpacityMaskFilter);}
	.st2{mask:url(#mask-2_00000055706089050581281000000004287211659710085280_);fill-rule:evenodd;clip-rule:evenodd;fill:#FFFFFF;}
</style>
<g id="Page-1">
	<g id="About:-Who-Trusts-Us" transform="translate(-1069.000000, -2462.000000)">
		<g id="pangolin" transform="translate(1069.501446, 2462.522803)">
			<path id="Fill-1" class="st0" d="M0,21.6c0.5,0.4,1.2,0.8,1.5,1.3c0.7,1.2,1.2,2.5,1.9,3.9c-0.8,0-1.5,0.1-2.3,0.1
				C0.7,25.4,0.3,24,0,22.7C0,22.3,0,21.9,0,21.6"/>
			<path id="Fill-3" class="st0" d="M16.3,0.9c0.2,0.7,0.4,1.3,0.6,2C18,2.2,19,1.1,20.3,0.7c1.4-0.5,3.7-1,4.2-0.4
				c1,1.2-0.2,2.8-1.2,4.1c-0.3,0.4-0.5,0.7-1.1,1.5c3.1-1.1,5.4-3.3,8.7-2.3c-1.4,2.5-3.9,3.7-6.3,5.1c2,0.9,3.8,1.8,5.6,2.6
				c-0.1,0.2-0.1,0.4-0.2,0.6c-3,1.1-5.6-0.1-8.4-1.6c0.9,2.2,1.8,4.3,2.8,6.8c-2.7-1.3-4.2-3.5-5.7-5.7c-3.4,1.8-5.7,5.4-9.6,6.2
				c0.8-3.7,1.4-7,2.1-10.3C11.8,4.5,13.6,2.3,16.3,0.9"/>
			<path id="Fill-5" class="st0" d="M106.5,23.1c0-3-2.1-5.2-4.9-5.2c-2.6,0.1-5,2.5-4.9,5.1c0.1,2.6,2.3,4.9,4.9,5
				C104.3,28.1,106.5,25.9,106.5,23.1 M105.8,17.8c0.9-0.6,1.6-1,2.7-1.6c0,4.4,0,8.2,0,12c0,1.1,0.1,2.2-0.1,3.2
				c-0.8,3.9-4.3,6-8.8,5c-1.6-0.4-3-1.3-4.8-2.1c0.7-0.9,1.1-1.3,1.6-1.8c2.4,2.3,5.1,3.3,8.1,1.6c2.2-1.2,2.3-3.5,2-6.2
				c-2.1,1.8-4.5,2.5-6.9,1.5c-1.4-0.5-2.8-1.5-3.7-2.6c-1.9-2.4-1.5-6.3,0.7-8.5C98.9,15.7,102.3,15.7,105.8,17.8"/>
			<path id="Fill-7" class="st0" d="M57.7,18.5c0.7,0,1.4,0.1,2.1,0c2.1-0.2,3.4-1.6,3.1-3.5c-0.2-1-1-2.3-1.7-2.5
				c-1.8-0.5-3.8-0.3-5.8-0.4c-0.2,1.3-0.4,2.6-0.4,3.9C54.9,18.5,54.9,18.5,57.7,18.5 M54.7,29.6H53V10c2.7,0,5.4-0.3,8.1,0.1
				c3.2,0.5,4.4,2.5,4.2,5.8c-0.2,2.5-2,4.2-4.9,4.5c-1.2,0.1-2.5,0.1-3.7,0.1c-1.2-0.1-1.7,0.4-1.7,1.7c0,2.3,0,4.6,0,6.9
				C54.9,29.2,54.8,29.3,54.7,29.6"/>
			<path id="Fill-9" class="st0" d="M73.7,23c-1.3,0.4-2.6,0.6-3.8,1.2c-0.5,0.3-1.1,1.2-1,1.8c0.1,0.7,0.6,1.6,1.2,1.9
				c2,1.2,4.6,0,5.4-2.3C76.1,23.5,75.9,23.2,73.7,23 M68.3,19.4c-0.4-0.5-0.7-0.9-0.9-1.2c1.9-2,6-2.8,8.1-1.3
				c1.1,0.8,2,2.3,2.2,3.6c0.3,2.9,0.1,5.9,0.1,9.4c-0.9-0.4-1.6-0.8-2-1c-1.8,0.4-3.5,0.9-5.3,1c-2,0.1-3.5-1.5-3.8-3.4
				c-0.2-1.7,0.8-3.5,2.5-4.1c1.4-0.5,2.9-0.6,4.3-0.8c0.7-0.1,1.4-0.1,2.7-0.1c-0.7-1.3-1-2.5-1.8-3C72.3,17.2,70.3,18.2,68.3,19.4
				"/>
			<path id="Fill-11" class="st0" d="M8.4,23.4c3.7-1.1,5.3-4.1,7-7.1c0.6-1.2,1.6-2.1,2.3-2.9c2.4,2,4.8,3.6,6.7,5.6
				c0.8,0.9,0.8,2.6,1.1,4c-2.9-0.7-5.2-1.2-7.6-1.7c-0.4-0.1-0.9,0.2-1.3,0.4c-2.2,0.7-4.4,1.4-6.6,2.1c-0.5,0.1-1,0.1-1.5,0.2
				C8.5,23.8,8.5,23.6,8.4,23.4"/>
			<path id="Fill-13" class="st0" d="M122.7,23.3c0-2.9-2.1-5.3-4.9-5.3c-2.7-0.1-5,2.2-5.1,5.1c0,2.9,2.1,5.3,4.9,5.3
				C120.5,28.4,122.7,26.2,122.7,23.3 M117.8,30.1c-4.1,0-7-2.8-7-6.8c0-4.1,2.9-7,7.1-6.9c4,0,6.9,2.9,7,6.7
				C124.9,27.1,121.9,30.1,117.8,30.1"/>
			<path id="Fill-15" class="st0" d="M82.7,29.6h-1.9V16.3c1,0.5,1.7,0.9,2.1,1.1c1.7-0.4,3.4-1,5.1-1c2.2-0.1,3.8,1.4,3.9,3.6
				c0.2,2.9,0.1,5.8,0.1,8.7c0,1.4-0.9,1.1-2,0.9c0-2.5,0-4.9,0-7.4c0-2.8-1-4-3.1-4.2c-2.1-0.1-4.1,1.7-4.2,4.2
				c-0.1,1.2,0,2.5,0,3.7C82.7,27.1,82.7,28.2,82.7,29.6"/>
			<path id="Fill-17" class="st0" d="M24.3,13.4c2,0,3.8,0.1,5.5-0.1c0.7-0.1,1.6-0.6,1.9-1.2c0.2-0.4-0.6-1.3-1.1-1.8
				c-0.4-0.5-1-0.8-1.5-1.2c4,0.2,6.5,2.5,6.9,6.4c0.1,1.1-0.2,1.7-1.2,2.2c-2.3,1.1-4.8,1.3-7.3,0.9c-0.6-0.1-1.3-0.9-1.7-1.5
				C25.2,15.9,24.8,14.6,24.3,13.4"/>
			<g id="Group-21" transform="translate(138.263370, 16.390502)">
				<g id="Clip-20">
				</g>
				<defs>
					<filter id="Adobe_OpacityMaskFilter" filterUnits="userSpaceOnUse" x="0" y="0" width="11.3" height="13.3">
						<feColorMatrix  type="matrix" values="1 0 0 0 0  0 1 0 0 0  0 0 1 0 0  0 0 0 1 0"/>
					</filter>
				</defs>
				
					<mask maskUnits="userSpaceOnUse" x="0" y="0" width="11.3" height="13.3" id="mask-2_00000055706089050581281000000004287211659710085280_">
					<g class="st1">
						<polygon id="path-1_00000142864501174581323660000008273841159076248461_" class="st0" points="0,0 11.3,0 11.3,13.3 0,13.3 
													"/>
					</g>
				</mask>
				<path id="Fill-19" class="st2" d="M2,13.3c-0.8,0-1.3-0.1-2-0.1c0-4.1,0-8.1,0-12c0-0.3,0.6-1,0.7-0.9C1.3,0.5,1.9,0.9,2.1,1
					c2-0.4,3.7-1,5.5-1c2,0,3.5,1.5,3.6,3.5c0.1,2.9,0.1,5.8,0.1,8.7c0,0.4-0.5,0.7-0.8,1.1c-0.3-0.4-0.8-0.8-0.9-1.2
					c-0.1-2.3,0-4.5-0.2-6.8C9.2,2.6,8.1,1.5,6.1,1.6c-2,0-3.9,1.8-4.1,4C1.9,7,2,8.4,2,9.9C2,10.9,2,12,2,13.3"/>
			</g>
			<path id="Fill-22" class="st0" d="M12.5,24.2c1.1,0.4,2.2,0.9,3.3,1.4c3.3-3.1,5.5-3.4,8.7-0.8c-1,3.5-5.2,6.6-8.7,6.4
				c-0.3,0-0.7-0.1-0.8-0.2c-1-2-2-4.1-3-6.1C12.1,24.6,12.3,24.4,12.5,24.2"/>
			<path id="Fill-24" class="st0" d="M39.3,9.4c-3.6,1.1-6.5-1.6-9.8-1.9c0.9-1.1,1.8-2,2.6-3.1c0.7-0.9,0.4-1.9-0.7-2
				c-1.7-0.3-3.4-0.2-5.3-0.3c0-0.4,0.1-1.2,0.1-2C30.3-0.4,37.1,4.4,39.3,9.4"/>
			<path id="Fill-26" class="st0" d="M36.2,19c-0.1,0.9,0,2.2-0.4,3.3c-0.3,0.9-1.2,2.1-1.8,2.1c-2.3,0.1-4.5-0.3-6.8-0.6
				c-0.2,0-0.5-0.8-0.5-1.3c-0.1-0.9,0-1.8,0-2.2C29.8,19.9,32.9,19.5,36.2,19"/>
			<path id="Fill-28" class="st0" d="M129.3,8.6v20.9c-1.2,0.4-1.8,0.3-1.8-1.1c0-6.2,0-12.4,0-18.6C127.5,8.5,128,8.3,129.3,8.6"/>
			<path id="Fill-30" class="st0" d="M41.9,25.6C41,27.8,40,30,39.1,32.4c-2.4-1.3-3.1-6.3-1.8-9.6C38.6,23.6,40.1,24.5,41.9,25.6"
				/>
			<path id="Fill-32" class="st0" d="M35.1,26.3c-1.1,1.5-2,3.2-3.3,4.5c-1.4,1.4-2.5,1.1-3.4-0.8c-0.3-0.7-0.6-1.4-0.8-2.2
				c-0.2-0.7-0.4-1.4-0.6-2.1C29.5,25.9,32.1,26.1,35.1,26.3"/>
			<path id="Fill-34" class="st0" d="M17.9,42c-2.5-0.9-5.1-1.9-8.1-3c3.5-2.8,7-1.6,10.3-1.5C19.4,38.9,18.8,40.2,17.9,42"/>
			<path id="Fill-36" class="st0" d="M31.6,32.8c0.3,1.9,0.6,3.7,1,6c-1.3,0.6-3.1,1.5-4.8,2.3C26.1,37.9,27.8,34.5,31.6,32.8"/>
			<path id="Fill-38" class="st0" d="M26,35.8c-0.1,1.8-0.2,3.6-0.3,5.8C24,41.7,22,41.9,20,42C19.9,39.3,22.4,36.9,26,35.8"/>
			<path id="Fill-40" class="st0" d="M37.7,16.5c1.3,0.5,2.7,1.1,4.3,1.7v5.3C39.1,24.2,36.9,19.6,37.7,16.5"/>
			<path id="Fill-42" class="st0" d="M134.9,23.2c0,1.8,0.1,3.6,0,5.3c0,0.4-0.6,0.8-0.9,1.2c-0.3-0.4-0.8-0.7-0.8-1.1
				c-0.1-3.6-0.1-7.2,0-10.9c0-0.4,0.5-0.7,0.8-1.1c0.3,0.4,0.8,0.8,0.8,1.2C135,19.6,134.9,21.4,134.9,23.2"/>
			<path id="Fill-44" class="st0" d="M38,34.6c-0.6,0.5-1.6,1.2-2.6,1.9c-0.4,0.3-1.2,0.7-1.3,0.6c-0.4-0.4-0.8-1-0.9-1.6
				c-0.3-2.3,0.6-4.4,1.7-6.3C35.9,30.7,36.8,32.3,38,34.6"/>
			<path id="Fill-46" class="st0" d="M23,35.7c-1.3,0.1-2.6,0.3-3.9,0.4c-1.2,0.1-1.6-0.6-0.9-1.5c1.3-1.7,2.8-3.3,4.5-5.3
				C22.9,31.7,22.9,33.5,23,35.7"/>
			<path id="Fill-48" class="st0" d="M36.1,11.1c1.3-0.1,2.6-0.2,4.2-0.3c0.5,1.6,1.1,3.4,1.6,5.3C39.2,16.3,37.1,14.4,36.1,11.1"/>
			<path id="Fill-50" class="st0" d="M1.5,28.6c3.6-0.3,5.4,1,6.5,4.1c-0.9,0.3-1.9,0.6-2.8,0.8c-0.4,0.1-1-0.1-1.1-0.4
				C3.1,31.6,2.4,30.2,1.5,28.6"/>
			<path id="Fill-52" class="st0" d="M16.2,35.7c-2.8-0.6-5.7-1-6.9-3.9c2.7,0.3,5.4,0.5,8.2,0.8C17.2,33.6,16.7,34.6,16.2,35.7"/>
			<path id="Fill-54" class="st0" d="M25.4,26.7c0.9,2.1,1.9,4.1,2.8,6.3c-1,0.5-2.2,1.1-3.6,1.8C23.4,31.8,24.7,29.3,25.4,26.7"/>
			<path id="Fill-56" class="st0" d="M12.1,36c-4,2-4.2,2-6.5-1.2C8.1,33.3,9.9,35.2,12.1,36"/>
			<path id="Fill-58" class="st0" d="M136,11.4c-1,0.7-1.6,1.4-2,1.4c-0.5-0.1-1.1-0.8-1.2-1.3c-0.1-0.3,0.7-1.1,1.2-1.1
				C134.4,10.3,135,10.8,136,11.4"/>
		</g>
	</g>
</g>
</svg>
