<?xml version="1.0" encoding="utf-8"?>
<!-- Generator: Adobe Illustrator 25.4.1, SVG Export Plug-In . SVG Version: 6.00 Build 0)  -->
<svg version="1.1" id="Layer_1" xmlns="http://www.w3.org/2000/svg" xmlns:xlink="http://www.w3.org/1999/xlink" x="0px" y="0px"
	 viewBox="0 0 138 27" style="enable-background:new 0 0 138 27;" xml:space="preserve">
<style type="text/css">
	.st0{fill-rule:evenodd;clip-rule:evenodd;fill:#FFFFFF;}
	.st1{filter:url(#Adobe_OpacityMaskFilter);}
	.st2{mask:url(#mask-2_00000062159124524995241400000016130549562502758045_);fill-rule:evenodd;clip-rule:evenodd;fill:#FFFFFF;}
	.st3{filter:url(#Adobe_OpacityMaskFilter_00000129899161063498785130000001308330185777658772_);}
	.st4{mask:url(#mask-2_00000010270636870685967020000000782398836116340389_);fill-rule:evenodd;clip-rule:evenodd;fill:#FFFFFF;}
	.st5{filter:url(#Adobe_OpacityMaskFilter_00000028304133815765484310000017972469602178824866_);}
	.st6{mask:url(#mask-2_00000182492379170124258960000013615418599013493673_);fill-rule:evenodd;clip-rule:evenodd;fill:#FFFFFF;}
	.st7{filter:url(#Adobe_OpacityMaskFilter_00000107555262567039617060000005702842649511251128_);}
	.st8{mask:url(#mask-2_00000043438482130403735310000006358672508508123299_);fill-rule:evenodd;clip-rule:evenodd;fill:#FFFFFF;}
	.st9{filter:url(#Adobe_OpacityMaskFilter_00000064335656380901446960000012494295375089359501_);}
	.st10{mask:url(#mask-2_00000134237143337406127770000012425888569017930402_);fill-rule:evenodd;clip-rule:evenodd;fill:#FFFFFF;}
	.st11{filter:url(#Adobe_OpacityMaskFilter_00000063617483538711401330000005933453483331446151_);}
	.st12{mask:url(#mask-2_00000095331286161825250450000011429547501330233023_);fill-rule:evenodd;clip-rule:evenodd;fill:#FFFFFF;}
	.st13{filter:url(#Adobe_OpacityMaskFilter_00000127039012032069582010000016362159711582876846_);}
	.st14{mask:url(#mask-2_00000062153815808502123150000015756814740705572487_);fill-rule:evenodd;clip-rule:evenodd;fill:#FFFFFF;}
	.st15{filter:url(#Adobe_OpacityMaskFilter_00000021834817965386437610000007059715746391267986_);}
	.st16{mask:url(#mask-2_00000043417227605472577460000006595749873191939719_);fill-rule:evenodd;clip-rule:evenodd;fill:#FFFFFF;}
</style>
<g id="Page-1">
	<g id="About:-Who-Trusts-Us" transform="translate(-344.000000, -2706.000000)">
		<g id="parallel" transform="translate(344.521570, 2706.986017)">
			<polygon id="Fill-1" class="st0" points="110.1,22.8 113.5,22.8 113.5,3.8 110.1,3.8 			"/>
			<g id="Group-13">
				<path id="Fill-2" class="st0" d="M120.5,14.9c0.2-1,0.6-1.6,1.3-2.1c0.7-0.5,1.4-0.7,2.2-0.7c0.9,0,1.5,0.3,2.1,0.8
					c0.6,0.5,0.9,1.2,1,2H120.5z M127.5,10.2c-1.1-0.6-2.2-0.9-3.5-0.9c-1.5,0-2.6,0.3-3.7,0.9c-1.1,0.6-1.8,1.4-2.4,2.4
					c-0.6,1-0.9,2.2-0.9,3.6s0.3,2.5,0.9,3.6c0.6,1.1,1.4,1.8,2.4,2.4c1.1,0.6,2.2,0.9,3.6,0.9v0c1.1,0,2.1-0.2,3.1-0.7
					c0.9-0.4,1.5-0.9,2.1-1.5c0.6-0.7,1-1.4,1.3-2.2h-3.5c-0.2,0.6-0.6,1-1.1,1.3c-0.5,0.3-1.1,0.5-1.7,0.5c-1,0-1.7-0.3-2.4-0.9
					c-0.7-0.6-1-1.4-1.1-2.4h10.1v-0.7v-0.6c0-1.3-0.3-2.3-0.9-3.3C129.2,11.6,128.5,10.8,127.5,10.2L127.5,10.2z"/>
				<g id="Clip-5">
				</g>
				<defs>
					<filter id="Adobe_OpacityMaskFilter" filterUnits="userSpaceOnUse" x="134.1" y="3.8" width="3.4" height="19.1">
						<feColorMatrix  type="matrix" values="1 0 0 0 0  0 1 0 0 0  0 0 1 0 0  0 0 0 1 0"/>
					</filter>
				</defs>
				
					<mask maskUnits="userSpaceOnUse" x="134.1" y="3.8" width="3.4" height="19.1" id="mask-2_00000062159124524995241400000016130549562502758045_">
					<g class="st1">
						<polygon id="path-1_00000144328964651424442330000000161385431099341976_" class="st0" points="0,26 137.5,26 137.5,0 0,0 
													"/>
					</g>
				</mask>
				<polygon id="Fill-4" class="st2" points="134.1,22.8 137.5,22.8 137.5,3.8 134.1,3.8 				"/>
				<defs>
					
						<filter id="Adobe_OpacityMaskFilter_00000031887422339689278740000010321325744869304247_" filterUnits="userSpaceOnUse" x="75.4" y="9.3" width="8.2" height="13.5">
						<feColorMatrix  type="matrix" values="1 0 0 0 0  0 1 0 0 0  0 0 1 0 0  0 0 0 1 0"/>
					</filter>
				</defs>
				
					<mask maskUnits="userSpaceOnUse" x="75.4" y="9.3" width="8.2" height="13.5" id="mask-2_00000010270636870685967020000000782398836116340389_">
					<g style="filter:url(#Adobe_OpacityMaskFilter_00000031887422339689278740000010321325744869304247_);">
						<polygon id="path-1_00000052081500759280053240000011328317016805246340_" class="st0" points="0,26 137.5,26 137.5,0 0,0 
													"/>
					</g>
				</mask>
				<path id="Fill-6" class="st4" d="M78.8,12.1l-0.3-2.4h-3.1v13.1h3.4v-6c0-1,0.2-1.7,0.5-2.3c0.3-0.6,0.8-1,1.4-1.2
					c0.6-0.3,1.3-0.4,2-0.4h1V9.3c-1.1,0-2,0.3-2.9,0.8C80,10.5,79.3,11.2,78.8,12.1"/>
				<defs>
					
						<filter id="Adobe_OpacityMaskFilter_00000001623502480628822920000009493243633235085201_" filterUnits="userSpaceOnUse" x="59" y="9.4" width="12.6" height="13.7">
						<feColorMatrix  type="matrix" values="1 0 0 0 0  0 1 0 0 0  0 0 1 0 0  0 0 0 1 0"/>
					</filter>
				</defs>
				
					<mask maskUnits="userSpaceOnUse" x="59" y="9.4" width="12.6" height="13.7" id="mask-2_00000182492379170124258960000013615418599013493673_">
					<g style="filter:url(#Adobe_OpacityMaskFilter_00000001623502480628822920000009493243633235085201_);">
						<polygon id="path-1_00000039106574166583263780000009807800147757756047_" class="st0" points="0,26 137.5,26 137.5,0 0,0 
													"/>
					</g>
				</mask>
				<path id="Fill-7" class="st6" d="M67.1,19.5c-0.6,0.7-1.4,1-2.3,1c-0.6,0-1.2-0.2-1.5-0.5c-0.4-0.3-0.6-0.7-0.6-1.2
					c0-0.5,0.2-0.9,0.6-1.2c0.4-0.3,1.1-0.5,1.9-0.5h2.9C68,18.1,67.7,18.9,67.1,19.5 M69.9,10.7c-1.1-0.9-2.5-1.4-4.5-1.4
					c-1.1,0-2.1,0.2-3,0.6c-1,0.4-1.6,1-2.2,1.6c-0.6,0.8-0.9,1.5-1,2.5h3.4c0.1-0.7,0.5-1.2,1-1.5c0.6-0.3,1.2-0.5,1.8-0.5
					c0.7,0,1.4,0.2,1.9,0.7c0.5,0.4,0.8,1.1,0.8,1.9v0.3h-3.4c-1.9,0-3.4,0.4-4.4,1.2c-1,0.8-1.5,1.7-1.5,3c0,0.7,0.2,1.4,0.6,1.9
					c0.4,0.6,0.9,1.1,1.6,1.5c0.8,0.3,1.6,0.5,2.8,0.5v0c1.2,0,2-0.2,2.7-0.8c0.7-0.5,1.3-1.1,1.6-1.7l0.3,2.1h2.9v-8
					C71.5,13,71,11.7,69.9,10.7"/>
				<defs>
					
						<filter id="Adobe_OpacityMaskFilter_00000148640422967220618490000018310521235167927183_" filterUnits="userSpaceOnUse" x="86.2" y="9.4" width="12.6" height="13.7">
						<feColorMatrix  type="matrix" values="1 0 0 0 0  0 1 0 0 0  0 0 1 0 0  0 0 0 1 0"/>
					</filter>
				</defs>
				
					<mask maskUnits="userSpaceOnUse" x="86.2" y="9.4" width="12.6" height="13.7" id="mask-2_00000043438482130403735310000006358672508508123299_">
					<g style="filter:url(#Adobe_OpacityMaskFilter_00000148640422967220618490000018310521235167927183_);">
						<polygon id="path-1_00000096753374816553974050000010036910975115528852_" class="st0" points="0,26 137.5,26 137.5,0 0,0 
													"/>
					</g>
				</mask>
				<path id="Fill-8" class="st8" d="M94.3,19.5c-0.6,0.7-1.4,1-2.3,1c-0.7,0-1.2-0.2-1.5-0.5c-0.4-0.3-0.6-0.7-0.6-1.2
					c0-0.5,0.2-0.9,0.6-1.2c0.4-0.3,1.1-0.5,1.9-0.5h2.9C95.2,18.1,94.9,18.9,94.3,19.5 M97.1,10.7c-1.1-0.9-2.5-1.4-4.5-1.4
					c-1.1,0-2.1,0.2-3,0.6c-1,0.4-1.6,1-2.2,1.6c-0.6,0.8-0.9,1.5-1,2.5h3.4c0.1-0.7,0.5-1.2,1-1.5c0.6-0.3,1.2-0.5,1.8-0.5
					c0.7,0,1.4,0.2,1.9,0.7c0.5,0.4,0.8,1.1,0.8,1.9v0.3H92c-1.9,0-3.4,0.4-4.4,1.2c-1,0.8-1.5,1.7-1.5,3c0,0.7,0.2,1.4,0.6,1.9
					c0.4,0.6,0.9,1.1,1.6,1.5c0.8,0.3,1.6,0.5,2.8,0.5c1.1,0,1.9-0.2,2.7-0.8c0.7-0.5,1.3-1.1,1.6-1.7l0.3,2.1h2.9v-8
					C98.7,13,98.2,11.7,97.1,10.7"/>
				<defs>
					
						<filter id="Adobe_OpacityMaskFilter_00000022540114522980427310000006180024791853343634_" filterUnits="userSpaceOnUse" x="43.6" y="4.2" width="13.6" height="18.5">
						<feColorMatrix  type="matrix" values="1 0 0 0 0  0 1 0 0 0  0 0 1 0 0  0 0 0 1 0"/>
					</filter>
				</defs>
				
					<mask maskUnits="userSpaceOnUse" x="43.6" y="4.2" width="13.6" height="18.5" id="mask-2_00000134237143337406127770000012425888569017930402_">
					<g style="filter:url(#Adobe_OpacityMaskFilter_00000022540114522980427310000006180024791853343634_);">
						<polygon id="path-1_00000031918160037029709860000015303832237893273267_" class="st0" points="0,26 137.5,26 137.5,0 0,0 
													"/>
					</g>
				</mask>
				<path id="Fill-9" class="st10" d="M52.9,12.1c-0.6,0.5-1.5,0.8-2.6,0.8H47V7.1h3.3c1.3,0,2.1,0.3,2.6,0.8
					c0.5,0.5,0.8,1.3,0.8,2.1S53.4,11.6,52.9,12.1 M54.2,5c-1-0.5-2.2-0.8-3.7-0.8h-7v18.5h3.5v-7.2h3.5c1.5,0,2.8-0.3,3.8-0.8
					c1-0.5,1.6-1.2,2.1-2c0.5-0.9,0.7-1.7,0.7-2.8s-0.2-2-0.7-2.9C56,6.2,55.2,5.5,54.2,5"/>
				<defs>
					
						<filter id="Adobe_OpacityMaskFilter_00000130648516132125396770000000518054101817824940_" filterUnits="userSpaceOnUse" x="102.6" y="3.8" width="3.4" height="19.1">
						<feColorMatrix  type="matrix" values="1 0 0 0 0  0 1 0 0 0  0 0 1 0 0  0 0 0 1 0"/>
					</filter>
				</defs>
				
					<mask maskUnits="userSpaceOnUse" x="102.6" y="3.8" width="3.4" height="19.1" id="mask-2_00000095331286161825250450000011429547501330233023_">
					<g style="filter:url(#Adobe_OpacityMaskFilter_00000130648516132125396770000000518054101817824940_);">
						<polygon id="path-1_00000158719836616944901810000015353183840506752424_" class="st0" points="0,26 137.5,26 137.5,0 0,0 
													"/>
					</g>
				</mask>
				<polygon id="Fill-10" class="st12" points="102.6,22.8 106,22.8 106,3.8 102.6,3.8 				"/>
				<defs>
					
						<filter id="Adobe_OpacityMaskFilter_00000058573521044884803250000008700327774935836318_" filterUnits="userSpaceOnUse" x="0" y="12.2" width="32.9" height="13.8">
						<feColorMatrix  type="matrix" values="1 0 0 0 0  0 1 0 0 0  0 0 1 0 0  0 0 0 1 0"/>
					</filter>
				</defs>
				
					<mask maskUnits="userSpaceOnUse" x="0" y="12.2" width="32.9" height="13.8" id="mask-2_00000062153815808502123150000015756814740705572487_">
					<g style="filter:url(#Adobe_OpacityMaskFilter_00000058573521044884803250000008700327774935836318_);">
						<polygon id="path-1_00000091715790715341962990000007427728550368467590_" class="st0" points="0,26 137.5,26 137.5,0 0,0 
													"/>
					</g>
				</mask>
				<path id="Fill-11" class="st14" d="M31.8,17.3l-5.7-2.6l-4.6,2.1c-1.3,0.6-2.7,0.6-4,0L6.9,12.2c-2.8,1.3-5.7,2.5-5.7,2.5
					c-0.1,0-0.1,0.1-0.2,0.1c0,0-0.1,0-0.1,0.1c0,0,0,0-0.1,0c0,0-0.1,0.1-0.1,0.1c0,0,0,0,0,0c0,0-0.1,0.1-0.1,0.1c0,0,0,0,0,0
					c0,0-0.1,0.1-0.1,0.1c0,0,0,0,0,0c0,0-0.1,0.1-0.1,0.1c0,0,0,0,0,0c0,0,0,0.1-0.1,0.1c0,0,0,0,0,0.1c0,0,0,0.1-0.1,0.1
					c0,0,0,0,0,0.1c0,0.1,0,0.1-0.1,0.2c0,0,0,0,0,0.1c0,0,0,0.1,0,0.1c0,0,0,0.1,0,0.1c0,0,0,0.1,0,0.1c0,0,0,0.1,0,0.1
					c0,0,0,0.1,0,0.1c0,0,0,0.1,0,0.1c0,0,0,0.1,0,0.1c0,0,0,0.1,0,0.1c0,0,0,0.1,0,0.1c0,0,0,0.1,0,0.1c0,0,0,0,0,0.1
					c0,0.1,0,0.1,0.1,0.2c0,0,0,0,0,0.1c0,0,0,0.1,0.1,0.1c0,0,0,0,0,0.1c0,0,0,0.1,0.1,0.1c0,0,0,0,0,0c0,0,0,0.1,0.1,0.1
					c0,0,0,0,0,0c0,0,0.1,0.1,0.1,0.1c0,0,0,0,0,0c0,0,0.1,0.1,0.1,0.1c0,0,0,0,0,0c0,0,0.1,0.1,0.1,0.1c0,0,0,0,0.1,0
					c0,0,0.1,0,0.1,0.1c0.1,0,0.1,0.1,0.2,0.1L18,25.6c0.5,0.2,1,0.4,1.5,0.4c0.5,0,1-0.1,1.5-0.4l10.7-4.8c0.5-0.2,0.8-0.6,1-1
					C33.2,18.8,32.7,17.7,31.8,17.3"/>
				<defs>
					
						<filter id="Adobe_OpacityMaskFilter_00000077308550012703165540000007596279457677398696_" filterUnits="userSpaceOnUse" x="0.1" y="0" width="33" height="16.4">
						<feColorMatrix  type="matrix" values="1 0 0 0 0  0 1 0 0 0  0 0 1 0 0  0 0 0 1 0"/>
					</filter>
				</defs>
				
					<mask maskUnits="userSpaceOnUse" x="0.1" y="0" width="33" height="16.4" id="mask-2_00000043417227605472577460000006595749873191939719_">
					<g style="filter:url(#Adobe_OpacityMaskFilter_00000077308550012703165540000007596279457677398696_);">
						<polygon id="path-1_00000071543154387623982320000004245320431558721933_" class="st0" points="0,26 137.5,26 137.5,0 0,0 
													"/>
					</g>
				</mask>
				<path id="Fill-12" class="st16" d="M11.9,9.9L12,9.9C12,9.9,11.9,9.9,11.9,9.9 M25.1,14.3l1.1-0.5l5.7-2.6c1-0.4,1.4-1.5,1-2.5
					c0-0.1,0-0.1-0.1-0.2C32.7,8.3,32.4,8,32,7.8L15.3,0.4c-1.1-0.5-2.2-0.5-3.2,0L1.3,5.3c-0.5,0.2-0.8,0.6-1,1
					C0,6.9,0.1,7.6,0.5,8.1c0.2,0.2,0.4,0.4,0.7,0.5l5.7,2.5L8,11.6l3.7-1.6c-0.6,0.3-2.2,1-3.7,1.6l10,4.4c1,0.5,2.1,0.5,3.2,0
					L25.1,14.3"/>
			</g>
		</g>
	</g>
</g>
</svg>
