<?xml version="1.0" encoding="utf-8"?>
<!-- Generator: Adobe Illustrator 25.4.1, SVG Export Plug-In . SVG Version: 6.00 Build 0)  -->
<svg version="1.1" id="Layer_1" xmlns="http://www.w3.org/2000/svg" xmlns:xlink="http://www.w3.org/1999/xlink" x="0px" y="0px"
	 viewBox="0 0 153 41" style="enable-background:new 0 0 153 41;" xml:space="preserve">
<style type="text/css">
	.st0{fill-rule:evenodd;clip-rule:evenodd;fill:#FFFFFF;}
	.st1{filter:url(#Adobe_OpacityMaskFilter);}
	.st2{mask:url(#mask-2_00000183932655237810850760000002727195782566843835_);fill-rule:evenodd;clip-rule:evenodd;fill:#FFFFFF;}
</style>
<g id="Page-1">
	<g id="About:-Who-Trusts-Us" transform="translate(-579.000000, -2696.000000)">
		<g id="parrot" transform="translate(579.994424, 2696.986517)">
			<path id="Fill-1" class="st0" d="M106.6,18.7c-0.2,0-0.3,0-0.5,0l0,0c-1.2,0-2.4,0.4-3.6,1.1c-0.7,0.5-1.3,1-1.8,1.7
				c0-0.3,0-0.7-0.1-1.1l0-1.4h-0.4h-0.5h-3.3H96h-0.5v1.6H96h0.4h2v11.8h-2.2h-0.4h-0.5V34h0.5h0.4h6.7h0.5h0.4v-1.6h-0.4h-0.5
				h-2.1v-6.6c0-0.8,0.2-1.5,0.5-2.2c0.3-0.7,0.7-1.2,1.3-1.7c0.5-0.5,1.2-0.9,1.9-1.1c0.7-0.3,1.5-0.4,2.4-0.5l0.1-1.6
				C106.8,18.7,106.7,18.8,106.6,18.7L106.6,18.7z"/>
			<path id="Fill-3" class="st0" d="M120.2,18.7c-0.2,0-0.3,0-0.5,0l0,0c-1.2,0-2.4,0.4-3.6,1.1c-0.7,0.5-1.3,1-1.8,1.7
				c0-0.3,0-0.7-0.1-1.1l0-1.4h-0.4h-0.5H110h-0.4h-0.5v1.6h0.5h0.4h2v11.8h-2.2h-0.4h-0.5V34h0.5h0.4h6.7h0.5h0.4v-1.6H117h-0.5
				h-2.1v-6.6c0-0.8,0.2-1.5,0.5-2.2c0.3-0.7,0.7-1.2,1.3-1.7c0.5-0.5,1.2-0.9,1.9-1.1c0.7-0.3,1.5-0.4,2.4-0.5l0.1-1.6
				C120.5,18.7,120.3,18.8,120.2,18.7L120.2,18.7z"/>
			<path id="Fill-5" class="st0" d="M60.9,19.2V7.6h3.3c1,0,1.9,0.2,2.8,0.5c0.9,0.3,1.6,0.7,2.3,1.3c0.6,0.5,1.1,1.2,1.5,1.8
				c0.4,0.7,0.5,1.4,0.5,2.2c0,0.6-0.1,1.3-0.4,2c-0.2,0.7-0.6,1.3-1.1,1.9c-0.5,0.6-1.3,1.1-2.2,1.4c-0.9,0.4-2.1,0.6-3.5,0.6H60.9
				z M70.7,7.7c-0.9-0.6-1.8-1-2.7-1.3C67,6.1,66.1,6,65.3,6h-0.4h-0.5h-7.5h-0.4H56v1.6h0.5h0.4h1.5v24.7h-1.5h-0.4H56v1.6h0.5h0.4
				h7.1h0.5h0.4v-1.6h-0.4h-0.5h-3V20.8h3.5h0.5h0.4c2.7,0,4.8-0.7,6.3-2c1.5-1.4,2.2-3.2,2.2-5.5c0-1.3-0.3-2.4-0.9-3.3
				C72.3,9,71.6,8.2,70.7,7.7L70.7,7.7z"/>
			<path id="Fill-7" class="st0" d="M78.3,30.5c-0.5-0.6-1-1.2-1.3-2c-0.3-0.7-0.5-1.5-0.5-2.4c0-0.9,0.2-1.7,0.5-2.4
				c0.3-0.8,0.7-1.4,1.3-2c0.5-0.6,1.2-1,1.9-1.3c0.6-0.3,1.2-0.4,1.9-0.4c0.7,0.1,1.3,0.2,1.9,0.4c0.7,0.3,1.4,0.8,1.9,1.3
				c0.5,0.6,1,1.2,1.3,2c0.3,0.8,0.5,1.6,0.5,2.4c0,0.9-0.2,1.7-0.5,2.4c-0.3,0.7-0.7,1.4-1.3,2c-0.5,0.6-1.2,1-1.9,1.3
				c-0.6,0.3-1.2,0.4-1.9,0.4c-0.7-0.1-1.3-0.2-2-0.4C79.5,31.5,78.9,31,78.3,30.5L78.3,30.5z M92.5,32h-1.9V18.7H90h0h-0.4h0h-0.4
				h-0.6h-0.5c0,0.6-0.1,1.2-0.1,1.8c0,0.1,0,0.1,0,0.2c-0.4-0.4-0.8-0.8-1.2-1.1c-0.5-0.4-1.2-0.7-1.8-0.9
				c-0.7-0.2-1.4-0.3-2.2-0.3c-0.1,0-0.2,0-0.4,0c-0.1,0-0.1,0-0.2,0c-0.1,0-0.2,0-0.3,0c-0.1,0-0.1,0-0.2,0c-1.1,0-2.1,0.2-3,0.6
				c-0.9,0.4-1.8,1-2.5,1.7c-0.7,0.7-1.2,1.5-1.6,2.5C74.2,24,74,25,74,26.1c0,1.1,0.2,2.1,0.6,3c0.4,0.9,1,1.8,1.6,2.5
				c0.7,0.7,1.5,1.2,2.5,1.7c0.9,0.4,1.9,0.6,3,0.6c0.1,0,0.1,0,0.2,0c0.1,0,0.2,0,0.3,0c0.1,0,0.2,0,0.2,0c0.1,0,0.2,0,0.4,0
				c0.8,0,1.5-0.1,2.2-0.3c0.7-0.2,1.3-0.5,1.8-0.8c0.4-0.3,0.8-0.6,1.1-0.9c0,0.1,0,0.1,0,0.2v1.6h0.5H89h3.5H93h0.6V32H93H92.5z"
				/>
			<path id="Fill-9" class="st0" d="M128.7,31.8c-0.7-0.3-1.4-0.8-1.9-1.3c-0.5-0.6-1-1.2-1.3-2c-0.3-0.7-0.5-1.5-0.5-2.4
				c0-0.9,0.2-1.7,0.5-2.4c0.3-0.7,0.8-1.4,1.3-2c0.5-0.6,1.2-1,1.9-1.4c0.6-0.3,1.3-0.4,1.9-0.5c0.7,0,1.3,0.2,2,0.5
				c0.8,0.3,1.4,0.8,2,1.4c0.6,0.6,1,1.2,1.3,2c0.3,0.7,0.5,1.5,0.5,2.4c0,0.9-0.2,1.7-0.5,2.4c-0.3,0.7-0.8,1.4-1.3,2
				c-0.5,0.6-1.2,1-2,1.3c-0.6,0.3-1.3,0.4-1.9,0.4C130,32.2,129.4,32.1,128.7,31.8 M136.8,20.6c-0.7-0.7-1.5-1.3-2.5-1.7
				c-1-0.4-2-0.6-3-0.6c-0.1,0-0.1,0-0.2,0c-0.1,0-0.1,0-0.2,0c-0.1,0-0.2,0-0.2,0c-0.1,0-0.2,0-0.2,0c-1.1,0-2.1,0.2-3,0.6
				c-0.9,0.4-1.8,1-2.4,1.7c-0.7,0.7-1.3,1.5-1.7,2.5c-0.4,1-0.6,2-0.6,3s0.2,2.1,0.6,3c0.4,0.9,1,1.8,1.7,2.5
				c0.7,0.7,1.5,1.2,2.4,1.7c0.9,0.4,1.9,0.6,3,0.6c0.1,0,0.2,0,0.2,0c0.1,0,0.2,0,0.2,0c0.1,0,0.1,0,0.2,0c0.1,0,0.1,0,0.2,0
				c1.1,0,2.1-0.2,3-0.6c1-0.4,1.8-1,2.5-1.7c0.7-0.7,1.3-1.5,1.7-2.5s0.6-2,0.6-3c0-1-0.2-2.1-0.6-3
				C138.1,22.2,137.5,21.4,136.8,20.6"/>
			<polygon id="Fill-11" class="st0" points="151.6,18.9 151.1,18.9 147.4,18.9 147.4,9.2 147,9.2 146.8,9.2 145.9,9.2 145.4,9.2 
				145.3,9.2 145.3,18.9 142.4,18.9 142,18.9 142,18.9 142,20.5 142,20.5 142.4,20.5 145.3,20.5 145.3,33.8 145.4,33.8 145.9,33.8 
				149.9,33.8 150.3,33.8 150.7,33.8 150.7,32.2 150.3,32.2 149.9,32.2 147.4,32.2 147.4,20.5 151.1,20.5 151.6,20.5 152,20.5 
				152,18.9 			"/>
			<g id="Group-15">
				<g id="Clip-14">
				</g>
				<defs>
					<filter id="Adobe_OpacityMaskFilter" filterUnits="userSpaceOnUse" x="0" y="0" width="40" height="40">
						<feColorMatrix  type="matrix" values="1 0 0 0 0  0 1 0 0 0  0 0 1 0 0  0 0 0 1 0"/>
					</filter>
				</defs>
				
					<mask maskUnits="userSpaceOnUse" x="0" y="0" width="40" height="40" id="mask-2_00000183932655237810850760000002727195782566843835_">
					<g class="st1">
						<polygon id="path-1_00000140011759598100340590000016795430569504358274_" class="st0" points="0,0 40,0 40,40 0,40 						"/>
					</g>
				</mask>
				<path id="Fill-13" class="st2" d="M6.9,22.9c0.2,0.8,0.6,1.6,1.1,2.2c0.2,0.2,0.4,0.5,0.6,0.7c0,0,0,0,0,0
					C8.8,26,9,26.1,9.3,26.3c0,0,0,0,0,0c0.2,0.2,0.4,0.3,0.7,0.5c0,0,0.1,0,0.1,0.1c0.2,0.1,0.4,0.2,0.7,0.3c0.1,0,0.1,0.1,0.2,0.1
					c0.2,0.1,0.3,0.1,0.5,0.2c0.8,0.3,1.8,0.5,2.8,0.6c0.2,0,0.4,0,0.6,0.1c0.1,0,0.2,0,0.3,0c0,0,0,0,0,0c0,0,0,0,0,0
					c0,0,0,0,0.1,0c0.1,0,0.1,0,0.2,0c1,0,0.7-3-1.9-3.1c-0.2,0-0.4,0-0.6,0c-0.1-0.8,0.3-1.8-1.2-3.1c-0.4-0.3-0.9-0.8-1.5-1.4
					c-0.1-0.5-0.2-1.1-0.5-1.7C8.9,16.5,12.2,5.2,23.4,6.1c0,0,0,0,0,0c3.3,0.5,5.3,1.8,6.6,3.5c-0.4,0-0.8,0.2-1.1,0.5
					c-0.3,0.3-0.5,0.7-0.5,1.2c0,0.9,0.7,1.6,1.7,1.6c0,0,0,0,0,0c0,0,0,0,0,0c0.6,0,1.1-0.3,1.4-0.7c0.4,0.9,0.7,1.8,1,2.7
					c0.3,0.8,0.5,1.6,0.8,2.3c1.7,4.1-0.4,8.1-1.8,9.7c-0.5,0.6-0.9,2.4-1.1,4.4c-0.2,1.4-0.3,3-0.3,4.4c-2.9,1.8-6.3,2.9-10,2.9
					c-8.1,0-14.9-5.1-17.5-12.2C4.8,25.8,6.1,24.3,6.9,22.9L6.9,22.9z M20,1.3c10.3,0,18.7,8.4,18.7,18.7c0,6.1-2.9,11.4-7.4,14.9
					c0.1-3,0.4-6.2,1.2-7.1c2.1-2.5,3.6-7,1.9-11.1c-0.3-0.7-0.5-1.4-0.8-2.2c-1.3-3.8-2.9-8.6-10.1-9.7c-0.4-0.1-0.8-0.1-1.2-0.1
					C16.2,4.4,9.1,8.6,7,16.6c-0.3,1.1-0.4,2.1-0.5,3v0c0,0.1-0.5,4.5-4.6,5.6c-0.5-1.7-0.8-3.4-0.8-5.2C1.3,9.7,9.7,1.3,20,1.3
					L20,1.3z M31.3,36.5C36.6,32.9,40,26.8,40,20C40,9,31,0,20,0C9,0,0,9,0,20c0,2,0.3,3.8,0.8,5.6l0.4,1.3C4,34.5,11.4,40,20,40
					c3.6,0,7-1,9.9-2.7L31.3,36.5z"/>
			</g>
			<path id="Fill-16" class="st0" d="M23.1,20.2c0.6,1.3,1.3,2.5,2,3.7c0,0,0,0.1,0.1,0.1c0,0,0,0,0,0c0,0,0,0,0.1-0.1
				c0.3-0.5,0.7-1,1-1.6c0.6-1.1,1.1-2.1,1.5-3.3c0.3-0.8,0.5-1.7,0.5-2.7c0-0.2,0-0.5-0.1-0.8c-0.1-0.8-0.3-1.7-0.6-2.5
				c-0.3-0.6-0.6-1.2-1.1-1.6c-0.3-0.3-0.7-0.4-1.1-0.5c0,0,0,0,0,0c-0.1,0-0.3,0-0.4,0c-0.4,0.1-0.8,0.3-1.1,0.6
				c-0.5,0.5-0.8,1.1-1.1,1.7c-0.4,0.9-0.5,1.9-0.6,2.9c0,0.5,0,1,0.1,1.5C22.5,18.6,22.8,19.4,23.1,20.2"/>
			<path id="Fill-18" class="st0" d="M18.2,12.9C18.2,12.9,18.2,12.9,18.2,12.9C18.2,12.9,18.2,12.9,18.2,12.9
				c0.9,0,1.7-0.7,1.7-1.6c0-0.9-0.8-1.6-1.7-1.6c0,0,0,0,0,0c0,0,0,0,0,0c-0.9,0-1.7,0.7-1.7,1.6C16.5,12.2,17.3,12.9,18.2,12.9"/>
		</g>
	</g>
</g>
</svg>
