<?xml version="1.0" encoding="utf-8"?>
<!-- Generator: Adobe Illustrator 25.4.1, SVG Export Plug-In . SVG Version: 6.00 Build 0)  -->
<svg version="1.1" id="Layer_1" xmlns="http://www.w3.org/2000/svg" xmlns:xlink="http://www.w3.org/1999/xlink" x="0px" y="0px"
	 viewBox="0 0 136 47" style="enable-background:new 0 0 136 47;" xml:space="preserve">
<style type="text/css">
	.st0{fill:#FFFFFF;}
</style>
<g>
	<path class="st0" d="M48.8,15h-6.1v16.4h3.2v-6.2h2.9c3.2,0,5.4-2.1,5.4-5.1C54.2,17.1,52.1,15,48.8,15z M48.5,22.5H46v-4.7h2.5
		c1.6,0,2.6,0.9,2.6,2.4C51,21.5,50,22.5,48.5,22.5z"/>
	<path class="st0" d="M62.5,19.7c-1.1,0-2.3,0.4-3.1,1.3v-6.3h-3.1v16.8h3.1v-6.7c0.1-1.3,0.8-2.2,2.1-2.2c1.5,0,2.1,1,2.1,2.3v6.7
		h3.1v-7.2C66.8,21.7,65.4,19.7,62.5,19.7z"/>
	<path class="st0" d="M79.3,24c0-2.3-1.3-4.3-5-4.3c-3.1,0-4.7,2-4.9,3.8l2.7,0.6c0.1-1,0.8-1.9,2.2-1.9c1.3,0,1.9,0.7,1.9,1.5
		c0,0.4-0.2,0.7-0.9,0.8l-2.8,0.4c-1.9,0.3-3.4,1.4-3.4,3.5c0,1.8,1.5,3.4,3.9,3.4c1.7,0,2.8-0.8,3.4-1.7c0,0.4,0,1.1,0.1,1.4h2.8
		c-0.1-0.4-0.1-1.2-0.1-1.8V24H79.3z M76.3,26.8c0,2-1.2,2.6-2.5,2.6c-1,0-1.5-0.6-1.5-1.3c0-0.9,0.6-1.3,1.4-1.4l2.6-0.4V26.8z"/>
	<path class="st0" d="M88.7,19.7c-1.2,0-2.6,0.5-3.3,1.7V20h-3v11.4h3.1v-6.6c0-1.3,0.8-2.4,2.1-2.4c1.5,0,2.1,1,2.1,2.3v6.7h3.1
		v-7.2C92.8,21.7,91.5,19.7,88.7,19.7z"/>
	<path class="st0" d="M99.7,16.6h-2.8v1.6c0,1-0.6,1.8-1.8,1.8h-0.6v2.7h2.1V28c0,2.2,1.4,3.5,3.6,3.5c0.9,0,1.5-0.2,1.7-0.3v-2.5
		c-0.2,0-0.6,0.1-1,0.1c-0.9,0-1.3-0.3-1.3-1.3v-4.8h2.3V20h-2.3v-3.4H99.7z"/>
	<path class="st0" d="M109.7,19.7c-3.4,0-6,2.5-6,6s2.6,6,6,6s6-2.5,6-6C115.6,22.2,113.1,19.7,109.7,19.7z M109.7,28.9
		c-1.5,0-2.9-1.1-2.9-3.2c0-2.2,1.4-3.2,2.9-3.2s2.9,1.1,2.9,3.2S111.2,28.9,109.7,28.9z"/>
	<path class="st0" d="M131.3,19.7c-1.5,0-2.7,0.5-3.6,1.9c-0.6-1.2-1.8-1.9-3.4-1.9c-1.3,0-2.7,0.6-3.3,1.7V20h-2.9v11.4h3.1v-6.7
		c0-1.3,0.8-2.2,2.1-2.2c1.4,0,2,0.9,2,2.2v6.8h3.1v-6.7c0-1.2,0.8-2.2,2.1-2.2c1.4,0,2,0.9,2,2.2v6.8h3V24
		C135.5,21,133.5,19.7,131.3,19.7z"/>
	<path class="st0" d="M13.5,19.8c-0.8,0-1.4,0.6-1.4,1.4v2.2c0,0.8,0.6,1.4,1.4,1.4c0.8,0,1.4-0.6,1.4-1.4v-2.2
		C14.9,20.4,14.2,19.8,13.5,19.8z"/>
	<path class="st0" d="M8.7,19.8c-0.8,0-1.4,0.6-1.4,1.4v2.2c0,0.8,0.6,1.4,1.4,1.4s1.4-0.6,1.4-1.4v-2.2
		C10.1,20.4,9.5,19.8,8.7,19.8z"/>
	<path class="st0" d="M16,7.3c-8.7,0-15.7,7-15.7,15.7s7,15.7,15.7,15.7s15.7-7,15.7-15.7S24.6,7.3,16,7.3z M28.6,24.8
		c-1.1,4.8-7.8,8.8-12.9,8.8H15c-5.7,0-11.1-5-11-10.7c0.1-5.5,4.6-10,10.2-10s10.2,4.6,10.2,10.2h2.8
		C28.1,23.1,28.8,23.9,28.6,24.8z"/>
</g>
</svg>
