<?xml version="1.0" encoding="utf-8"?>
<!-- Generator: Adobe Illustrator 25.4.1, SVG Export Plug-In . SVG Version: 6.00 Build 0)  -->
<svg version="1.1" id="Layer_1" xmlns="http://www.w3.org/2000/svg" xmlns:xlink="http://www.w3.org/1999/xlink" x="0px" y="0px"
	 viewBox="0 0 225 51" style="enable-background:new 0 0 225 51;" xml:space="preserve">
<style type="text/css">
	.st0{fill-rule:evenodd;clip-rule:evenodd;fill:#FFFFFF;}
	.st1{filter:url(#Adobe_OpacityMaskFilter);}
	.st2{mask:url(#mask-2_00000124147902835465968600000013801704454370042780_);fill-rule:evenodd;clip-rule:evenodd;fill:#FFFFFF;}
</style>
<g id="Page-1">
	<g id="Resources" transform="translate(-1202.000000, -1471.000000)">
		<g id="Group-18" transform="translate(1202.808010, 1471.805535)">
			<path id="Fill-1" class="st0" d="M105.5,30.5c0.1,0,0.2-0.1,0.3-0.2C105.7,30.4,105.6,30.5,105.5,30.5 M109.8,26.9
				c0,0.1-0.1,0.3-0.2,0.4C109.7,27.1,109.7,27,109.8,26.9c0.1-0.2,0.1-0.4-0.1-0.7c-0.4,0.5-0.4,1.1-0.6,1.7c0,0-0.1,0.1,0,0.1
				c0,0,0,0,0,0c-0.8,0.9-1.6,1.6-2.7,2.2c-0.1,0-0.3,0-0.4,0c-0.1,0-0.1,0.1-0.2,0.1c0.1,0,0.1-0.1,0.2-0.1c-0.9,0-1.7-0.1-2.6-0.1
				c-0.2-0.1-0.4-0.2-0.6-0.2l0,0c-0.1-0.1-0.2-0.3-0.3-0.4c-1.9-1.7-2.5-3.8-1.8-6.2c0.6-2.1,2.3-3.5,4.4-3.5c2,0,3.7,1.4,4.3,3.5
				c0.1,0.3,0.2,0.5,0.3,0.8c0,0.7,0,1.5,0,2.2C109.8,26.4,109.8,26.7,109.8,26.9 M105,30.6c0.1,0,0.1,0,0.2,0
				C105.1,30.6,105.1,30.6,105,30.6 M104.4,14.7c-5.5,0.3-10.3,3.8-10.3,11.6c0,1.5,0.7,4.1,2.8,6.1c3.4,3.1,7.4,3.6,11.6,2.5
				c8.2-2.2,9.5-12.4,4.3-17.3C110.5,15.3,107.6,14.5,104.4,14.7"/>
			<g id="Group-5">
				<g id="Clip-4">
				</g>
				<defs>
					<filter id="Adobe_OpacityMaskFilter" filterUnits="userSpaceOnUse" x="0" y="0" width="57.3" height="50">
						<feColorMatrix  type="matrix" values="1 0 0 0 0  0 1 0 0 0  0 0 1 0 0  0 0 0 1 0"/>
					</filter>
				</defs>
				
					<mask maskUnits="userSpaceOnUse" x="0" y="0" width="57.3" height="50" id="mask-2_00000124147902835465968600000013801704454370042780_">
					<g class="st1">
						<polygon id="path-1_00000006666824084241061890000015743952519272984209_" class="st0" points="0,0 57.3,0 57.3,50 0,50 
													"/>
					</g>
				</mask>
				<path id="Fill-3" class="st2" d="M57.3,25.4c0-1.4-0.6-2.4-1.9-3.1c-3.9-2.2-7.8-4.4-11.6-6.7c-1.7-1-3.3-1-4.9,0
					c-2.9,1.7-5.8,3.5-8.7,5.2C26.1,23,22,25.4,18,27.8c-1.4,0.8-2.7,0.9-4.2,0.1c-2.1-1.2-4.2-2.4-6.2-3.6c-1.1-0.7-1.8-1.7-1.8-3
					c0-2.2,0.1-4.4,0-6.7c-0.1-2,0.8-3.2,2.5-4.1c1.7-0.9,3.4-1.9,5-2.9c1.7-1,3.2-1,4.9,0c1.8,1.1,3.7,2.2,5.6,3.2
					c1.2,0.7,1.8,1.7,1.8,3.1c0,1.3,0,2.6,0,3.9c0,0.7,0.2,1,0.9,0.6c1.4-0.8,2.9-1.7,4.3-2.5c0.4-0.2,0.6-0.5,0.6-1
					c0-1.5,0-3,0-4.5c0-1.3-0.6-2.3-1.7-2.9c-4-2.3-8-4.7-12-7c-1.2-0.7-2.5-0.7-3.7,0C10,2.7,6.1,5,2.2,7.2C0.6,8.1,0,9.4,0,11.1
					c0,4.3,0.1,8.5,0,12.8c0,2,0.7,3.3,2.5,4.3c3.7,2,7.3,4.1,10.9,6.2c1.6,1,3.1,1,4.7,0.1c2.4-1.4,4.8-2.8,7.2-4.1
					c4.6-2.7,9.2-5.3,13.8-8c1.3-0.7,2.5-1.1,3.9-0.4c2.3,1.3,4.7,2.5,6.9,4c1,0.6,1.5,1.5,1.5,2.7c0,2.5,0,4.9,0,7.4
					c0,1.3-0.5,2.3-1.6,3C47.9,40,46,41,44.3,42.2c-1.5,1-3,1.4-4.7,0.8c-0.1,0-0.1-0.1-0.2-0.1c-0.1-0.1-0.1-0.2-0.2-0.3
					c-1.8-1-3.6-2-5.4-3c-1.4-0.8-2.4-1.9-2.3-3.7c0.1-1.2,0-2.5,0-3.7c0-0.7-0.2-0.8-0.8-0.5c-1.5,0.9-3,1.8-4.5,2.6
					c-0.4,0.2-0.5,0.5-0.5,0.9c0,1.5,0,3,0,4.4c0,1.2,0.5,2.2,1.6,2.8c4.1,2.4,8.2,4.7,12.3,7.1c1.2,0.7,2.5,0.7,3.7,0
					c4-2.3,8-4.5,12-6.9c1.2-0.7,1.9-1.8,1.9-3.3C57.2,34.7,57.3,30.1,57.3,25.4"/>
			</g>
			<path id="Fill-6" class="st0" d="M75.6,22.6l0.1-0.3c0,0,0,0,0,0c0.1-0.1,0.3-0.2,0.4-0.4c1.7-2.2,3.8-2.3,6-1.9
				c1.9,0.4,3.6,2.6,3.5,5.2c-0.1,2.1-1,3.5-2.8,4.4c-1.9,1-3.9,0.9-5.7-0.4c-1-0.7-1.6-1.7-1.5-3C75.7,25.1,75.6,23.9,75.6,22.6
				 M82.4,14.4c-2.3,0-4.5,0.8-6.5,2.2c-0.6,0.5-0.9,0.5-1-0.4c-0.1-0.9-0.6-1.3-1.5-1.2c-1,0.1-2,0.1-3,0c-0.9-0.1-1.2,0.2-1.2,1.2
				c0.1,4.5,0,8.9,0,13.4c0,4.5,0,9,0,13.5c0,0.7,0.2,1,0.9,1c1.4,0,2.8-0.1,4.2,0c0.9,0,1.2-0.3,1.2-1.2c-0.1-2.9,0-5.7,0-8.6
				c0-0.6,0.2-0.8,0.7-0.4c0.4,0.3,0.9,0.6,1.4,0.8c2.1,1,4.2,1,6.4,0.5c2.8-0.5,5.1-1.8,6.5-4.4c1.9-3.4,1.9-7,0.5-10.6
				C89.5,16.3,86.3,14.5,82.4,14.4"/>
			<path id="Fill-8" class="st0" d="M164,19.8c1.4,0.3,2.7,0.8,3.6,2.1c0.7,1,0.3,2.1,0.5,3c0,0.4,0,0.6,0,0.9c0,2.2-1,3.6-3.2,4.2
				c-3.2,1-6-0.3-7-3.3c-0.6-1.8-0.5-3.6,0.9-5.1C160.1,20,161.9,19.4,164,19.8 M173.5,15.6c-1.4,0-2.8,0-4.3,0
				c-0.5,0-0.9,0.1-1,0.7c-0.1,0.6-0.5,0.6-0.9,0.2c-0.1-0.1-0.3-0.2-0.4-0.3c-2.1-1.3-4.4-1.5-6.7-1.5c-3.4,0.1-7.4,3.2-8.3,6.5
				c-0.1,0.2-0.2,0.4-0.2,0.6c-0.5,0.8-0.6,1.7-0.5,2.6c-0.1,0.5-0.1,1.1,0,1.6c0,1.4,0.3,2.7,1.2,3.8c0,0,0,0.1,0,0.1
				c0,0.4,0.2,0.8,0.6,1c0,0.2,0.1,0.3,0.2,0.3c1,1.9,2.7,3,4.7,3.7c1.3,0.5,2.7,0.8,4.2,0.4c0.1,0,0.2,0,0.4,0
				c2.2,0,3.9-1.1,5.6-2.8c0,1.6,0.2,2.9-0.4,4.2c-0.8,1.7-3.3,2.8-5.6,2.5c-1.8-0.2-3.3-0.9-4.6-2.1c-0.4-0.3-0.7-0.6-1.1,0
				c-0.9,1.1-1.8,2.1-2.7,3.2c-0.3,0.4-0.4,0.7,0.1,1c0.8,0.6,1.5,1.2,2.3,1.7c3.5,2,7.3,2.2,11.1,1.1c3.9-1.2,7.5-4.6,7.4-9.7
				c-0.2-5.9,0-11.8,0-17.7C174.3,15.8,174.1,15.6,173.5,15.6"/>
			<path id="Fill-10" class="st0" d="M150.1,15.6c-1.3,0-2.6,0-3.9,0c-0.6,0-0.9,0.2-1.2,0.8c-1.3,3.1-2.7,6.2-4.1,9.3
				c-0.1,0.3-0.2,0.8-0.5,0.8c-0.4,0.1-0.3-0.5-0.5-0.7c-0.1-0.1-0.2-0.3-0.3-0.4c0,0,0-0.1,0-0.1c0-0.2,0-0.3-0.1-0.5
				c-1.3-2.9-2.6-5.8-3.9-8.7c-0.2-0.5-0.6-0.5-1-0.5c-1.8,0-3.5,0-5.3,0c-1.1,0-1.1,0-0.6,1c2.7,5.5,5.4,11,8,16.5
				c0.3,0.5,0.3,1,0,1.6c-1.3,2.8-2.6,5.7-3.9,8.6c-0.4,0.8-0.1,0.9,0.6,0.9c1.4,0,2.8,0,4.2,0c0.6,0,0.9-0.2,1.2-0.8
				c2-4.5,4-9,5.9-13.5c2-4.5,3.9-9,5.9-13.4C151,15.6,150.7,15.5,150.1,15.6"/>
			<path id="Fill-12" class="st0" d="M123.4,0.1c-0.4,0-0.7,0-1.1,0c-0.5,0-1,0-1.6-0.1c-0.9-0.1-1.1,0.3-1.1,1.1
				c0,10.6,0,21.1,0,31.7c0,0.5,0,0.9,0,1.4c0,0.3,0.1,0.6,0.4,0.6c1.7,0,3.3,0.1,5-0.1c0.8-0.1,0.9-0.4,0.9-1.1
				c0-10.4,0-20.9,0-31.3C125.9-0.1,125.9-0.1,123.4,0.1"/>
			<path id="Fill-14" class="st0" d="M223.2,19.7c0-1-0.3-2-1.2-2.7c-0.1-0.1-0.2-0.2-0.2-0.3c-0.3-0.5-0.7-0.8-1.3-1
				c-0.1,0-0.1-0.1-0.2-0.1c-0.9-0.6-1.9-1-3-0.9c-0.4,0-0.7,0-1.1,0c-2.7,0-4.9,1.1-6.4,3.4c-0.1,0.1-0.2,0.1-0.3,0.2
				c-0.1-0.1-0.2-0.1-0.3-0.2c0-0.1,0-0.3,0-0.4c0-0.3,0-0.7,0-1c0-0.8-0.3-1.1-1.2-1.1c-1.3,0.1-2.6,0-3.9,0
				c-0.6,0-0.8,0.2-0.7,0.8c0,6,0,12,0,17.9c-0.1,0.6,0.3,0.6,0.7,0.6c1.5,0,3,0,4.5,0c0.7,0,0.9-0.2,0.9-0.9c0-1.9,0-3.8,0-5.7
				c0-2,0.1-4,1-5.9c0,0,0,0,0,0c0.3-0.3,0.6-0.7,0.7-1.1c0.2,0,0.3-0.2,0.4-0.4c1.6-1,3.2-1.3,4.8-0.1c0,0,0,0,0,0
				c0.4,1,0.5,2.1,0.5,3.2c0,3.3,0,6.6,0,9.9c0,0.5,0,1,0.7,1c1.6,0,3.3,0,4.9,0c0.5,0,0.7-0.1,0.7-0.6
				C223.3,29.4,223.3,24.5,223.2,19.7"/>
			<path id="Fill-16" class="st0" d="M184.4,26.6c-0.2-0.6-0.3-1.2-0.2-1.8c0-2.1,0.9-3.8,2.9-4.6c1.7-0.7,3.4-0.5,4.8,0.8
				c1.1,0.9,1.5,2.2,1.5,3.5c0.1,2.4-0.7,4.5-2.8,5.3C187.8,30.9,185.2,29.5,184.4,26.6 M195.9,16.7c-2.9-2.2-6.2-2.6-9.6-1.9
				c-1.4,0.3-2.8,0.6-3.8,1.7c0,0-0.1,0-0.1,0c-0.6,0.2-1,0.6-1.4,1c-2.8,2.7-3.5,6-2.8,9.7c0.5,2.9,2,5.2,4.6,6.5
				c4.1,2.2,8.3,2.1,12.4-0.1c3.1-1.7,4.6-4.6,4.6-8.2c0-0.2,0-0.4,0-0.6C199.8,21.5,198.5,18.8,195.9,16.7"/>
		</g>
	</g>
</g>
</svg>
