<?xml version="1.0" encoding="utf-8"?>
<!-- Generator: Adobe Illustrator 25.4.1, SVG Export Plug-In . SVG Version: 6.00 Build 0)  -->
<svg version="1.1" id="Layer_1" xmlns="http://www.w3.org/2000/svg" xmlns:xlink="http://www.w3.org/1999/xlink" x="0px" y="0px"
	 viewBox="0 0 104 53" style="enable-background:new 0 0 104 53;" xml:space="preserve">
<style type="text/css">
	.st0{fill-rule:evenodd;clip-rule:evenodd;fill:#FFFFFF;}
</style>
<g id="Page-1">
	<g id="About:-Who-Trusts-Us" transform="translate(-849.000000, -530.000000)">
		<g id="reef" transform="translate(849.139007, 530.162858)">
			<path id="Fill-1" class="st0" d="M58.1,30.8c0.2-0.5,0.4-0.9,0.7-1.3c0.2-0.5,0.5-0.9,0.9-1.4c0.3-0.5,0.7-0.9,1.2-1.2
				c0.5-0.4,0.9-0.7,1.4-0.9c0.5-0.2,1.1-0.3,1.6-0.3H64c0.1,0,0.2,0,0.2,0c0.2,0,0.3,0.1,0.5,0.2c0.2,0.2,0.2,0.3,0.2,0.5
				c0,0.3-0.2,0.6-0.4,1c-0.2,0.4-0.8,0.8-1.4,1.2c-0.2,0.1-0.4,0.2-0.8,0.5c-0.4,0.2-0.8,0.5-1.3,0.9c-0.5,0.3-1.1,0.7-1.6,1
				c-0.5,0.4-1.1,0.7-1.6,0.9C57.8,31.6,57.9,31.2,58.1,30.8 M42.5,29.5c0.2-0.5,0.5-0.9,0.9-1.4c0.3-0.5,0.7-0.9,1.2-1.2
				c0.5-0.4,0.9-0.7,1.4-0.9c0.5-0.2,1.1-0.3,1.6-0.3h0.2c0.1,0,0.2,0,0.2,0c0.2,0,0.3,0.1,0.5,0.2c0.2,0.2,0.2,0.3,0.2,0.5
				c0,0.3-0.2,0.6-0.4,1c-0.2,0.4-0.8,0.8-1.4,1.2c-0.2,0.1-0.4,0.2-0.8,0.5c-0.4,0.2-0.8,0.5-1.3,0.9c-0.5,0.3-1.1,0.7-1.6,1
				c-0.5,0.3-1,0.6-1.6,0.9l-0.1-0.1c0.1-0.2,0.2-0.5,0.3-0.9C42,30.4,42.3,29.9,42.5,29.5 M91.2,14.4c-0.2-0.5-0.5-0.9-0.8-1.3
				c-0.3-0.3-0.6-0.6-1-0.8c-0.4-0.2-0.8-0.2-1.2-0.2c-0.9,0-1.9,0.2-2.9,0.5c-1,0.3-2,0.9-3.1,1.7c-1.1,0.9-2.2,1.9-3.3,3.4
				c-1.1,1.4-2.2,3.3-3.3,5.4h-2.7c-0.8,0-1.3,0.2-1.7,0.5c-0.4,0.3-0.5,0.7-0.5,1.1s0.2,0.7,0.5,0.9c0.3,0.2,0.9,0.4,1.7,0.4h1.2
				l-2.6,5.4c-0.2,0.1-0.4,0.2-0.7,0.4c-0.4,0.2-0.9,0.5-1.6,0.9c-0.6,0.3-1.2,0.7-2,1.1s-1.6,0.7-2.3,1s-1.6,0.6-2.4,0.8
				c-0.8,0.2-1.6,0.3-2.2,0.3c-0.7,0-1.2-0.2-1.6-0.4c-0.4-0.2-0.6-0.6-0.7-1.1c2.1-0.8,3.8-1.6,5.2-2.2c1.4-0.8,2.5-1.6,3.3-2.2
				c0.9-0.8,1.4-1.5,1.8-2.2c0.3-0.7,0.5-1.4,0.5-2c0-1.1-0.3-1.9-0.9-2.6c-0.6-0.6-1.6-0.9-2.9-0.9c-1.2,0-2.3,0.2-3.4,0.5
				c-1.1,0.4-2,0.9-2.9,1.4c-0.9,0.6-1.7,1.2-2.4,2c-0.7,0.8-1.3,1.6-1.8,2.3c-0.5,0.8-0.9,1.6-1.2,2.4c-0.2,0.6-0.3,1.2-0.4,1.8
				c-0.5,0.3-1.2,0.6-1.9,1c-0.8,0.4-1.6,0.7-2.3,1c-0.8,0.3-1.6,0.6-2.4,0.8c-0.8,0.2-1.6,0.3-2.2,0.3c-0.7,0-1.2-0.2-1.6-0.4
				c-0.4-0.2-0.6-0.6-0.7-1.1c2.1-0.8,3.8-1.6,5.2-2.2c1.4-0.8,2.5-1.6,3.3-2.2c0.9-0.8,1.4-1.5,1.8-2.2c0.3-0.7,0.5-1.4,0.5-2
				c0-1.1-0.3-1.9-0.9-2.6c-0.6-0.6-1.6-0.9-2.9-0.9c-1.2,0-2.3,0.2-3.4,0.5c-1.1,0.4-2,0.9-2.9,1.4c-0.9,0.6-1.7,1.2-2.4,2
				c-0.7,0.8-1.3,1.6-1.8,2.3c-0.5,0.8-0.9,1.6-1.2,2.4c-0.2,0.8-0.4,1.5-0.4,2.2c0,0.4,0,0.8,0.1,1.2c-0.5,0.3-0.9,0.5-1.6,0.8
				c-0.9,0.4-1.9,0.5-3,0.5h-0.3c-0.1,0-0.2,0-0.3,0c-0.6-0.1-1.2-0.4-1.8-0.9c-0.5-0.5-1.1-1.2-1.6-2.1c-0.5-0.9-0.9-1.7-1.2-2.6
				c-0.3-0.9-0.5-1.7-0.7-2.5c1-0.2,2-0.5,3-0.9c1.1-0.4,2.1-0.9,3.1-1.4c1-0.5,1.9-1.2,2.8-1.9c0.9-0.7,1.7-1.5,2.3-2.3
				c0.7-0.9,1.2-1.8,1.6-2.7c0.4-1,0.6-2,0.6-3.1c0-1.6-0.3-3-1-4.2c-0.6-1.2-1.6-2.2-2.6-2.9s-2.4-1.4-3.8-1.8
				C31,6.1,29.5,5.8,28,5.8c-1.6,0-3.1,0.2-4.6,0.5c-1.4,0.3-2.8,0.8-4,1.3c-1.2,0.5-2.3,1.2-3.3,1.9c-1,0.7-1.8,1.5-2.5,2.2
				c-0.7,0.8-1.2,1.6-1.6,2.3c-0.4,0.8-0.5,1.5-0.5,2.2c0,0.7,0.2,1.2,0.5,1.6c0.4,0.3,1,0.5,1.8,0.5c0.5,0,1.1-0.2,1.4-0.4
				c0.4-0.2,0.7-0.6,1-1c0.3-0.4,0.6-0.9,0.9-1.4c0.3-0.5,0.6-1.1,1-1.6c0.4-0.5,0.8-1.1,1.3-1.6c0.5-0.5,1.1-1,1.9-1.4
				c0.8-0.4,1.6-0.8,2.6-1c1-0.2,2.2-0.4,3.6-0.4c1.2,0,2.3,0.2,3.2,0.5c0.9,0.1,1.6,0.5,2.2,1c0.6,0.5,1,1,1.2,1.7
				c0.3,0.7,0.4,1.4,0.4,2.1c0,1-0.2,2.1-0.8,3.2c-0.5,1.1-1.2,2.1-2.1,2.9c-0.9,0.9-1.9,1.6-3.2,2.2c-1.2,0.5-2.5,0.9-3.8,0.9h-0.3
				c-0.1,0-0.2,0-0.3,0c0.4-0.9,0.8-1.7,1.2-2.5c0.4-0.9,0.7-1.6,1-2.2c0.3-0.7,0.5-1.2,0.7-1.8c0.2-0.5,0.2-0.9,0.2-1.2
				c0-0.3-0.1-0.5-0.2-0.7c-0.1-0.2-0.2-0.3-0.3-0.5c-0.2-0.1-0.2-0.2-0.4-0.2c-0.2-0.1-0.3-0.1-0.4-0.1c-0.4,0-0.9,0.2-1.4,0.7
				c-0.5,0.5-1,1.1-1.6,1.8c-0.5,0.8-1.2,1.6-1.7,2.6c-0.6,1-1.2,2-1.8,3l-6.7,12.5c-0.2,0.3-0.3,0.7-0.4,1
				c-0.1,0.3-0.1,0.8-0.1,1.2c0,0.2,0,0.5,0.1,0.8c0.1,0.3,0.2,0.5,0.4,0.8c0.2,0.2,0.4,0.4,0.7,0.5s0.7,0.2,1.2,0.2
				c0.6,0,1.2-0.2,1.6-0.6c0.5-0.4,1-1,1.5-1.7c0.5-0.7,0.9-1.5,1.2-2.4c0.4-0.9,0.7-1.8,1.1-2.7c0.3-0.9,0.6-1.8,0.9-2.6
				c0.3-0.9,0.5-1.6,0.9-2.2c0.5,1.6,1.1,3.1,1.7,4.6c0.6,1.4,1.3,2.7,2.1,3.8c0.8,1.1,1.6,1.9,2.6,2.6c0.9,0.6,1.9,0.9,3.1,0.9
				c1.3,0,2.8-0.3,4.3-1c0.7-0.3,1.5-0.8,2.2-1.2c0.1,0.2,0.2,0.3,0.3,0.5c0.5,0.6,1.1,1.1,1.9,1.4c0.7,0.4,1.6,0.5,2.5,0.5
				c1.1,0,2.2-0.2,3.3-0.5s2.2-0.6,3.2-1.1c1-0.5,2-0.9,2.9-1.4c0.5-0.3,1.1-0.6,1.6-0.9c0.2,0.7,0.6,1.3,1.1,1.9
				c0.5,0.6,1.1,1.1,1.9,1.4c0.7,0.4,1.6,0.5,2.5,0.5c1.1,0,2.2-0.2,3.3-0.5c1.1-0.3,2.2-0.6,3.2-1.1c1-0.5,2-0.9,2.9-1.4
				c0.5-0.2,0.9-0.5,1.3-0.8l-3.4,7.3c-0.2,0.4-0.3,0.7-0.4,0.9c-0.1,0.3-0.2,0.5-0.2,0.7c0,0.4,0.2,0.7,0.5,0.9
				c0.3,0.2,0.6,0.3,1,0.3c0.2,0,0.5-0.1,0.9-0.2c0.3-0.1,0.6-0.2,0.9-0.5c0.3-0.2,0.5-0.5,0.8-0.8c0.2-0.3,0.5-0.6,0.6-1
				c0.2-0.5,0.5-1.2,1-2c0.4-0.9,0.9-1.8,1.3-2.8c0.5-1.1,1-2.2,1.6-3.3c0.5-1.2,1.1-2.3,1.6-3.5c0.5-1.2,1.1-2.2,1.6-3.3
				c0.5-1.1,0.9-1.9,1.4-2.7h2h2c0.7,0,1.4,0,2.1-0.1c0.7,0,1.5,0,2.2-0.1c0.4,0,0.8-0.1,1-0.2c0.2-0.1,0.5-0.2,0.6-0.4
				c0.2-0.2,0.2-0.3,0.3-0.5c0.1-0.2,0.1-0.3,0.1-0.5c0-0.3-0.1-0.6-0.3-0.8c-0.2-0.2-0.4-0.3-0.8-0.4C87.8,23,87.4,23,87,23
				c-0.4,0-0.9,0-1.3,0h-5.3c0.4-0.9,0.9-1.9,1.5-2.7c0.6-0.9,1.2-1.7,1.9-2.4c0.7-0.7,1.3-1.2,1.9-1.6c0.6-0.4,1.2-0.6,1.7-0.6
				c0.4,0,0.7,0.2,0.9,0.4c0.2,0.3,0.4,0.8,0.4,1.4c0,0.2,0,0.3-0.1,0.5c0,0.2,0,0.4,0,0.5c0,0.3,0.2,0.5,0.4,0.7
				c0.2,0.2,0.5,0.2,0.9,0.2c0.2,0,0.2,0,0.5-0.1c0.2-0.1,0.3-0.1,0.5-0.2c0.2-0.1,0.3-0.2,0.5-0.3c0.2-0.2,0.2-0.3,0.3-0.5
				c0.2-0.8,0.3-1.6,0.3-2.2C91.5,15.5,91.4,14.9,91.2,14.4"/>
			<path id="Fill-3" class="st0" d="M81.4,31.9c-0.5,0-0.9,0.1-1.3,0.3c-0.4,0.2-0.8,0.5-1.1,0.8c-0.3,0.3-0.5,0.7-0.8,1.2
				C78.1,34.5,78,35,78,35.4c0,0.4,0.1,0.7,0.2,1.1c0.2,0.3,0.3,0.6,0.5,0.9c0.2,0.2,0.5,0.5,0.9,0.5c0.3,0.2,0.7,0.2,1,0.2
				c0.5,0,0.9-0.1,1.2-0.3c0.4-0.2,0.8-0.5,1-0.8c0.3-0.3,0.5-0.7,0.7-1.2s0.3-0.9,0.3-1.4c0-0.8-0.2-1.4-0.7-1.9
				C82.8,32.2,82.2,31.9,81.4,31.9"/>
		</g>
	</g>
</g>
</svg>
