<?xml version="1.0" encoding="utf-8"?>
<!-- Generator: Adobe Illustrator 25.4.1, SVG Export Plug-In . SVG Version: 6.00 Build 0)  -->
<svg version="1.1" id="Layer_1" xmlns="http://www.w3.org/2000/svg" xmlns:xlink="http://www.w3.org/1999/xlink" x="0px" y="0px"
	 viewBox="0 0 197 58" style="enable-background:new 0 0 197 58;" xml:space="preserve">
<style type="text/css">
	.st0{fill:#FFFFFF;}
	.st1{filter:url(#Adobe_OpacityMaskFilter);}
	.st2{fill-rule:evenodd;clip-rule:evenodd;fill:#FFFFFF;}
	.st3{mask:url(#mask-2_00000033360644058752244680000015489712463612369823_);fill-rule:evenodd;clip-rule:evenodd;fill:#FFFFFF;}
</style>
<g id="Page-1">
	<g id="Resources" transform="translate(-377.000000, -1459.000000)">
		<g id="Group-2" transform="translate(377.362268, 1459.305535)">
			<g id="Sushi-2" transform="translate(86.766324, 13.000000)">
				<path id="Sushi" class="st0" d="M10.5,31c2,0,3.8-0.4,5.2-1.1c1.5-0.7,2.6-1.7,3.4-3s1.2-2.6,1.2-4.2c0-1.6-0.4-2.9-1.2-3.9
					c-0.8-1-1.7-1.8-2.8-2.3c-1.1-0.5-2.5-1.1-4.2-1.7c-1.7-0.6-3-1.1-3.8-1.6C7.4,12.7,7,12,7,11.1c0-0.8,0.2-1.4,0.7-1.8
					s1.1-0.6,1.9-0.6c0.9,0,1.7,0.2,2.3,0.7c0.6,0.5,0.9,1.2,1,2.1l0,0H20c-0.1-2.5-1.1-4.5-2.9-5.9s-4.2-2.1-7.2-2.1
					C7,3.4,4.6,4.1,2.8,5.5s-2.7,3.4-2.7,5.9c0,1.7,0.4,3.1,1.2,4.1s1.7,1.8,2.8,2.4s2.5,1.1,4.3,1.6c1.2,0.4,2.1,0.7,2.8,1
					s1.2,0.6,1.6,1.1s0.7,1,0.7,1.6c0,0.8-0.3,1.4-0.8,1.9s-1.3,0.7-2.3,0.7c-0.9,0-1.7-0.3-2.3-0.8s-0.9-1.3-1-2.3l0,0H0
					c0.1,1.8,0.5,3.3,1.5,4.5c0.9,1.3,2.2,2.2,3.7,2.8S8.5,31,10.5,31z M33.6,30.9c1.4,0,2.6-0.3,3.8-0.9c1.1-0.6,2-1.3,2.7-2.3l0,0
					v2.9h6.6V9.3h-6.6v11.6c0,1.4-0.4,2.5-1.1,3.3c-0.7,0.8-1.7,1.2-3,1.2c-1.3,0-2.2-0.4-3-1.2c-0.7-0.8-1.1-1.9-1.1-3.3l0,0V9.3
					h-6.5v12.5c0,1.9,0.3,3.5,1,4.9c0.7,1.4,1.7,2.4,2.9,3.2C30.5,30.6,32,30.9,33.6,30.9z M61.2,31c1.7,0,3.3-0.3,4.6-0.8
					c1.3-0.6,2.3-1.3,3-2.3s1.1-2.1,1.1-3.4c0-1.5-0.4-2.7-1.2-3.5c-0.8-0.9-1.6-1.5-2.6-1.9c-1-0.4-2.3-0.8-3.9-1.2
					c-1.4-0.3-2.4-0.6-3-0.9s-1-0.8-1-1.4c0-0.5,0.2-0.9,0.6-1.2c0.4-0.3,1-0.4,1.8-0.4c0.9,0,1.6,0.2,2.2,0.7c0.5,0.4,0.9,1,1,1.8
					l0,0h6.1c-0.2-2.2-1.1-4-2.7-5.3c-1.5-1.3-3.7-2-6.3-2c-1.8,0-3.4,0.3-4.7,0.9s-2.3,1.4-3,2.4s-1,2.1-1,3.4
					c0,1.5,0.4,2.6,1.1,3.5s1.6,1.5,2.6,1.9s2.3,0.8,3.8,1.1c1.4,0.4,2.5,0.7,3.1,1c0.6,0.3,1,0.7,1,1.4c0,0.5-0.2,0.9-0.7,1.2
					c-0.4,0.3-1.1,0.5-1.9,0.5c-0.9,0-1.6-0.2-2.3-0.7s-1-1.1-1-1.8l0,0h-6.5c0.1,1.4,0.6,2.6,1.4,3.7c0.8,1.1,2,2,3.4,2.6
					C57.7,30.7,59.4,31,61.2,31z M81.6,30.7V19.1c0-1.4,0.4-2.5,1.1-3.3c0.7-0.8,1.7-1.2,3-1.2c1.3,0,2.2,0.4,3,1.2
					c0.7,0.8,1.1,1.9,1.1,3.3l0,0v11.6h6.5V18.2c0-2.8-0.7-5.1-2.2-6.7s-3.4-2.4-5.9-2.4c-1.4,0-2.7,0.3-3.9,0.8s-2.1,1.3-2.7,2.3
					l0,0V2.3h-6.6v28.4H81.6z M105.4,7.1c1.1,0,2.1-0.3,2.8-1c0.7-0.7,1.1-1.5,1.1-2.5c0-1-0.4-1.9-1.1-2.5c-0.7-0.7-1.7-1-2.8-1
					c-1.1,0-2.1,0.3-2.8,1s-1.1,1.5-1.1,2.5c0,1,0.4,1.8,1.1,2.5S104.2,7.1,105.4,7.1z M108.6,30.7V9.3h-6.6v21.4H108.6z"/>
			</g>
			<g id="Group-6" transform="translate(0.000000, 0.000000)">
				<g id="Group-3">
					<g id="Clip-2">
					</g>
					<defs>
						<filter id="Adobe_OpacityMaskFilter" filterUnits="userSpaceOnUse" x="0" y="0" width="61.7" height="57">
							<feColorMatrix  type="matrix" values="1 0 0 0 0  0 1 0 0 0  0 0 1 0 0  0 0 0 1 0"/>
						</filter>
					</defs>
					
						<mask maskUnits="userSpaceOnUse" x="0" y="0" width="61.7" height="57" id="mask-2_00000033360644058752244680000015489712463612369823_">
						<g class="st1">
							<polygon id="path-1_00000137838236688672815950000004075499504348487601_" class="st2" points="0,0 61.7,0 61.7,57 0,57 
															"/>
						</g>
					</mask>
					<path id="Fill-1" class="st3" d="M43.9,38.6c0.5,1,1.9,1.5,3.1,1.1c-0.4-0.2-0.7-0.3-1-0.4C45.3,39,44.6,38.8,43.9,38.6
						L43.9,38.6z M55.3,40.6c0-0.1,0.1-0.2,0.1-0.4c-2.2-0.2-4.4-0.3-6.5-0.5c-0.1,0-0.2,0.4-0.5,0.8H55.3z M12.9,13.1l-0.4,0.2
						c0.1,0.3,0.1,0.6,0.3,0.9c3.6,7.4,9,13.1,15.7,17.6c0.3,0.2,0.7,0.1,1.1,0.2c0-0.1,0.1-0.2,0.1-0.3
						C22.5,26.9,16.5,21,12.9,13.1L12.9,13.1z M52.3,37.7c1.3-0.2,2.6-0.4,3.8-0.8c2-0.6,3.7-2.5,3.4-4.7c-0.3-1.7-0.6-3.6-1.3-5.2
						c-2.4-5.2-6.3-9.2-10.6-12.8c-5.3-4.4-11-8-17.5-10.3c-3.7-1.3-7.4-2.3-11.4-1.5c-2.9,0.6-5.2,3.1-4.9,5.6
						c0.3,2.6,1.3,5,2.7,7.2c2.5,3.9,5.7,7.1,9.2,10.1c4.6,3.9,9.6,7.2,15.2,9.5C44.5,36.3,48.3,37.5,52.3,37.7L52.3,37.7z
						 M61.7,30.1v4.1c-0.4,0.7-0.8,1.5-1.2,2.2c-2.2,3.3-4.4,6.6-6.6,9.9c-1.2,1.7-2.4,3.5-3.5,5.2c-3.1,4.7-7.1,6.3-12.5,5.1
						c-5.2-1.1-10.2-2.9-14.9-5.5c-6.1-3.4-11.6-7.6-15.9-13c-2-2.5-3.8-5.3-5.4-8.1c-0.8-1.3-1-2.9-1.5-4.3c0-0.9,0-1.8,0-2.7
						c0.6-1.1,1-2.4,1.7-3.4c3.3-5,6.9-9.8,10.1-14.8C14.2,0.8,17.9-0.2,22,0c4.2,0.3,8.3,1.5,12.2,3.3c5.6,2.6,10.8,5.7,15.3,9.9
						c2.8,2.6,5.5,5.4,8,8.3C59.5,24,60.8,27,61.7,30.1L61.7,30.1z"/>
				</g>
				<path id="Fill-4" class="st2" d="M43.8,28.7c-2.5-0.2-5.2-1.2-7.7-2.5c-3.8-2.1-7.1-4.7-9.5-8.4C26,17,25.5,16,25.3,15
					c-0.6-3.4,2-4.4,4.7-4c6,1,10.9,4.1,14.9,8.5c1.3,1.5,2.4,3.4,3,5.3c0.7,2.1-0.8,3.7-3.1,3.9C44.6,28.7,44.3,28.7,43.8,28.7"/>
			</g>
		</g>
	</g>
</g>
</svg>
