<?xml version="1.0" encoding="utf-8"?>
<!-- Generator: Adobe Illustrator 25.4.1, SVG Export Plug-In . SVG Version: 6.00 Build 0)  -->
<svg version="1.1" id="Layer_1" xmlns="http://www.w3.org/2000/svg" xmlns:xlink="http://www.w3.org/1999/xlink" x="0px" y="0px"
	 viewBox="0 0 100 25" style="enable-background:new 0 0 100 25;" xml:space="preserve">
<style type="text/css">
	.st0{fill-rule:evenodd;clip-rule:evenodd;fill:#FFFFFF;}
</style>
<g>
	<path class="st0" d="M72.2,7.4c-0.1,0-0.3,0-0.8,0c-0.4,0-0.8,0-1.2,0.1c-1.5,0.3-2.4,1.1-3.3,2V7.8h-4.7V23H67v-6.3
		c0-0.8,0-1.4,0.1-2.1c0.1-0.6,0.3-1.2,0.5-1.6c0.3-0.4,0.7-0.8,1.2-1s1.2-0.4,2.1-0.4c0.7,0,1.4,0.1,2,0.3V7.5
		C72.7,7.5,72.5,7.4,72.2,7.4 M84.5,7.4c-0.1,0-0.3,0-0.8,0c-0.4,0-0.8,0-1.2,0.1c-1.5,0.3-2.4,1.1-3.3,2V7.8h-4.7V23h4.7v-6.3
		c0-0.8,0-1.4,0.1-2.1c0.1-0.6,0.3-1.2,0.5-1.6c0.3-0.4,0.7-0.8,1.2-1s1.2-0.4,2.1-0.4c0.7,0,1.4,0.1,2,0.3V7.5
		C85,7.5,84.8,7.4,84.5,7.4 M35.7,6.7h-6.2V2.5h17.2v4.2h-6.2v15.5h-4.8V6.7z M56,13.5c0-0.7-0.3-1.5-0.8-2
		c-0.5-0.6-1.2-0.8-2.1-0.8c-0.5,0-1,0.1-1.4,0.2c-0.4,0.1-0.7,0.4-1,0.6c-0.3,0.3-0.5,0.6-0.7,0.9c-0.2,0.3-0.2,0.7-0.3,1.1
		C49.8,13.5,56,13.5,56,13.5z M59.9,20c-0.8,0.9-1.7,1.7-2.8,2.2C56,22.7,54.8,23,53.5,23c-1.1,0-2.2-0.2-3.3-0.5
		c-1-0.3-1.9-0.9-2.7-1.6s-1.4-1.5-1.8-2.5c-0.4-1-0.7-2-0.7-3.2s0.2-2.2,0.7-3.2c0.4-0.9,1-1.8,1.8-2.5s1.7-1.2,2.7-1.6
		c1.1-0.4,2.2-0.6,3.3-0.6s2.1,0.2,3,0.6s1.6,0.9,2.3,1.6c0.6,0.7,1.1,1.5,1.4,2.5c0.3,1,0.5,2,0.5,3.2v1.4H49.8
		c0.2,0.9,0.6,1.6,1.2,2.1c0.6,0.5,1.4,0.8,2.3,0.8c0.8,0,1.4-0.2,2-0.5c0.5-0.3,1-0.8,1.4-1.3L59.9,20z M95.9,17.3v-0.2
		c0-0.3-0.2-0.6-0.5-0.7c-0.7-0.2-1.5-0.4-2.2-0.4c-1.8,0-3,0.7-3,2.1v0.1c0,1.2,1,1.8,2.3,1.8C94.6,20,95.9,18.9,95.9,17.3
		 M86.1,18.3L86.1,18.3c0-3.4,2.5-4.9,6.1-4.9c1.5,0,2.6,0.3,3.7,0.6v-0.3c0-1.8-1.1-2.8-3.2-2.8c-1.6,0-2.8,0.3-4.2,0.8l-1.1-3.3
		c1.7-0.7,3.3-1.2,5.9-1.2c2.3,0,4,0.6,5.1,1.7s1.6,2.8,1.6,4.8v8.8h-4.2V21c-1,1.2-2.5,1.9-4.6,1.9C88.4,23,86.1,21.3,86.1,18.3
		 M11.6,20c0.7,2.7,3.2,4.7,4.5,4.6c0,0,4.8-0.9,7.4-5.4c2-3.5,1.3-6.8-1.4-6.9C21,12.4,10.3,14.9,11.6,20 M14,0
		c-1.8,0-3.5,0.4-5,1.1C8.7,1.2,8.4,1.3,8.2,1.5C8,1.5,7.8,1.6,7.7,1.7l0,0C7.2,2.1,6.7,2.5,6.4,3c-3.6,4.7,8.4,8.1,14.7,8.1
		C24,13.2,24.9,5.2,22,3C19.8,1,16.9,0,14,0z"/>
	<path class="st0" d="M9.5,2.8c-1.6,2.4-7,4-7.9,3.8l0,0l0.1-0.2c1-1.8,2.3-3.3,3.9-4.5c0.3-0.2,0.7-0.5,1-0.7
		c0.7-0.4,1.5-0.5,1.8-0.5C10.8,0.9,9.5,2.7,9.5,2.8"/>
	<g transform="translate(0 8.197)">
		<path class="st0" d="M8.1,12.3c0.1,0.8,0,3.8-0.2,4.1c-0.1,0-0.4,0-1.3-0.4c-1.6-0.9-3-2.2-4.2-3.7C1.8,11.2,1.1,10,0.7,8.7
			C0.2,7.4,0,6,0,4.5s0.3-3,0.8-4.5l0,0c1,1.3,2.1,2.4,3,3.7C4.7,4.9,6,6.9,6.2,7.3C7.8,9.9,8,11.5,8.1,12.3"/>
	</g>
	<path class="st0" d="M26.2,12.9c0,1.7-0.3,3.3-0.9,4.8c-1.5,1.6-11.8-2.4-11.9-2.4c-1.4-0.6-5.7-2.5-6.1-5.4
		c-0.6-4.2,8-7.2,11.8-7.3c0.5,0,1.8,0,2.6,0.7C24.6,5.6,26.2,9.1,26.2,12.9 M17.3,23.4c0.6-2.2,6-4.4,7.2-4.5
		c0.1,0,0.2,0.1,0.1,0.2c-1.2,2.2-3.1,4.1-5.3,5.3C18.2,24.9,16.9,24.5,17.3,23.4z"/>
</g>
</svg>
