<?xml version="1.0" encoding="utf-8"?>
<!-- Generator: Adobe Illustrator 25.4.1, SVG Export Plug-In . SVG Version: 6.00 Build 0)  -->
<svg version="1.1" id="Layer_1" xmlns="http://www.w3.org/2000/svg" xmlns:xlink="http://www.w3.org/1999/xlink" x="0px" y="0px"
	 viewBox="0 0 155 34" style="enable-background:new 0 0 155 34;" xml:space="preserve">
<style type="text/css">
	.st0{filter:url(#Adobe_OpacityMaskFilter);}
	.st1{fill-rule:evenodd;clip-rule:evenodd;fill:#FFFFFF;}
	.st2{mask:url(#mask-2_00000000197909235325454610000000007456651247871150_);fill-rule:evenodd;clip-rule:evenodd;fill:#FFFFFF;}
	.st3{filter:url(#Adobe_OpacityMaskFilter_00000043448542705137804650000007325656481094143113_);}
	.st4{mask:url(#mask-4_00000010999483868801090750000000234213568144810385_);fill-rule:evenodd;clip-rule:evenodd;fill:#FFFFFF;}
	.st5{filter:url(#Adobe_OpacityMaskFilter_00000166635540836496928600000017343270231829804701_);}
	.st6{mask:url(#mask-6_00000081610590736050161470000001837607537808331662_);fill-rule:evenodd;clip-rule:evenodd;fill:#FFFFFF;}
</style>
<g id="Page-1">
	<g id="About:-Who-Trusts-Us" transform="translate(-576.000000, -782.000000)">
		<g id="thorchain" transform="translate(576.558311, 782.459627)">
			<g id="Group-3">
				<g id="Clip-2">
				</g>
				<defs>
					<filter id="Adobe_OpacityMaskFilter" filterUnits="userSpaceOnUse" x="0" y="0" width="28.7" height="33">
						<feColorMatrix  type="matrix" values="1 0 0 0 0  0 1 0 0 0  0 0 1 0 0  0 0 0 1 0"/>
					</filter>
				</defs>
				
					<mask maskUnits="userSpaceOnUse" x="0" y="0" width="28.7" height="33" id="mask-2_00000000197909235325454610000000007456651247871150_">
					<g class="st0">
						<polygon id="path-1_00000119110238245021707440000002710021859462465446_" class="st1" points="0,0 28.7,0 28.7,33 0,33 
													"/>
					</g>
				</mask>
				<path id="Fill-1" class="st2" d="M28.7,0.1c-4.3,5.3-8.7,10.6-13,15.9c2.4,2.5,4.9,4.9,7.3,7.4c-7.7,3.2-15.3,6.5-23,9.7
					c0,0,0,0-0.1-0.1c5.2-5.7,10.5-11.3,15.7-17c-2.4-2.5-4.9-4.9-7.3-7.4C15.2,5.7,21.9,2.8,28.7,0.1C28.7,0,28.7,0,28.7,0.1"/>
			</g>
			<g id="Group-6" transform="translate(144.502000, 10.214667)">
				<g id="Clip-5">
				</g>
				<defs>
					
						<filter id="Adobe_OpacityMaskFilter_00000057866959446479000380000018085567991345350046_" filterUnits="userSpaceOnUse" x="0" y="0" width="9.5" height="12.6">
						<feColorMatrix  type="matrix" values="1 0 0 0 0  0 1 0 0 0  0 0 1 0 0  0 0 0 1 0"/>
					</filter>
				</defs>
				
					<mask maskUnits="userSpaceOnUse" x="0" y="0" width="9.5" height="12.6" id="mask-4_00000010999483868801090750000000234213568144810385_">
					<g style="filter:url(#Adobe_OpacityMaskFilter_00000057866959446479000380000018085567991345350046_);">
						<polygon id="path-3_00000008837245980570021560000012351345357358277537_" class="st1" points="0,0 9.5,0 9.5,12.6 0,12.6 
													"/>
					</g>
				</mask>
				<path id="Fill-4" class="st4" d="M9.5,12.6c-0.5,0-1,0-1.5,0c-0.1,0-0.2-0.1-0.3-0.2C5.9,9.6,4.2,6.8,2.4,4.1
					C2.3,4,2.3,3.9,2.1,3.8v4.4v4.4H0V0c0.5,0,1.1,0,1.6,0c0.1,0,0.2,0.2,0.3,0.3C3.6,3,5.4,5.7,7.1,8.4c0.1,0.1,0.2,0.3,0.3,0.4V0
					h2.1V12.6z"/>
			</g>
			<path id="Fill-7" class="st1" d="M67.2,16.3c0.1,0.9,0.1,1.6,0.1,2.2c0,0.3,0.1,0.6,0.2,0.9c0.2,0.8,0.8,1.4,1.7,1.5
				c0.5,0.1,1,0.1,1.6,0.1c1.5-0.1,2.1-0.7,2.3-2.2c0.1-1.1,0.1-2.3,0.1-3.4c0-0.6-0.1-1.3-0.3-1.9c-0.2-0.8-0.8-1.3-1.6-1.4
				c-0.5,0-1-0.1-1.5-0.1c-1.3,0.1-2,0.6-2.2,1.9C67.3,14.8,67.2,15.7,67.2,16.3 M65,16.5c0.1-1,0.1-2,0.4-3
				c0.5-2.4,1.6-3.1,3.5-3.3c1-0.1,2-0.1,3,0.1c1.6,0.3,2.6,1.2,3,2.8c0.4,1.5,0.4,3.1,0.3,4.7c0,0.7-0.1,1.4-0.3,2.1
				c-0.4,1.8-1.3,2.7-3.2,3c-1.1,0.2-2.3,0.2-3.4,0c-1.5-0.3-2.4-1.2-2.9-2.7C65.1,19,65.1,17.7,65,16.5"/>
			<path id="Fill-9" class="st1" d="M82.5,16.2c1,0,2,0,3.1,0c0.6,0,1.1-0.4,1.2-1.1c0.1-0.5,0.1-1.1,0.1-1.6
				c-0.1-1-0.5-1.4-1.5-1.4c-0.9,0-1.8,0-2.6,0c0,0-0.1,0-0.1,0V16.2z M80.4,10.2h0.3c1.6,0,3.3,0,4.9,0c0.4,0,0.7,0,1.1,0.1
				c1.2,0.3,1.9,1.1,2.2,2.3c0.2,0.9,0.2,1.8,0,2.7c-0.2,1-0.8,1.7-1.7,2.2c-0.1,0-0.2,0.1-0.3,0.1c0.8,1.7,1.6,3.4,2.4,5.1
				c-0.2,0-0.4,0-0.6,0c-0.4,0-0.9,0-1.3,0c-0.2,0-0.3-0.1-0.4-0.3c-0.6-1.4-1.3-2.9-1.9-4.3C85,18,84.9,18,84.6,18
				c-0.7,0-1.4,0-2.1,0v4.8h-2.1V10.2z"/>
			<polygon id="Fill-11" class="st1" points="109.2,10.2 109.2,15.6 114.5,15.6 114.5,10.2 116.6,10.2 116.6,22.8 114.5,22.8 
				114.5,17.6 109.2,17.6 109.2,22.8 107.1,22.8 107.1,10.2 			"/>
			<polygon id="Fill-13" class="st1" points="50.4,10.2 52.5,10.2 52.5,15.6 57.8,15.6 57.8,10.2 59.9,10.2 59.9,22.8 57.8,22.8 
				57.8,17.6 52.5,17.6 52.5,22.8 50.4,22.8 			"/>
			<path id="Fill-15" class="st1" d="M128.5,17.9c-0.6-1.9-1.2-3.8-1.7-5.7c0,0,0,0-0.1,0c-0.6,1.9-1.1,3.8-1.7,5.7H128.5z
				 M132.2,22.8c-0.7,0-1.4,0-2.1,0c-0.1,0-0.2-0.1-0.2-0.2c-0.3-0.8-0.5-1.6-0.8-2.5c-0.1-0.2-0.2-0.3-0.4-0.3c-1.3,0-2.6,0-3.9,0
				c-0.3,0-0.4,0.1-0.4,0.3c-0.2,0.8-0.5,1.6-0.8,2.4c-0.1,0.2-0.2,0.3-0.4,0.3c-0.6,0-1.2,0-1.9,0c0-0.1,0.1-0.2,0.1-0.3
				c1.3-4,2.6-8,3.9-12c0.1-0.2,0.2-0.3,0.4-0.3c0.7,0,1.4,0,2.1,0c0.2,0,0.3,0.1,0.4,0.3c1,3,1.9,5.9,2.9,8.9c0.3,1,0.7,2,1,3.1
				C132.1,22.6,132.1,22.7,132.2,22.8L132.2,22.8z"/>
			<path id="Fill-17" class="st1" d="M102.1,12.2c-1.3-0.1-2.5-0.1-3.7-0.2c-0.2,0-0.5,0-0.7,0.1c-0.8,0.1-1.3,0.7-1.6,1.5
				C96,14,95.9,14.5,95.9,15c-0.1,1.3-0.1,2.6,0.1,3.9c0.2,1.5,1,2.1,2.5,2.1c1.1,0,2.3-0.1,3.4-0.2c0.1,0,0.1,0,0.3,0
				c0,0.5,0,1,0,1.5c0,0.1-0.1,0.2-0.2,0.2c-1,0.1-2.1,0.3-3.1,0.4c-0.6,0-1.3,0-1.9-0.1c-1.3-0.2-2.2-1-2.6-2.2
				c-0.4-1.1-0.5-2.1-0.5-3.2c0-1.4,0-2.8,0.3-4.2c0.1-0.2,0.1-0.5,0.2-0.7c0.6-1.5,1.7-2.2,3.3-2.3c1.5-0.1,2.9,0.1,4.3,0.4
				c0.2,0.1,0.3,0.2,0.3,0.4C102.1,11.4,102.1,11.8,102.1,12.2"/>
			<polygon id="Fill-19" class="st1" points="40.1,22.8 40.1,12.1 36.5,12.1 36.5,10.2 45.9,10.2 45.9,12.1 42.3,12.1 42.3,22.8 			
				"/>
			<g id="Clip-22">
			</g>
			<defs>
				
					<filter id="Adobe_OpacityMaskFilter_00000003793178873360654170000003350716896980935061_" filterUnits="userSpaceOnUse" x="136.8" y="10.2" width="2.1" height="12.6">
					<feColorMatrix  type="matrix" values="1 0 0 0 0  0 1 0 0 0  0 0 1 0 0  0 0 0 1 0"/>
				</filter>
			</defs>
			
				<mask maskUnits="userSpaceOnUse" x="136.8" y="10.2" width="2.1" height="12.6" id="mask-6_00000081610590736050161470000001837607537808331662_">
				<g style="filter:url(#Adobe_OpacityMaskFilter_00000003793178873360654170000003350716896980935061_);">
					<polygon id="path-5_00000155824698496838386870000012187147901387946634_" class="st1" points="0,33 154,33 154,0 0,0 					"/>
				</g>
			</mask>
			<polygon id="Fill-21" class="st6" points="136.8,22.8 138.9,22.8 138.9,10.2 136.8,10.2 			"/>
		</g>
	</g>
</g>
</svg>
