<?xml version="1.0" encoding="utf-8"?>
<!-- Generator: Adobe Illustrator 25.4.1, SVG Export Plug-In . SVG Version: 6.00 Build 0)  -->
<svg version="1.1" id="Layer_1" xmlns="http://www.w3.org/2000/svg" xmlns:xlink="http://www.w3.org/1999/xlink" x="0px" y="0px"
	 viewBox="0 0 145 45" style="enable-background:new 0 0 145 45;" xml:space="preserve">
<style type="text/css">
	.st0{filter:url(#Adobe_OpacityMaskFilter);}
	.st1{fill-rule:evenodd;clip-rule:evenodd;fill:#FFFFFF;}
	.st2{mask:url(#mask-2_00000032628884660883120910000000781808148673368996_);fill-rule:evenodd;clip-rule:evenodd;fill:#FFFFFF;}
</style>
<g id="Page-1">
	<g id="About:-Who-Trusts-Us" transform="translate(-583.000000, -3423.000000)">
		<g id="x-defi-wallet" transform="translate(583.838056, 3423.141842)">
			<g id="Group-3" transform="translate(100.534603, 0.000000)">
				<g id="Clip-2">
				</g>
				<defs>
					<filter id="Adobe_OpacityMaskFilter" filterUnits="userSpaceOnUse" x="0" y="0" width="43.1" height="44">
						<feColorMatrix  type="matrix" values="1 0 0 0 0  0 1 0 0 0  0 0 1 0 0  0 0 0 1 0"/>
					</filter>
				</defs>
				
					<mask maskUnits="userSpaceOnUse" x="0" y="0" width="43.1" height="44" id="mask-2_00000032628884660883120910000000781808148673368996_">
					<g class="st0">
						<polygon id="path-1_00000146493987066840028880000004233194166049404581_" class="st1" points="0,0 43.1,0 43.1,44 0,44 
													"/>
					</g>
				</mask>
				<path id="Fill-1" class="st2" d="M28.1,26.1c-2.1,1.5-4.2,2.4-6.4,3.1c-4.2,1.2-8.5,1.5-12.8,0.2c-8.9-2.6-10.3-11.1-7.6-17.1
					c3.9-8.5,13.4-13.4,23-12.1c9.3,1.3,17,8.8,18.5,17.9c2.1,12.6-6.3,24.1-18.8,25.8c-0.8,0.1-1.1-0.1-1.1-0.9
					c0-0.7-0.6-1.4,0.8-1.7c9.3-1.4,16-8.5,16.9-17.9C41.4,15.1,36,6.7,27.7,3.7C18.6,0.3,8.1,4.4,3.7,13
					c-3.4,6.6,0.6,13.7,8.2,14.5c4.6,0.5,9-0.2,13.1-2.4C26.3,24.4,26.9,25.7,28.1,26.1"/>
			</g>
			<path id="Fill-4" class="st1" d="M33.3,17.7c0,0.3,0,0.6,0,0.9c0,2.6,0,2.6,2.6,2.4c1.8-0.1,3-1.3,3.1-3.2c0.1-1.9-1-3.3-2.9-3.5
				c-0.6-0.1-1.2,0-1.8-0.1c-0.8-0.1-1.1,0.2-1,1C33.4,16.1,33.3,16.9,33.3,17.7 M29.7,17.6c0-1.8,0-3.6,0-5.3
				c0-0.4-0.1-0.9,0.6-0.9c2.5,0.1,5-0.3,7.5,0.3c3.3,0.7,5.1,3.2,4.9,6.7c-0.2,3-2.5,5.3-5.7,5.6c-2.1,0.2-4.2,0.1-6.4,0.1
				c-0.7,0-1-0.2-1-1C29.7,21.2,29.7,19.4,29.7,17.6"/>
			<path id="Fill-6" class="st1" d="M52,17.6c0-1.8,0-3.6,0-5.3c0-0.8,0.2-0.9,1-0.9c2.7,0,5.4,0,8.1,0c0.8,0,0.9,0.3,0.9,1
				c0,1.9,0,1.9-1.8,1.9c-1.2,0-2.3,0.1-3.5,0c-0.9-0.1-1,0.3-1,1.1c0,0.8,0.2,1.1,1,1c1.2-0.1,2.3,0.1,3.5,0c1.3-0.1,1,0.7,1,1.4
				c0,0.8,0.1,1.5-1.1,1.3c-1.2-0.1-2.3,0-3.5,0c-0.9-0.1-1,0.4-0.9,1.1c0,0.6-0.1,1.2,0.9,1.1c1.6-0.1,3.1,0,4.7,0c0.7,0,1,0.2,1,1
				C62,24.4,62.3,24,60.2,24c-2.4,0-4.9,0-7.3,0c-0.7,0-1-0.2-1-1C52,21.2,52,19.4,52,17.6"/>
			<path id="Fill-8" class="st1" d="M21.2,11.4c-1.3,1.7-2.3,3.3-3.4,4.7c-0.8,1-0.9,1.6-0.1,2.6c1.3,1.6,2.4,3.3,3.6,5
				c-3.6,1.3-5.2-0.8-6.5-3.7c-0.7,1.1-1.4,1.9-1.8,2.8c-0.5,1-1.2,1.3-2.3,1.2c-0.8-0.1-1.6,0-2.4,0c0-0.7,0.5-1,0.8-1.5
				c0.7-1,1.4-1.9,2-2.8c1.5-2.1,1.5-2.1,0-4.3c-0.9-1.2-1.7-2.4-2.5-3.6c0-0.1-0.1-0.2-0.1-0.4c1.3-0.1,2.9-0.5,3.9,0.1
				c1.1,0.6,1.6,2.1,2.5,3.3c0.6-0.8,1.2-1.5,1.6-2.3c0.5-0.9,1.1-1.3,2.2-1.2C19.4,11.4,20.2,11.4,21.2,11.4"/>
			<path id="Fill-10" class="st1" d="M113.1,35.8c-4-0.1-7.9-0.5-11.5-2.3c-0.5-0.2-1.3-0.5-1.2-1c0.1-0.6,0.7-1,1.1-1.5
				c0.3-0.3,0.5-0.1,0.8,0.1c5.2,2.7,10.8,2.6,16.4,1.8c4.3-0.6,8.1-2.3,11.6-4.9c0.5-0.4,2.6,0.4,2.6,0.9c0,0.4-0.4,0.6-0.7,0.8
				c-3.8,3.1-8.1,4.8-12.9,5.7C117.2,35.6,115.1,35.8,113.1,35.8"/>
			<path id="Fill-12" class="st1" d="M71.5,17.6c0-1.7,0-3.5,0-5.2c0-0.8,0.1-1.1,1-1.1c2.6,0.1,5.3,0,7.9,0c0.7,0,1,0.2,1,0.9
				c0,1.9,0,1.9-1.9,1.9c-1.2,0-2.4,0-3.6,0c-1.2,0-0.7,0.9-0.7,1.4c0,0.5-0.4,1.3,0.7,1.3c1.3,0,2.6,0,3.9,0c0.7,0,1,0.2,0.9,0.9
				c0,0.3-0.1,0.7,0,1c0.1,0.8-0.2,1-1,1c-1.2-0.1-2.4,0-3.6,0c-0.7,0-0.9,0.2-0.9,0.9c0,0.3,0,0.7,0,1c-0.1,0.8,0.4,1.8-0.2,2.2
				C74.1,24.3,72.9,24,72,24c-0.6,0-0.5-0.5-0.5-0.9C71.5,21.3,71.5,19.5,71.5,17.6"/>
			<path id="Fill-14" class="st1" d="M113.6,41c-0.9,0-1.8-0.1-2.7,0c-1.5,0.1-0.8-1-0.9-1.6c-0.1-0.8,0.3-0.9,1.1-0.9
				c6.3,0.2,12.4-0.6,18.1-3.8c2-1.1,3.8-2.5,5.2-4.2c1-1.2,1.6,0,2.2,0.4c0.8,0.4,0,0.9-0.3,1.2c-3.6,4.3-8.3,6.6-13.6,7.8
				C119.7,40.7,116.7,41,113.6,41"/>
			<path id="Fill-16" class="st1" d="M7.9,33.2c-0.8,2.3-1.6,4.6-2.4,7c-0.2,0.6-0.4,0.9-1.1,0.9c-0.7,0-1-0.3-1.2-0.9
				c-0.9-2.8-1.9-5.6-2.8-8.4c-0.1-0.4-0.8-1.1-0.1-1.4c0.8-0.4,1.4,0.1,1.6,1.1c0.6,1.9,1.3,3.9,1.9,5.8C4,37.7,4.1,38,4.4,38.7
				c0.9-2.7,1.7-5,2.6-7.3c0.1-0.4,0.1-0.9,0.7-1c0.7-0.1,1.2,0,1.5,0.8c0.6,2.1,1.4,4.1,2.1,6.1c0.1,0.4,0.2,0.8,0.7,1.2
				c0.8-2.3,1.6-4.6,2.3-6.9c0.1-0.3,0.2-0.6,0.3-0.9c0.3-0.7,0.9-0.5,1.3-0.4c0.5,0.1,0.1,0.6,0,0.9c-1,3-2,6-3,9
				c-0.2,0.6-0.4,0.8-1.1,0.8c-0.7,0-1-0.2-1.2-0.9c-0.8-2.4-1.6-4.7-2.4-7C8.1,33.2,8,33.2,7.9,33.2"/>
			<path id="Fill-18" class="st1" d="M72,35.7c0-1.5,0-2.9,0-4.4c0-0.7,0.2-0.9,0.9-0.9c1.9,0,3.9,0,5.8,0c0.5,0,0.9,0,0.9,0.7
				c0,0.7-0.4,0.7-0.9,0.7c-1.3,0-2.7,0-4,0c-0.8,0-1.2,0.2-1,1c0,0.3,0,0.5,0,0.8c-0.1,1,0.2,1.5,1.3,1.4c1.1-0.1,2.2,0,3.2,0
				c0.5,0,0.7,0.1,0.7,0.6c0,0.6-0.2,0.7-0.8,0.7c-1.2,0-2.3,0-3.5,0c-0.7,0-1.1,0.1-1.1,1c0.1,2.9-0.3,2.3,2.3,2.4c1,0,2.1,0,3.1,0
				c0.5,0,0.8,0.1,0.8,0.7c0,0.5-0.2,0.8-0.7,0.7c-2.1,0-4.2,0-6.4,0c-0.7,0-0.7-0.3-0.7-0.9C72,38.7,72,37.2,72,35.7"/>
			<path id="Fill-20" class="st1" d="M94.1,17.9c0,1.7,0,3.5,0,5.2c0,0.7-0.1,1.1-1,1.1c-2.6,0-2.6,0.1-2.6-2.6c0-3,0-6,0-9
				c0-0.8,0.2-1,1-1c2.6,0,2.6,0,2.6,2.5C94.1,15.4,94.1,16.6,94.1,17.9"/>
			<path id="Fill-22" class="st1" d="M25.7,37.1c1.3,0,2.5,0,3.6,0c0.7,0,0.7-0.3,0.4-0.8c-0.6-1.3-1.2-2.7-1.9-4.2
				C27.1,33.8,26.4,35.4,25.7,37.1 M22.3,40.9c1.5-3.4,3-6.7,4.5-10c0.2-0.6,0.6-0.6,1.1-0.6c0.6,0,0.8,0.3,1.1,0.7
				c1.3,3,2.7,6,4.1,9c0.1,0.3,0.5,0.7,0.1,0.9c-0.4,0.2-1,0.3-1.5-0.1c-0.1-0.1-0.1-0.2-0.2-0.3c-0.4-2.1-1.8-2.3-3.5-2.1
				c-0.4,0.1-0.9,0.1-1.3,0c-1.3-0.2-2,0.3-2.3,1.5C24.2,41,23.5,41.3,22.3,40.9"/>
			<path id="Fill-24" class="st1" d="M90.7,36.4c0-1.1-0.1-2.3,0-3.4c0.1-1.1-0.4-1.4-1.3-1.3c-0.5,0.1-1,0-1.6,0
				c-0.5,0-0.8-0.1-0.8-0.7c0-0.6,0.2-0.7,0.8-0.7c2.4,0,4.8,0,7.3,0c0.6,0,0.9,0.1,0.9,0.8c0,0.7-0.4,0.6-0.9,0.7
				c-0.9,0.1-2.1-0.4-2.6,0.2c-0.6,0.7-0.2,1.8-0.2,2.8c0,1.8,0,3.6,0,5.4c0,0.6-0.1,0.9-0.8,0.9c-0.7,0-0.9-0.3-0.8-0.9
				C90.7,38.9,90.7,37.7,90.7,36.4"/>
			<path id="Fill-26" class="st1" d="M58.3,35c0,1.3,0,2.5,0,3.8c0,0.7,0.2,0.9,0.9,0.9c1.3,0,2.6,0,3.9,0c0.5,0,1-0.1,1,0.7
				c0,0.7-0.4,0.7-0.9,0.7c-1.9,0-3.7,0-5.6,0c-0.7,0-0.9-0.2-0.9-0.9c0-3,0-6,0-8.9c0-0.5,0-0.9,0.7-0.9c0.7,0,0.9,0.2,0.9,0.9
				C58.2,32.5,58.3,33.8,58.3,35"/>
			<path id="Fill-28" class="st1" d="M41.3,35.7c0-1.4,0-2.8,0-4.2c0-0.6-0.2-1.2,0.8-1.2c1.1,0,0.7,0.8,0.7,1.3
				c0,2.3,0.1,4.6,0,6.9c0,0.9,0.2,1.2,1.1,1.2c1.3-0.1,2.6,0,3.9,0c0.5,0,0.8,0.1,0.8,0.7c0,0.6-0.3,0.7-0.8,0.7
				c-1.9,0-3.8,0-5.7,0c-0.8,0-0.8-0.3-0.8-0.9C41.3,38.7,41.3,37.2,41.3,35.7"/>
			<path id="Fill-30" class="st1" d="M136.2,19c0,1.1-1,2-2,1.9c-1.1-0.1-1.9-1-1.8-2.1c0.1-1.1,0.8-1.8,2-1.8
				C135.4,17,136.2,17.9,136.2,19"/>
		</g>
	</g>
</g>
</svg>
